<?xml version="1.0" encoding="UTF-8"?>
<!DOCTYPE svg PUBLIC "-//W3C//DTD SVG 1.1//EN" "http://www.w3.org/Graphics/SVG/1.1/DTD/svg11.dtd">
<!-- Creator: CorelDRAW 2018 (64-Bit) -->
<svg xmlns="http://www.w3.org/2000/svg" xml:space="preserve" width="1181px" height="1181px" version="1.1" style="shape-rendering:geometricPrecision; text-rendering:geometricPrecision; image-rendering:optimizeQuality; fill-rule:evenodd; clip-rule:evenodd"
viewBox="0 0 1181 1181"
 xmlns:xlink="http://www.w3.org/1999/xlink">
 <defs>
  <style type="text/css">
   <![CDATA[
    .fil0 {fill:black}
    .fil1 {fill:#981C21}
   ]]>
  </style>
 </defs>
 <g id="Слой_x0020_1">
  <metadata id="CorelCorpID_0Corel-Layer"/>
  <g id="_2908609711600">
   <path class="fil0" d="M175.27 619.93c-4.59,0 -9.19,-0.92 -13.56,-2.76 -4.36,-1.84 -8.04,-4.6 -11.49,-8.05 -3.22,-3.44 -5.98,-7.81 -7.82,-12.87 -2.06,-5.05 -2.98,-10.57 -2.98,-17.01 0,-6.43 0.92,-11.95 2.98,-17.24 1.84,-5.05 4.6,-9.65 8.05,-13.33 3.45,-3.67 7.36,-6.43 11.95,-8.5 4.6,-2.07 9.42,-2.99 14.71,-2.99 3.91,0 7.36,0.46 10.57,1.38 3.22,0.92 6.21,2.3 8.97,4.14l2.3 -3.68 4.36 0 0.46 28.27 -4.59 0c-0.69,-2.76 -1.38,-5.74 -2.76,-8.96 -1.15,-3.22 -2.53,-5.98 -4.14,-8.05 -1.84,-2.52 -3.91,-4.59 -6.43,-5.97 -2.53,-1.38 -5.29,-2.07 -8.51,-2.07 -3.68,0 -6.89,0.69 -10.11,2.3 -2.76,1.38 -5.29,3.91 -7.59,6.89 -2.07,2.99 -3.9,6.9 -5.05,11.5 -1.15,4.59 -1.84,9.88 -1.84,15.63 0,5.05 0.69,9.65 1.84,13.79 1.38,4.13 3.21,7.81 5.51,11.03 2.3,3.22 5.29,5.52 8.51,7.35 3.21,1.84 6.89,2.76 10.8,2.76 2.99,0 5.75,-0.46 8.27,-1.38 2.53,-0.92 4.6,-2.3 6.67,-3.67 1.84,-1.61 3.45,-3.45 4.83,-5.52 1.38,-2.07 2.52,-4.37 3.44,-6.9l4.14 2.07c-3.22,7.82 -7.35,13.33 -12.64,16.78 -5.29,3.45 -11.49,5.06 -18.85,5.06l0 0zm87.8 -17.24c0,2.76 -0.69,5.05 -1.84,7.12 -1.15,2.07 -2.98,3.68 -5.05,4.83 -2.07,1.15 -4.14,2.07 -6.67,2.53 -2.53,0.69 -5.29,0.92 -8.04,0.92l-28.96 0 0 -3.68c0.92,0 1.84,-0.23 2.75,-0.23 0.92,0 1.61,-0.23 2.3,-0.46 1.15,-0.23 1.84,-0.92 2.3,-1.84 0.46,-0.92 0.69,-1.84 0.69,-3.22l0 -35.62c0,-1.15 -0.23,-2.3 -0.69,-2.99 -0.46,-0.92 -1.38,-1.38 -2.3,-1.84 -0.92,-0.46 -1.84,-0.69 -2.75,-0.92 -0.92,-0.23 -1.84,-0.23 -2.53,-0.23l0 -3.68 27.58 0c2.76,0 5.52,0.23 7.81,0.69 2.53,0.46 4.6,1.15 6.44,2.07 2.07,0.92 3.45,2.3 4.6,3.91 1.15,1.61 1.6,3.68 1.6,5.98 0,3.67 -1.14,6.66 -3.44,8.73 -2.3,2.07 -5.29,3.68 -8.97,4.37l0 0.69c1.84,0.23 3.68,0.69 5.52,1.38 1.84,0.69 3.45,1.38 4.83,2.52 1.38,1.15 2.75,2.3 3.67,3.91 0.69,0.92 1.15,2.76 1.15,5.06l0 0zm-14.02 -26.89c0,-1.84 -0.23,-3.45 -0.92,-4.6 -0.69,-1.15 -1.61,-2.07 -2.75,-2.76 -1.16,-0.46 -2.53,-0.92 -3.91,-1.15 -1.38,-0.23 -2.99,-0.46 -4.37,-0.46l-3.22 0c-1.15,0 -2.3,0 -2.99,0.23l0 20 5.29 0c2.53,0 4.6,-0.23 6.44,-0.92 1.84,-0.69 2.99,-1.38 3.9,-2.3 0.92,-0.92 1.61,-2.07 2.07,-3.45 0.23,-1.38 0.46,-2.76 0.46,-4.59zm2.99 25.97c0,-3.22 -1.15,-5.75 -3.68,-7.82 -2.53,-1.84 -5.97,-2.75 -10.34,-2.75l-7.36 0 0 18.15c0,1.38 0.69,2.53 1.84,3.45 1.15,0.69 3.22,1.15 5.75,1.15 2.76,0 5.06,-0.46 6.9,-1.15 1.83,-0.69 3.21,-1.61 4.36,-2.99 0.92,-1.15 1.61,-2.53 2.07,-3.91 0.23,-0.91 0.46,-2.52 0.46,-4.13l0 0zm72.86 -11.72c0,3.9 -0.69,7.58 -1.84,11.49 -1.15,3.68 -2.99,6.89 -5.28,9.42 -2.53,2.99 -5.52,5.29 -8.97,6.67 -3.45,1.38 -7.12,2.07 -11.26,2.07 -3.45,0 -6.9,-0.69 -9.88,-2.07 -3.22,-1.38 -5.98,-3.22 -8.51,-5.75 -2.53,-2.53 -4.37,-5.52 -5.75,-9.19 -1.37,-3.68 -2.06,-7.59 -2.06,-11.95 0,-8.51 2.52,-15.63 7.58,-21.15 5.06,-5.52 11.49,-8.27 19.54,-8.27 7.58,0 14.02,2.52 19.07,7.81 4.83,5.29 7.36,12.18 7.36,20.92l0 0zm-11.49 0c0,-2.76 -0.23,-5.75 -0.92,-8.74 -0.46,-2.99 -1.38,-5.74 -2.53,-7.81 -1.15,-2.3 -2.76,-4.14 -4.6,-5.52 -1.83,-1.38 -4.36,-2.07 -7.12,-2.07 -2.76,0 -5.29,0.69 -7.36,2.07 -2.06,1.38 -3.67,3.45 -4.82,5.75 -1.15,2.3 -2.07,4.82 -2.53,7.81 -0.46,2.99 -0.69,5.75 -0.69,8.51 0,3.67 0.23,6.89 0.92,9.88 0.69,2.99 1.61,5.75 2.76,8.04 1.38,2.3 2.76,4.14 4.82,5.52 1.84,1.38 4.37,2.07 7.13,2.07 4.6,0 8.27,-2.3 11.03,-6.67 2.76,-4.36 3.91,-10.8 3.91,-18.84zm25.28 -12.64l0.46 0c1.84,-4.37 4.6,-8.05 8.28,-11.04 3.67,-2.99 8.04,-4.37 13.1,-4.37 4.13,0 7.81,0.69 11.26,2.07 3.22,1.38 5.97,3.45 8.27,5.98 2.3,2.53 3.91,5.52 5.06,8.96 1.15,3.45 1.61,7.13 1.61,11.27 0,3.9 -0.69,7.81 -1.84,11.49 -1.15,3.68 -2.99,6.89 -5.29,9.42 -2.52,2.76 -5.28,5.06 -8.73,6.44 -3.22,1.61 -7.13,2.3 -11.72,2.3 -3.45,0 -6.67,-0.69 -9.89,-2.07 -3.21,-1.38 -5.97,-3.45 -8.27,-6.21 -2.3,-2.76 -4.37,-6.43 -5.75,-11.03 -1.38,-4.6 -2.07,-9.65 -2.07,-15.86 0,-5.75 0.46,-11.03 1.15,-15.63 0.69,-4.6 1.84,-8.73 2.99,-12.41 1.61,-5.29 4.37,-9.43 8.05,-12.64 3.67,-3.22 8.04,-5.06 13.33,-5.29 2.53,-0.23 5.51,-0.23 8.5,-0.46 2.99,-0.23 5.29,-0.23 6.9,-0.46 1.61,0 2.99,-0.46 4.6,-1.38 1.37,-0.69 2.98,-2.07 4.36,-3.91l3.22 2.3c-0.92,1.15 -1.84,2.53 -3.22,4.37 -1.38,1.84 -2.53,3.22 -3.68,4.37 -0.91,0.92 -1.6,1.61 -2.06,2.3 -0.69,0.69 -1.15,0.91 -1.84,1.38 -0.69,0.23 -1.38,0.69 -2.07,0.69 -0.92,0.23 -2.07,0.23 -3.45,0.23 -1.61,0 -3.45,0.23 -5.74,0.45 -2.3,0.23 -4.37,0.24 -5.98,0.24 -2.53,0 -4.83,0.68 -6.67,1.83 -1.84,1.15 -3.44,2.3 -4.82,3.91 -1.38,1.38 -2.53,3.22 -3.22,5.06 -0.92,1.84 -1.38,3.45 -1.84,4.82 -0.69,2.3 -1.38,4.6 -1.84,6.67 -0.69,1.61 -0.92,3.91 -1.15,6.21l0 0zm32.64 30.56c1.38,-2.52 2.3,-5.28 2.76,-8.04 0.69,-2.76 0.92,-6.21 0.92,-9.88 0,-2.99 -0.23,-5.98 -0.69,-8.74 -0.46,-2.98 -1.38,-5.51 -2.53,-7.81 -1.15,-2.3 -2.76,-4.14 -4.6,-5.52 -1.84,-1.38 -4.14,-2.07 -7.12,-2.07 -2.99,0 -5.52,0.69 -7.59,2.07 -2.07,1.38 -3.68,3.22 -4.82,5.52 -1.15,2.3 -2.07,4.83 -2.53,7.81 -0.46,2.99 -0.69,5.75 -0.69,8.28 0,4.36 0.23,8.04 0.92,10.8 0.69,2.99 1.61,5.52 2.76,7.58 1.14,2.3 2.75,3.91 4.59,5.29 1.84,1.15 4.37,1.84 7.13,1.84 2.53,0 4.82,-0.69 6.66,-2.07 2.07,-0.92 3.68,-2.76 4.83,-5.06zm76.77 -17.92c0,3.9 -0.69,7.58 -1.84,11.49 -1.15,3.68 -2.99,6.89 -5.29,9.42 -2.53,2.99 -5.52,5.29 -8.96,6.67 -3.45,1.38 -7.13,2.07 -11.27,2.07 -3.44,0 -6.89,-0.69 -9.88,-2.07 -3.22,-1.38 -5.98,-3.22 -8.5,-5.75 -2.3,-2.53 -4.37,-5.52 -5.75,-9.19 -1.38,-3.68 -2.07,-7.59 -2.07,-11.95 0,-8.51 2.53,-15.63 7.59,-21.15 5.05,-5.52 11.49,-8.27 19.53,-8.27 7.59,0 14.02,2.52 19.08,7.81 4.83,5.29 7.36,12.18 7.36,20.92l0 0zm-11.5 0c0,-2.76 -0.23,-5.75 -0.91,-8.74 -0.46,-2.99 -1.38,-5.74 -2.53,-7.81 -1.15,-2.3 -2.76,-4.14 -4.6,-5.52 -1.84,-1.38 -4.37,-2.07 -7.12,-2.07 -2.76,0 -5.29,0.69 -7.36,2.07 -2.07,1.38 -3.68,3.45 -4.83,5.75 -1.15,2.3 -2.07,4.82 -2.53,7.81 -0.45,2.99 -0.69,5.75 -0.69,8.51 0,3.67 0.24,6.89 0.92,9.88 0.69,2.99 1.61,5.75 2.76,8.04 1.38,2.3 2.76,4.14 4.83,5.52 1.84,1.38 4.37,2.07 7.12,2.07 4.6,0 8.28,-2.3 11.04,-6.67 2.52,-4.59 3.9,-10.8 3.9,-18.84zm21.61 23.44c3.68,-4.83 6.89,-11.26 9.65,-19.08 2.76,-7.81 4.14,-14.48 4.14,-19.53 0,-1.84 -0.23,-3.45 -0.69,-4.37 -0.46,-0.92 -1.15,-1.61 -2.3,-2.07 -0.69,-0.46 -1.84,-0.69 -3.45,-0.92 -1.6,-0.23 -2.98,-0.46 -3.9,-0.69l0 -3.67 50.1 -0.01 0 3.68c-1.15,0 -2.07,0.23 -2.76,0.23 -0.69,0 -1.6,0.23 -2.29,0.46 -1.15,0.23 -1.84,0.92 -2.3,1.84 -0.46,0.92 -0.69,2.07 -0.69,3.22l0 35.62c0,2.07 0.46,3.45 1.15,4.14 0.69,0.92 2.3,1.15 4.82,1.15l3.68 0 0 20.46 -3.91 0c-0.69,-3.68 -2.06,-7.36 -3.9,-10.58 -1.84,-3.44 -3.91,-5.28 -5.98,-5.74l-32.41 0c-2.07,0.23 -4.13,2.3 -6.2,5.51 -2.07,3.22 -3.45,6.9 -4.14,10.81l-3.91 0 0 -20.46 5.29 0zm6.43 0l23.91 0c1.61,0 2.76,-0.23 3.45,-0.92 0.69,-0.69 1.15,-1.38 1.15,-2.76l0 -42.06 -15.4 0c-0.23,9.42 -1.61,17.93 -3.91,25.74 -2.3,7.82 -5.29,14.48 -9.19,20l-0.01 0zm116.77 4.6l-26.9 0 0 -3.68c0.92,0 1.84,-0.23 2.76,-0.23 0.92,0 1.61,-0.23 2.3,-0.46 1.15,-0.23 1.84,-0.92 2.3,-1.84 0.46,-0.92 0.92,-1.84 0.92,-3.22l0 -17.46 -24.37 0 0 17c0,1.15 0.24,2.3 0.69,3.22 0.46,0.92 1.38,1.38 2.3,1.84 0.69,0.46 1.61,0.69 2.53,0.92 0.92,0.23 1.84,0.23 2.76,0.46l0 3.68 -26.89 0 0 -3.68c0.92,0 1.84,-0.23 2.76,-0.23 0.91,0 1.6,-0.23 2.29,-0.46 1.15,-0.23 1.84,-0.92 2.3,-1.84 0.46,-0.92 0.69,-1.84 0.69,-3.22l0 -35.85c0,-1.15 -0.23,-2.3 -0.69,-2.99 -0.46,-0.92 -1.38,-1.38 -2.3,-1.84 -0.92,-0.46 -1.84,-0.69 -2.76,-0.92 -0.91,-0.23 -1.83,-0.23 -2.52,-0.23l0 -3.68 26.89 0 0 3.68c-1.15,0 -2.07,0.23 -2.76,0.23 -0.69,0 -1.61,0.23 -2.3,0.46 -1.15,0.23 -1.84,0.92 -2.3,1.84 -0.46,0.92 -0.69,2.07 -0.69,3.22l0 14.25 24.37 0 0 -13.56c0,-1.15 -0.23,-2.3 -0.69,-2.99 -0.46,-0.92 -1.38,-1.38 -2.3,-1.84 -0.92,-0.46 -1.84,-0.69 -2.76,-0.92 -0.92,-0.23 -1.84,-0.23 -2.53,-0.23l0 -3.68 26.9 0 0 3.68c-1.15,0 -2.07,0.23 -2.76,0.23 -0.69,0 -1.61,0.23 -2.3,0.46 -1.15,0.23 -1.84,0.92 -2.3,1.84 -0.46,0.92 -0.69,2.07 -0.69,3.22l0 35.62c0,1.38 0.23,2.3 0.69,3.22 0.46,0.69 1.15,1.38 2.3,1.84 0.69,0.46 1.61,0.69 2.53,0.92 0.92,0.23 1.84,0.23 2.75,0.46l0 2.76 -0.22 0zm59.75 -1.15c-1.84,0.69 -3.21,1.15 -4.59,1.61 -1.38,0.46 -2.76,0.69 -4.6,0.69 -2.99,0 -5.29,-0.69 -6.9,-2.07 -1.6,-1.38 -2.75,-3.22 -3.21,-5.98l-0.23 0c-2.3,2.76 -5.06,4.83 -7.82,6.21 -2.75,1.38 -6.2,2.07 -9.88,2.07 -4.14,0 -7.59,-1.15 -10.11,-3.68 -2.76,-2.53 -3.91,-5.75 -3.91,-9.88 0,-2.07 0.23,-3.91 0.92,-5.75 0.69,-1.61 1.38,-3.22 2.76,-4.6 0.91,-1.15 2.06,-2.07 3.67,-2.99 1.61,-0.91 2.99,-1.6 4.37,-2.06 1.61,-0.69 5.06,-1.84 10.11,-3.45 5.06,-1.61 8.51,-2.99 10.35,-3.91l0 -5.75c0,-0.46 0,-1.38 -0.23,-2.75 -0.23,-1.38 -0.69,-2.76 -1.38,-3.91 -0.69,-1.38 -1.84,-2.53 -3.22,-3.68 -1.38,-0.92 -3.22,-1.61 -5.75,-1.61 -1.61,0 -3.21,0.23 -4.82,0.92 -1.38,0.69 -2.53,1.15 -2.99,1.84 0,0.69 0.23,1.84 0.46,3.22 0.46,1.38 0.46,2.76 0.46,3.9 0,1.39 -0.69,2.53 -1.84,3.68 -1.15,1.15 -2.76,1.61 -4.83,1.61 -1.84,0 -3.22,-0.69 -4.14,-2.07 -0.91,-1.38 -1.38,-2.75 -1.38,-4.36 0,-1.61 0.69,-3.45 1.84,-4.83 1.15,-1.61 2.76,-2.99 4.6,-4.14 1.61,-1.15 3.68,-1.84 5.98,-2.76 2.3,-0.69 4.59,-1.15 6.89,-1.15 3.22,0 5.75,0.23 8.05,0.69 2.29,0.46 4.36,1.38 6.43,2.76 1.84,1.38 3.22,3.22 4.37,5.52 0.92,2.3 1.38,5.29 1.38,9.19 0,5.29 0,10.12 -0.23,14.02 -0.23,3.91 -0.23,8.51 -0.23,13.56 0,1.38 0.23,2.53 0.69,3.45 0.46,0.92 1.38,1.61 2.3,2.07 0.46,0.23 1.38,0.46 2.75,0.46l3.68 0 0 3.91 0.23 0zm-19.3 -29.42c-3.22,0.92 -5.98,1.84 -8.28,2.76 -2.3,0.92 -4.59,2.06 -6.66,3.44 -1.84,1.38 -3.22,2.76 -4.37,4.6 -1.15,1.84 -1.61,3.68 -1.61,6.21 0,2.99 0.92,5.28 2.53,6.89 1.61,1.38 3.68,2.07 6.2,2.07 2.53,0 5.06,-0.69 6.9,-1.84 2.07,-1.38 3.68,-2.76 5.06,-4.59l0.23 -19.54 0 0zm43.9 3.9l0 -0.22c-5.06,-0.92 -8.74,-2.76 -11.03,-5.06 -2.3,-2.3 -3.45,-5.29 -3.45,-8.73 0,-4.37 2.07,-7.82 5.97,-10.35 3.91,-2.53 8.97,-3.91 14.94,-3.91l28.73 0 0 3.68c-1.15,0 -2.07,0.23 -2.76,0.23 -0.69,0 -1.6,0.23 -2.29,0.46 -1.15,0.23 -1.84,0.92 -2.3,1.84 -0.46,0.92 -0.69,2.07 -0.69,3.22l0 35.62c0,1.38 0.23,2.3 0.69,3.22 0.46,0.69 1.15,1.38 2.3,1.84 0.69,0.46 1.61,0.69 2.52,0.92 0.92,0.23 1.84,0.23 2.76,0.46l0 3.68 -26.89 0 0 -3.68c0.92,0 1.84,-0.23 2.76,-0.23 0.92,0 1.61,-0.23 2.3,-0.46 1.15,-0.23 1.84,-0.92 2.3,-1.84 0.46,-0.92 0.92,-1.84 0.92,-3.22l0 -15.4 -2.3 0c-3.45,0 -6.21,0.69 -8.05,2.07 -1.84,1.38 -3.9,3.91 -5.51,7.36 -1.38,2.76 -2.3,5.28 -3.22,7.58 -0.92,2.3 -1.61,4.83 -2.53,7.82l-18.85 0 0 -3.68c0.92,0 1.61,-0.23 2.53,-0.23 0.69,0 1.61,-0.23 2.53,-0.46 1.15,-0.23 2.3,-0.69 3.22,-1.38 0.92,-0.69 1.84,-1.84 2.53,-3.22 0.45,-0.92 0.91,-2.07 1.6,-3.45 0.69,-1.37 1.38,-2.98 2.3,-4.82 1.15,-2.3 2.53,-4.14 3.91,-5.75 1.15,-1.84 2.99,-2.99 5.06,-3.91l0 0zm16.78 -2.29l0 -22.07 -6.21 0c-3.91,0 -7.12,0.92 -9.65,2.76 -2.53,1.84 -3.91,4.6 -3.91,8.04 0,3.68 1.38,6.44 4.14,8.51 2.75,1.84 6.66,2.99 11.49,2.99l4.14 0 0 -0.23z"/>
   <path class="fil1" d="M791.71 618.09l-32.87 0 0 -3.91c0.92,0 2.07,-0.23 3.91,-0.23 1.61,-0.23 2.76,-0.46 3.45,-0.69 1.15,-0.46 1.84,-1.15 2.53,-2.07 0.46,-0.92 0.69,-2.07 0.69,-3.45l0 -63.89 -36.32 0 0 62.97c0,1.38 0.23,2.3 0.69,3.22 0.46,0.92 1.38,1.61 2.53,2.3 0.69,0.23 1.84,0.69 3.45,0.92 1.61,0.23 2.99,0.46 3.9,0.46l0 3.91 -32.86 0 0 -3.91c0.91,0 2.07,-0.23 3.9,-0.23 1.84,0 2.76,-0.46 3.45,-0.69 1.15,-0.46 1.84,-1.15 2.53,-2.07 0.46,-0.92 0.69,-2.07 0.69,-3.45l0 -56.77c0,-1.15 -0.23,-2.3 -0.69,-3.21 -0.46,-0.92 -1.38,-1.84 -2.53,-2.3 -0.92,-0.46 -2.3,-0.92 -3.68,-1.38 -1.37,-0.46 -2.75,-0.69 -3.67,-0.69l0 -3.91 81.13 0 0 3.91c-1.15,0 -2.3,0.23 -3.91,0.46 -1.61,0.23 -2.52,0.69 -3.44,0.92 -1.15,0.46 -2.07,1.15 -2.53,2.3 -0.46,1.14 -0.69,2.06 -0.69,3.44l0 57.01c0,1.37 0.23,2.29 0.69,3.21 0.46,0.92 1.38,1.61 2.53,2.3 0.69,0.23 1.83,0.69 3.44,0.92 1.61,0.23 2.99,0.46 3.91,0.46l0 4.14 -0.23 0zm59.76 -48.5c2.3,2.53 3.91,5.52 5.06,8.96 1.15,3.45 1.84,7.36 1.84,11.73 0,4.36 -0.69,8.27 -2.07,11.95 -1.38,3.67 -3.45,6.66 -5.75,9.19 -2.53,2.53 -5.28,4.6 -8.27,5.98 -2.99,1.38 -6.21,2.07 -9.66,2.07 -3.21,0 -5.97,-0.46 -8.04,-1.15 -2.07,-0.69 -3.91,-1.61 -5.29,-2.53l-0.46 0 0 16.55c0,1.38 0.23,2.53 0.69,3.45 0.46,0.91 1.38,1.6 2.3,2.06 0.92,0.23 2.07,0.69 3.91,0.92 1.61,0.23 2.99,0.46 4.14,0.46l0 3.68 -30.57 0 0 -3.68c1.15,0 2.3,-0.23 3.44,-0.23 1.15,0 2.07,-0.23 2.99,-0.46 1.15,-0.46 1.84,-0.92 2.3,-1.84 0.46,-0.91 0.69,-2.06 0.69,-3.21l0 -58.84c0,-1.15 -0.23,-2.3 -0.92,-3.22 -0.69,-0.92 -1.38,-1.84 -2.07,-2.53 -0.69,-0.46 -1.61,-0.69 -2.76,-0.92 -1.15,-0.23 -2.29,-0.46 -3.44,-0.46l0 -3.68 18.61 -1.14 0.69 0.69 0 6.2 0.46 0c1.84,-2.3 4.37,-4.14 7.13,-5.52 2.76,-1.38 5.74,-2.29 8.5,-2.29 3.45,0 6.44,0.69 9.43,2.06 2.75,1.38 5.05,3.22 7.12,5.75l0 0zm-8.96 39.53c1.38,-2.3 2.52,-5.05 3.21,-8.04 0.69,-2.99 1.15,-6.44 1.15,-10.11 0,-2.76 -0.23,-5.52 -0.92,-8.51 -0.69,-2.76 -1.6,-5.29 -2.75,-7.35 -1.15,-2.07 -2.99,-3.91 -5.06,-5.29 -2.07,-1.38 -4.6,-2.07 -7.36,-2.07 -2.75,0 -5.05,0.69 -7.12,1.84 -1.84,1.15 -3.68,2.76 -5.06,4.37l0 32.41c0.23,0.91 0.92,2.06 1.61,3.21 0.69,1.15 1.61,2.07 2.53,2.76 1.15,0.92 2.3,1.61 3.68,2.3 1.38,0.69 2.98,0.92 4.82,0.92 2.07,0 4.14,-0.46 5.98,-1.61 2.3,-1.38 3.91,-2.76 5.28,-4.83l0.01 0zm72.86 -4.13c-2.3,4.36 -5.29,7.81 -9.2,10.57 -3.9,2.53 -8.27,3.91 -13.33,3.91 -4.37,0 -8.27,-0.69 -11.72,-2.3 -3.22,-1.61 -5.98,-3.68 -8.27,-6.44 -2.07,-2.76 -3.68,-5.74 -4.83,-9.42 -1.15,-3.45 -1.61,-7.36 -1.61,-11.26 0,-3.45 0.46,-7.13 1.61,-10.58 1.15,-3.45 2.76,-6.43 5.06,-9.19 2.06,-2.53 4.82,-4.83 7.81,-6.44 3.22,-1.6 6.67,-2.52 10.57,-2.52 3.91,0 7.36,0.69 10.35,1.84 2.75,1.14 5.28,2.98 6.89,5.28 1.61,2.07 2.99,4.6 3.91,7.36 0.92,2.75 1.15,5.97 1.15,9.19l0 3.68 -36.32 0c0,3.67 0.23,6.89 0.92,9.88 0.69,2.99 1.84,5.52 3.22,7.82 1.38,2.06 3.45,3.9 5.75,5.05 2.29,1.15 5.05,1.84 8.27,1.84 3.22,0 6.21,-0.69 8.51,-2.3 2.29,-1.61 4.59,-4.36 6.89,-8.27l4.37 2.3 0 0zm-12.41 -20.92c0,-2.07 -0.23,-4.37 -0.46,-6.66 -0.46,-2.3 -0.92,-4.37 -1.61,-5.98 -0.92,-1.61 -2.07,-2.99 -3.45,-4.14 -1.38,-1.15 -3.45,-1.61 -5.75,-1.61 -3.91,0 -7.12,1.61 -9.65,4.83 -2.53,3.22 -3.91,7.81 -4.14,13.56l25.06 0zm44.13 35.4c-8.05,0 -14.25,-2.53 -18.62,-7.82 -4.6,-5.28 -6.67,-12.41 -6.67,-21.14 0,-3.91 0.69,-7.36 1.84,-10.81 1.15,-3.44 2.99,-6.43 5.29,-9.19 2.3,-2.53 4.82,-4.83 8.27,-6.44 3.22,-1.6 6.9,-2.52 10.8,-2.52 5.29,0 9.66,1.38 13.1,3.9 3.45,2.53 5.06,6.21 5.06,10.58 0,1.84 -0.46,3.44 -1.38,4.82 -0.92,1.38 -2.3,2.07 -4.36,2.07 -2.3,0 -3.91,-0.46 -5.06,-1.61 -1.15,-1.15 -1.84,-2.3 -1.84,-3.67 0,-1.61 0.23,-3.45 0.69,-5.06 0.46,-1.84 0.69,-2.99 0.69,-3.91 -0.69,-1.15 -1.61,-1.84 -2.99,-2.3 -1.38,-0.46 -2.76,-0.69 -4.14,-0.69 -1.84,0 -3.44,0.46 -5.05,1.15 -1.61,0.69 -3.22,2.07 -4.6,4.14 -1.38,1.84 -2.53,4.37 -3.45,7.58 -0.92,3.22 -1.38,6.9 -1.38,11.27 0,6.89 1.61,12.64 4.6,17.01 2.99,4.36 7.12,6.43 11.95,6.43 3.68,0 6.67,-0.92 8.96,-2.53 2.3,-1.61 4.6,-4.36 6.67,-7.81l3.45 2.3c-2.53,4.36 -5.75,7.81 -9.66,10.34 -3.9,2.53 -8.04,3.91 -12.18,3.91l0.01 0zm51.71 0c-8.04,0 -14.25,-2.53 -18.62,-7.82 -4.59,-5.28 -6.66,-12.41 -6.66,-21.14 0,-3.91 0.69,-7.36 1.84,-10.81 1.15,-3.44 2.98,-6.43 5.28,-9.19 2.3,-2.53 4.83,-4.83 8.28,-6.44 3.21,-1.6 6.89,-2.52 10.8,-2.52 5.29,0 9.65,1.38 13.1,3.9 3.45,2.53 5.06,6.21 5.06,10.58 0,1.84 -0.46,3.44 -1.38,4.82 -0.92,1.38 -2.3,2.07 -4.37,2.07 -2.3,0 -3.91,-0.46 -5.06,-1.61 -1.15,-1.15 -1.84,-2.3 -1.84,-3.67 0,-1.61 0.23,-3.45 0.69,-5.06 0.46,-1.84 0.69,-2.99 0.69,-3.91 -0.69,-1.15 -1.6,-1.84 -2.98,-2.3 -1.38,-0.46 -2.76,-0.69 -4.14,-0.69 -1.84,0 -3.45,0.46 -5.06,1.15 -1.61,0.69 -3.22,2.07 -4.6,4.14 -1.38,1.84 -2.52,4.37 -3.44,7.58 -0.92,3.22 -1.38,6.9 -1.38,11.27 0,6.89 1.61,12.64 4.59,17.01 2.99,4.36 7.13,6.43 11.96,6.43 3.67,0 6.66,-0.92 8.96,-2.53 2.53,-1.84 4.6,-4.36 6.66,-7.81l3.45 2.3c-2.53,4.36 -5.74,7.81 -9.65,10.34 -3.91,2.53 -8.05,3.91 -12.18,3.91l0 0zm78.38 -2.53c-1.84,0.69 -3.22,1.15 -4.6,1.61 -1.38,0.46 -2.76,0.69 -4.6,0.69 -2.99,0 -5.28,-0.69 -6.89,-2.07 -1.61,-1.38 -2.76,-3.22 -3.22,-5.98l-0.23 0c-2.3,2.76 -5.06,4.83 -7.82,6.21 -2.75,1.38 -6.2,2.07 -9.88,2.07 -4.14,0 -7.58,-1.15 -10.11,-3.68 -2.53,-2.53 -3.91,-5.75 -3.91,-9.88 0,-2.07 0.23,-3.91 0.92,-5.75 0.69,-1.61 1.38,-3.22 2.76,-4.6 0.92,-1.15 2.07,-2.07 3.67,-2.99 1.61,-0.91 2.99,-1.6 4.37,-2.06 1.61,-0.69 5.06,-1.84 10.11,-3.45 5.06,-1.61 8.51,-2.99 10.35,-3.91l0 -5.75c0,-0.46 0,-1.38 -0.23,-2.75 -0.23,-1.38 -0.69,-2.76 -1.38,-3.91 -0.69,-1.38 -1.84,-2.53 -3.22,-3.68 -1.38,-0.92 -3.22,-1.61 -5.75,-1.61 -1.61,0 -3.21,0.23 -4.82,0.92 -1.38,0.69 -2.53,1.15 -2.99,1.84 0,0.69 0.23,1.84 0.46,3.22 0.46,1.38 0.46,2.76 0.46,3.9 0,1.39 -0.69,2.53 -1.84,3.68 -1.15,1.15 -2.76,1.61 -4.83,1.61 -1.84,0 -3.22,-0.69 -4.14,-2.07 -0.91,-1.38 -1.37,-2.75 -1.37,-4.36 0,-1.61 0.69,-3.45 1.83,-4.83 1.15,-1.61 2.76,-2.99 4.6,-4.14 1.61,-1.15 3.68,-1.84 5.98,-2.76 2.3,-0.69 4.59,-1.15 6.89,-1.15 3.22,0 5.75,0.23 8.05,0.69 2.3,0.46 4.36,1.38 6.43,2.76 1.84,1.38 3.22,3.22 4.37,5.52 0.92,2.3 1.38,5.29 1.38,9.19 0,5.29 0,10.12 -0.23,14.02 0,4.14 -0.23,8.51 -0.23,13.56 0,1.38 0.23,2.53 0.69,3.45 0.46,0.92 1.38,1.61 2.3,2.07 0.46,0.23 1.38,0.46 2.76,0.46l3.68 0 0 3.91 0.23 0zm-19.54 -29.42c-3.22,0.92 -5.98,1.84 -8.28,2.76 -2.29,0.92 -4.59,2.06 -6.66,3.44 -1.84,1.38 -3.22,2.76 -4.37,4.6 -1.15,1.84 -1.61,3.68 -1.61,6.21 0,2.99 0.92,5.28 2.53,6.89 1.61,1.38 3.68,2.07 6.21,2.07 2.53,0 5.05,-0.69 6.89,-1.84 2.07,-1.38 3.68,-2.76 5.06,-4.59l0.23 -19.54 0 0z"/>
  </g>
 </g>
</svg>
