<svg width="36" height="19" viewBox="0 0 36 19" fill="none" xmlns="http://www.w3.org/2000/svg">
<path d="M28.4582 2.56323C28.4582 2.11959 28.7663 1.70331 29.2621 1.70331C29.7679 1.70331 30.0628 2.14695 30.0628 2.57003C30.0628 2.98632 29.7679 3.42996 29.2655 3.42996C28.7824 3.42996 28.4582 3.02728 28.4582 2.56656V2.56323ZM27.7051 2.59522C27.7051 3.40274 28.3458 4.13283 29.2547 4.13283C30.1597 4.13283 30.8163 3.42359 30.8163 2.56656C30.8163 1.70953 30.1557 1 29.2588 1C28.4339 1 27.7051 1.62414 27.7051 2.59073V2.59522Z" fill="white" stroke="white" stroke-width="0.2"/>
<path d="M23.1358 4.65908C23.1358 3.93855 23.4948 3.15143 24.3981 3.15143C25.5081 3.15143 25.6821 4.1823 25.6821 4.64794V7.26418C25.6821 7.89598 25.3127 8.76068 24.4089 8.76068C23.5279 8.76068 23.1358 8.00686 23.1358 7.26418V4.65908ZM21.5144 7.21974C21.5144 9.45893 23.3098 10.2128 24.4414 10.2128C25.5624 10.2128 27.3035 9.45893 27.3035 7.21974V4.69223C27.3035 2.47519 25.5514 1.69922 24.4191 1.69922C23.418 1.69922 21.5137 2.34217 21.5137 4.71452L21.5144 7.21974Z" fill="white" stroke="white" stroke-width="0.2"/>
<path d="M16.4434 7.29724C16.4434 6.39982 17.129 5.84517 17.8472 5.84517C18.6634 5.84517 19.2728 6.48797 19.2728 7.30838C19.2728 8.12879 18.6417 8.76059 17.8363 8.76059C17.0964 8.76059 16.4438 8.18408 16.4438 7.30838L16.4434 7.29724ZM17.684 1.85487L15.5728 5.00261C15.192 5.60127 14.8438 6.29966 14.8438 7.16422C14.8438 7.78502 15.0285 8.5827 15.5184 9.14851C16.0299 9.82475 16.9005 10.2127 17.8913 10.2127C19.5453 10.2127 20.8948 8.9379 20.8948 7.16422C20.8948 5.35738 19.5672 4.39281 18.3372 4.39281C18.0869 4.39281 17.783 4.47053 17.6952 4.51483C17.8148 4.33752 17.9346 4.18192 18.0433 4.01604L19.5557 1.854L17.684 1.85487Z" fill="white" stroke="white" stroke-width="0.2"/>
<path d="M10.4582 4.0832C10.4799 3.71743 10.6429 3.15207 11.3288 3.15207C11.8511 3.15207 12.134 3.59542 12.134 4.09435C12.134 4.79274 11.4804 5.11421 10.9262 5.11421H10.5672V6.34453H11.2201C11.8512 6.34453 12.602 6.7103 12.602 7.51956C12.602 8.20695 12.1886 8.76117 11.4051 8.76117C10.6107 8.75003 10.2189 8.15137 10.1754 7.63043H8.54297C8.56471 8.00677 8.65167 8.61701 9.01087 9.11594C9.51145 9.85862 10.4907 10.2132 11.3723 10.2132C12.9502 10.2132 14.2234 9.10479 14.2234 7.64144C14.2234 7.27567 14.1471 6.08949 12.6781 5.57956C13.0917 5.34681 13.7554 4.87032 13.7554 3.86131C13.7554 2.67528 12.8086 1.69971 11.394 1.69971C10.3494 1.69971 8.90203 2.29837 8.85855 4.08306L10.4582 4.0832Z" fill="white" stroke="white" stroke-width="0.2"/>
<path fill-rule="evenodd" clip-rule="evenodd" d="M23.3016 15.4197C30.0935 14.7004 35 12.6366 35 10.2024C35 8.49838 32.5954 6.97553 28.8222 5.9687V6.64899C31.4482 7.42409 33.065 8.48043 33.065 9.64519C33.065 11.4904 29.006 13.0643 23.3016 13.6776V15.4197ZM18 15.6924C18.2793 15.6924 18.5571 15.6902 18.8332 15.6856V17.9996L22.0748 14.8153L18.8332 11.6309V13.9452C18.5573 13.9496 18.2795 13.9518 18 13.9519C9.67981 13.9519 2.93497 12.0235 2.93497 9.64475C2.93497 8.48029 4.55181 7.42395 7.17776 6.64856V5.96826C3.40458 6.97553 1 8.4978 1 10.2024C1 13.2345 8.61116 15.6924 18 15.6924Z" fill="white" stroke="white" stroke-width="0.2"/>
</svg>
