<svg width="129" height="128" viewBox="0 0 129 128" fill="none" xmlns="http://www.w3.org/2000/svg">
<rect x="64.6367" width="90" height="90" rx="45" transform="rotate(45 64.6367 0)" fill="#FDF1E6"/>
<path d="M47.1567 56.0383L49.0139 54.8676C50.2351 54.0892 50.3179 53.3604 50.3284 53.177C50.385 52.1897 49.0847 49.5472 47.5177 48.0655C46.8519 47.436 45.846 47.3268 45.0609 47.8004L44.4188 48.1879C43.4468 48.7745 43.15 50.0411 43.7621 50.9944L44.3741 51.9472L54.9277 67.4609C55.3119 68.0256 55.8099 68.5054 56.3896 68.8702C57.4639 69.5451 58.7575 69.7862 60.0045 69.5433L75.0945 66.604L83.8627 69.609C84.8976 69.9634 86.0228 69.4001 86.3514 68.3626C86.6634 67.3781 86.1422 66.3242 85.1672 65.9683L74.7668 62.1698L57.8296 64.9356" stroke="#F38B2A" stroke-width="1.6" stroke-miterlimit="10" stroke-linecap="round" stroke-linejoin="round"/>
<path d="M50.0879 53.8619C50.5145 54.1299 59.7478 60.0321 58.4504 63.9365C58.3396 64.2692 58.1465 64.6067 57.8317 64.9356L56.5686 66.1654" stroke="#F38B2A" stroke-width="1.6" stroke-miterlimit="10" stroke-linecap="round" stroke-linejoin="round"/>
<path d="M57.0267 69.203L60.8974 75.0296H55.3413C53.291 75.0296 51.6289 76.6814 51.6289 78.7184V80.4606H79.7151" stroke="#F38B2A" stroke-width="1.6" stroke-miterlimit="10" stroke-linecap="round" stroke-linejoin="round"/>
<path d="M66.707 68.2369L71.595 74.927H80.9976C83.0479 74.927 84.71 76.5788 84.71 78.6163" stroke="#F38B2A" stroke-width="1.6" stroke-miterlimit="10" stroke-linecap="round" stroke-linejoin="round"/>
<path d="M57.7656 60.7788L61.2335 58.8231H73.0659" stroke="#F38B2A" stroke-width="1.6" stroke-miterlimit="10" stroke-linecap="round" stroke-linejoin="round"/>
<path d="M60.8984 75.0295H66.7086" stroke="#F38B2A" stroke-width="1.6" stroke-miterlimit="10" stroke-linecap="round" stroke-linejoin="round"/>
</svg>
