<svg width="128" height="128" viewBox="0 0 128 128" fill="none" xmlns="http://www.w3.org/2000/svg">
<rect x="63.6396" width="90" height="90" rx="45" transform="rotate(45 63.6396 0)" fill="#F0F8E8"/>
<path d="M60.7534 52.7248V66.1955H66.4683C68.8316 66.1955 70.6577 65.5939 71.9468 64.3908C73.2359 63.1877 73.8804 61.5405 73.8804 59.4494C73.8804 57.3582 73.2359 55.7183 71.9468 54.5295C70.6577 53.3263 68.8316 52.7248 66.4683 52.7248H60.7534ZM69.8843 75.5627H60.7534V81.1056H57.8316V75.5627H53.5347V73.2853H57.8316V68.7736H53.5347V66.1955H57.8316V50.1037H67.1558C70.0777 50.1037 72.4266 50.9774 74.2027 52.7248C75.993 54.4579 76.8882 56.6994 76.8882 59.4494C76.8882 62.2137 75.993 64.4624 74.2027 66.1955C72.4266 67.9142 70.0705 68.7736 67.1343 68.7736H60.7534V73.2853H69.8843V75.5627Z" fill="#86A06C"/>
</svg>
