<svg fill="none" height="20" viewBox="0 0 20 20" width="20" xmlns="http://www.w3.org/2000/svg" xmlns:xlink="http://www.w3.org/1999/xlink"><linearGradient id="a"><stop offset="0" stop-color="#ffc107"/><stop offset=".507" stop-color="#f44336"/><stop offset=".99" stop-color="#9c27b0"/></linearGradient><linearGradient id="b" gradientUnits="userSpaceOnUse" x1="0" x2="20" xlink:href="#a" y1="9.73141" y2="9.73141"/><linearGradient id="c" gradientUnits="userSpaceOnUse" x1="14.8218" x2="16.3581" xlink:href="#a" y1="4.30432" y2="4.30432"/><linearGradient id="d" gradientUnits="userSpaceOnUse" x1="5.09814" x2="14.9022" xlink:href="#a" y1="9.73132" y2="9.73132"/><path d="m15.209 0h-10.41805c-2.64177 0-4.79095 2.09135-4.79095 4.66218v10.13842c0 2.5709 2.14918 4.6622 4.79095 4.6622h10.41805c2.6418 0 4.791-2.0913 4.791-4.6622v-10.13842c0-2.57083-2.1492-4.66218-4.791-4.66218zm3.5294 14.8006c0 1.8937-1.5833 3.4345-3.5294 3.4345h-10.41805c-1.94603 0-3.52888-1.5408-3.52888-3.4345v-10.13842c0-1.89365 1.58285-3.43411 3.52888-3.43411h10.41805c1.9461 0 3.5294 1.54046 3.5294 3.43411z" fill="url(#b)"/><path d="m15.5902 3.55688c-.4238 0-.7684.33541-.7684.74744 0 .41251.3446.74744.7684.74744.4233 0 .7679-.33493.7679-.74744 0-.41203-.3446-.74744-.7679-.74744z" fill="url(#c)"/><path d="m10.0002 4.961c-2.70305 0-4.90206 2.13984-4.90206 4.77026 0 2.63054 2.19901 4.77034 4.90206 4.77034 2.703 0 4.902-2.1398 4.902-4.77034 0-2.63042-2.199-4.77026-4.902-4.77026zm0 8.3134c-2.00768 0-3.64095-1.5898-3.64095-3.54314 0-1.95325 1.63327-3.54219 3.64095-3.54219 2.0072 0 3.6399 1.58894 3.6399 3.54219 0 1.95334-1.6327 3.54314-3.6399 3.54314z" fill="url(#d)"/></svg>