<svg width="81" height="28" viewBox="0 0 81 28" fill="none" xmlns="http://www.w3.org/2000/svg">
<path d="M9.52886 0.970739C11.4567 0.970739 12.0624 2.25159 12.5707 3.53044C12.7841 4.07349 17.7939 16.7816 17.9445 17.1631C17.9846 17.2695 17.9575 17.4442 17.7809 17.5074C17.6031 17.5696 15.0002 18.5072 14.8561 18.5574C14.712 18.6086 14.5505 18.5343 14.4985 18.4008C14.4443 18.2693 13.3639 15.4988 13.2425 15.1896H5.81735C5.70032 15.4988 4.60692 18.2753 4.55815 18.4008C4.5083 18.5283 4.35334 18.6146 4.19946 18.5574C4.04558 18.5012 1.4329 17.5636 1.27686 17.5074C1.12731 17.4532 1.05904 17.2956 1.11106 17.1631C1.29528 16.6873 6.22914 4.18291 6.48055 3.53044C6.97036 2.27066 7.59671 0.970739 9.52886 0.970739ZM0.714442 23.7099C0.558397 23.7099 0.433777 23.8303 0.433777 23.9769V26.9472C0.433777 27.0937 0.558397 27.2122 0.714442 27.2122H18.3357C18.495 27.2122 18.6196 27.0937 18.6196 26.9472V23.9769C18.6196 23.8303 18.495 23.7099 18.3357 23.7099H0.714442ZM9.51152 5.12046L7.00179 12.1019H12.0624L9.54403 5.12046H9.51152ZM47.1716 16.5678C46.8021 16.6833 46.5583 16.7114 46.2679 16.7114C45.6675 16.7114 45.3349 16.4915 45.3349 15.9214C45.3349 15.3271 45.7575 15.1284 46.5876 15.1284C46.7902 15.1284 46.9896 15.1555 47.0828 15.1856V15.6112C47.0828 16.0699 47.1099 16.3711 47.1716 16.5678ZM49.3054 17.2484C48.8621 16.625 48.7462 16.2577 48.7462 15.4717V13.8756C48.7462 13.0164 48.6378 12.7062 48.3929 12.393C48.0516 11.9493 47.4826 11.7566 46.4369 11.7566C45.6968 11.7566 44.9783 11.8309 44.2826 11.9955L44.534 13.1298C45.0043 13.0686 45.4974 13.0164 45.8453 13.0164C46.956 13.0164 47.0828 13.1649 47.0828 13.9369V14.225C46.8357 14.1637 46.5583 14.1196 46.2365 14.1196C44.5644 14.1196 43.6812 14.8774 43.6812 16.1322C43.6812 17.3086 44.6251 17.9501 45.7748 17.9501C46.2039 17.9501 46.6526 17.8768 47.008 17.7423C47.2226 17.656 47.3158 17.6048 47.5932 17.4381C47.7601 17.663 48.0949 17.8928 48.2315 17.936L49.3054 17.2484ZM65.8451 16.5678C65.4734 16.6833 65.2339 16.7114 64.9414 16.7114C64.3388 16.7114 64.0018 16.4915 64.0018 15.9214C64.0018 15.3271 64.4299 15.1284 65.2621 15.1284C65.4648 15.1284 65.6652 15.1555 65.7563 15.1856V15.6112C65.7563 16.0699 65.7823 16.3711 65.8451 16.5678ZM67.981 17.2484C67.5345 16.625 67.4207 16.2577 67.4207 15.4717V13.8756C67.4207 13.0164 67.3102 12.7062 67.0631 12.393C66.7261 11.9493 66.1561 11.7566 65.1071 11.7566C64.3681 11.7566 63.6453 11.8309 62.9496 11.9955L63.1978 13.1298C63.6691 13.0686 64.1633 13.0164 64.5209 13.0164C65.6251 13.0164 65.7563 13.1649 65.7563 13.9369V14.225C65.5092 14.1637 65.2339 14.1196 64.9056 14.1196C63.2314 14.1196 62.3449 14.8774 62.3449 16.1322C62.3449 17.3086 63.291 17.9501 64.4461 17.9501C64.8807 17.9501 65.325 17.8768 65.6771 17.7423C65.895 17.656 65.9849 17.6048 66.2623 17.4381C66.4314 17.663 66.7662 17.8928 66.9038 17.936L67.981 17.2484ZM81 17.8166C81 17.8166 80.0832 16.0067 79.8589 15.5951C79.6064 15.1314 79.3723 14.8112 78.8565 14.6957V14.6696C79.2022 14.6084 79.4774 14.4147 79.7787 13.8224C80.0637 13.2452 80.1482 13.1208 80.3162 12.9833C80.4809 12.8467 80.7063 12.8959 80.7063 12.8959L80.7908 11.8289C80.5513 11.7988 80.2858 11.7978 80.0117 11.8118C79.5565 11.8369 79.3214 11.9584 79.0971 12.1672C78.9215 12.3268 78.8023 12.5657 78.655 12.8397C78.4989 13.1388 78.3754 13.3798 78.2128 13.6839C78.0514 13.9961 77.9755 14.1366 77.541 14.1366H77.2581V9.40971H75.5839V17.8166H77.2581V15.3994L77.4868 15.3954C77.9668 15.3954 78.0514 15.5068 78.3049 15.9756C78.6019 16.5347 79.1708 17.8166 79.1708 17.8166H81ZM33.8352 17.8166H35.7673L32.8447 9.55024C32.5369 9.45488 32.1566 9.39566 31.7502 9.39566C31.307 9.39566 31.1488 9.44986 30.802 9.55024L27.7093 17.8166H29.5634C29.5634 17.8166 29.8137 17.0918 30.1085 16.1934H33.3117C33.5978 17.0908 33.8352 17.8166 33.8352 17.8166ZM30.5788 14.8072C30.5788 14.8072 31.1141 13.1479 31.1975 12.8899C31.4099 12.2214 31.7329 11.1593 31.7329 11.1593H31.786C31.786 11.1593 32.0851 12.2595 32.2801 12.8779C32.3538 13.1238 32.8653 14.8072 32.8653 14.8072H30.5788ZM52.1575 13.8616C51.5669 13.8616 51.0869 14.3083 51.0869 14.8553C51.0869 15.4064 51.5669 15.8501 52.1575 15.8501C52.7492 15.8501 53.2271 15.4064 53.2271 14.8553C53.2271 14.3083 52.7492 13.8616 52.1575 13.8616ZM38.0614 9.40971H36.3828V17.8156H38.0614V9.40971ZM71.4108 13.0927C72.3384 13.1107 72.4532 13.2884 72.4532 14.0091V17.8166H74.1166V13.8756C74.1166 13.0164 74.0083 12.7062 73.7612 12.393C73.4198 11.9493 72.7491 11.7566 71.6145 11.7566C70.4918 11.7566 69.7766 11.867 68.8566 12.121V17.8166H70.5373V13.1649C70.9784 13.1057 71.0564 13.0927 71.4108 13.0927ZM42.2129 9.26015C41.1639 9.26015 40.5928 9.45288 40.2569 9.89555C40.0098 10.2097 39.9003 10.5269 39.9003 11.3882V12.121H39.067V13.3777H39.9003V17.8166H41.5648L41.5605 13.3777H43.2196V12.121H41.5605L41.5648 11.4474C41.5648 10.6765 41.6916 10.5269 42.8034 10.5269C42.9237 10.5269 43.0592 10.533 43.2033 10.543L43.4656 9.33543C43.0549 9.28524 42.6344 9.26015 42.2129 9.26015ZM55.5678 9.33844C56.1389 9.30732 57.4154 9.26316 58.2162 9.26316C58.3625 9.26316 58.5142 9.26416 58.6659 9.27118C60.2405 9.27118 61.1432 10.3332 61.1432 11.5799C61.1432 12.4281 60.7238 12.9913 59.7409 13.3266C60.8972 13.5634 61.5029 14.3996 61.5029 15.4225C61.5029 16.1733 61.2743 16.7696 60.8549 17.1761C60.3109 17.672 59.4873 17.9501 58.3907 17.9501C57.4154 17.9501 56.1909 17.922 55.5678 17.8878V9.33844ZM58.2162 10.7157C57.9388 10.7157 57.5953 10.7207 57.255 10.7317V12.7504H58.2173C58.5987 12.7504 58.9054 12.652 59.1146 12.4623C59.314 12.2836 59.418 12.0306 59.418 11.7305C59.418 11.0851 59.0409 10.7197 58.3397 10.7157H58.2162ZM58.2509 16.5006H58.3235C59.198 16.5006 59.7333 16.0699 59.7398 15.2027C59.7312 14.8915 59.6022 14.6044 59.3714 14.3966C59.1189 14.1617 58.7613 14.0393 58.3419 14.0393H57.255V16.4915C57.5617 16.4976 57.8998 16.4986 58.2509 16.5006Z" fill="white"/>
</svg>
