<svg width="102" height="31" viewBox="0 0 102 31" fill="none" xmlns="http://www.w3.org/2000/svg">
<path d="M42.3851 15.0299H38.9354V12.9031H48.3468V15.0299H44.8971V20.8911H42.3851V15.0299Z" fill="white"/>
<path d="M49.2344 20.8743V12.9198H51.7464V20.8743H49.2344Z" fill="white"/>
<path d="M59.9144 17.2739V12.9031H62.2254V20.8576H60.0819L55.778 16.4701V20.8744H53.467V12.9198H55.7111L59.9144 17.2739Z" fill="white"/>
<path d="M66.4078 20.8743H63.9796V12.9198H66.4078V15.909H67.0777L70.0083 12.9114H73.0561L69.171 16.7296L73.2069 20.8827H69.9748L67.0777 17.8683H66.4078V20.8743Z" fill="white"/>
<path d="M83.4682 16.9054C83.4682 19.2834 81.5089 21.1255 78.2601 21.1255C75.0113 21.1255 73.0352 19.2834 73.0352 16.9054C73.0352 14.5274 74.9945 12.6853 78.2601 12.6853C81.5256 12.6853 83.4682 14.5274 83.4682 16.9054ZM80.9228 16.9054C80.9228 15.5992 79.8677 14.6446 78.2601 14.6446C76.6524 14.6446 75.5974 15.5992 75.5974 16.9054C75.5974 18.2116 76.6357 19.1829 78.2601 19.1829C79.8845 19.1829 80.9228 18.2116 80.9228 16.9054Z" fill="white"/>
<path d="M87.0812 14.9294V16.3696H92.4401V18.0442H87.0812V20.8743H84.653V12.9198H92.641V14.9461L87.0812 14.9294Z" fill="white"/>
<path d="M96.1997 14.9294V16.3696H101.559V18.0442H96.1997V20.8743H93.7798V12.9198H101.768V14.9461L96.1997 14.9294Z" fill="white"/>
<path d="M33.4635 14.1633L33.9114 12.7566L32.4545 12.8026C31.7719 12.7756 31.113 12.5452 30.5622 12.1411C30.6292 12.1411 30.692 12.1411 30.7589 12.1411C31.1948 12.1395 31.6216 12.0164 31.9913 11.7857C32.3611 11.5549 32.6592 11.2257 32.8522 10.8349L33.4928 9.4659C32.9904 9.4701 32.4883 9.44073 31.9898 9.37798C31.5133 9.26585 31.0841 9.0066 30.7631 8.63695C30.5482 8.40776 30.2889 8.22464 30.001 8.0987C29.7132 7.97275 29.4027 7.90662 29.0885 7.9043C28.8397 7.90548 28.5926 7.94502 28.3558 8.02152C28.3912 7.90904 28.4192 7.79436 28.4396 7.67822C28.538 6.86079 28.3093 6.0376 27.8032 5.38815L26.6979 4.02751L26.0197 5.61841C25.912 5.84609 25.7459 6.04112 25.5382 6.18361C25.4229 5.61604 25.1434 5.09486 24.7344 4.6848C24.3946 4.33689 23.9881 4.06115 23.5392 3.87411C23.0903 3.68707 22.6083 3.59257 22.122 3.59629C21.951 3.59546 21.7802 3.60806 21.6112 3.63397L20.2883 3.89354C20.4027 3.45031 20.5834 3.02688 20.8241 2.63756L21.5526 1.50299L19.7189 1.67464L19.1328 0.41866L18.0024 1.03409L16.9557 0L15.9091 1.03409L14.7787 0.447966L14.1926 1.67464L12.3588 1.46531L13.0873 2.60406C13.3289 2.99297 13.5096 3.41652 13.6232 3.86004L12.3672 3.61303H12.3253C12.1508 3.58659 11.9744 3.57399 11.7978 3.57536C11.3115 3.5714 10.8294 3.66578 10.3805 3.85284C9.93153 4.0399 9.52503 4.31576 9.1854 4.66387C8.76994 5.07869 8.48722 5.60769 8.3732 6.18361C8.1702 6.04537 8.00707 5.85624 7.90011 5.63516L7.2177 4.03169L6.10406 5.39653C5.60664 6.04669 5.38281 6.86542 5.48026 7.67822C5.50097 7.79429 5.52893 7.90895 5.56399 8.02152C5.32736 7.94455 5.08017 7.905 4.83133 7.9043C4.51713 7.90662 4.20667 7.97275 3.9188 8.0987C3.63093 8.22464 3.37165 8.40776 3.1567 8.63695C2.83742 9.00246 2.41362 9.26113 1.94258 9.37798C1.43824 9.45265 0.928239 9.48207 0.41866 9.4659L1.04246 10.8558C1.23587 11.2463 1.53409 11.5753 1.90377 11.806C2.27345 12.0367 2.70002 12.16 3.13576 12.1621C3.20275 12.1621 3.26555 12.1621 3.33253 12.1621C2.78816 12.5598 2.13875 12.7884 1.46531 12.8194L0 12.7566L0.447966 14.1633C0.611803 14.7033 0.9281 15.1846 1.35885 15.5493C1.7896 15.9139 2.31649 16.1464 2.87619 16.2189C2.81828 16.5842 2.67414 16.9305 2.45572 17.229C2.2373 17.5275 1.95088 17.7696 1.62021 17.9354L0.498205 18.3917L1.10108 19.4426C1.34535 19.8226 1.68201 20.1345 2.07959 20.349C2.47716 20.5635 2.92266 20.6737 3.3744 20.6692C3.6136 20.6687 3.85211 20.6435 4.08612 20.5939C4.14606 20.8499 4.21872 21.1028 4.30382 21.3517C4.51176 21.9026 4.52652 22.5078 4.34569 23.0682L3.80143 24.2111L5.01973 24.5335C5.29346 24.6027 5.5747 24.6378 5.85705 24.6381C6.05715 24.6391 6.25667 24.6166 6.45155 24.5711C6.59437 24.5392 6.73438 24.4958 6.87021 24.4414C7.02717 24.7219 7.21997 24.9809 7.44377 25.2117C8.22248 26.0113 9.32774 26.4174 10.7303 26.4174H11.7308L9.66686 27.2757L11.2326 28.0502C11.8628 28.3619 12.5083 28.6414 13.1669 28.8875L12.9785 29.4318L13.5185 29.6788C14.4151 30.031 15.3651 30.2277 16.3277 30.2607C16.3277 30.2607 16.7464 30.2607 16.9725 30.2607C17.1985 30.2607 17.613 30.2607 17.613 30.2607C18.5717 30.2252 19.5174 30.027 20.4097 29.6746L20.933 29.4318L20.7488 28.8875C21.4148 28.6322 22.0674 28.3429 22.7039 28.0209L24.2404 27.2757L22.1806 26.4384H23.1854C24.5879 26.4384 25.6973 26.0197 26.4719 25.2326C26.696 25.0021 26.8888 24.7431 27.0454 24.4623C27.1814 24.5163 27.3214 24.5597 27.4641 24.5921C27.659 24.6372 27.8585 24.6597 28.0586 24.6591C28.3409 24.6583 28.6221 24.6231 28.8959 24.5544L30.1184 24.232L29.5867 23.11C29.3875 22.5395 29.3949 21.9172 29.6076 21.3517C29.6955 21.0963 29.7667 20.8367 29.8253 20.5771C30.0607 20.6267 30.3006 20.652 30.5412 20.6525C30.9967 20.6562 31.4455 20.5425 31.8444 20.3226C32.2432 20.1026 32.5788 19.7837 32.8187 19.3965L33.4132 18.3582L32.308 17.9061C31.9769 17.7409 31.6901 17.4989 31.4716 17.2003C31.2531 16.9017 31.1093 16.5551 31.052 16.1896C31.6122 16.1168 32.1395 15.8837 32.5703 15.5182C33.0011 15.1528 33.3171 14.6706 33.4802 14.1298L33.4635 14.1633Z" fill="white"/>
<path d="M16.9557 4.31213C15.7877 4.31213 14.9085 4.6973 14.7201 5.14945L16.9557 6.03283L19.1914 5.14945C19.003 4.6973 18.1238 4.31213 16.9557 4.31213Z" fill="white"/>
<path d="M16.9808 27.6818H16.9348C16.2077 27.6757 15.4839 27.5829 14.7787 27.4055L14.2344 28.9336C15.1275 29.1831 16.0495 29.314 16.9767 29.323C17.9039 29.3141 18.8258 29.1832 19.7189 28.9336L19.1328 27.4055C18.4275 27.5827 17.7038 27.6754 16.9767 27.6818" fill="white"/>
<path d="M21.2595 26.162C20.6453 26.4682 20.0068 26.7231 19.3505 26.9239L19.811 28.1799C20.5415 27.9867 21.2511 27.7217 21.9294 27.3887L20.979 27.0705L21.2595 26.162Z" fill="white"/>
<path d="M12.6519 26.162L12.9324 27.083L11.9779 27.4012C12.6563 27.734 13.3658 27.999 14.0963 28.1925L14.5568 26.9365C13.9005 26.7356 13.262 26.4807 12.6477 26.1745" fill="white"/>
<path d="M16.9557 2.85097C17.7954 2.84192 18.6241 3.0419 19.3672 3.43291C19.4385 3.19039 19.5252 2.95267 19.6268 2.72119L19.3756 2.75049L19.1118 2.7798L18.9988 2.54116L18.6639 1.82944L18.0526 2.14762L17.814 2.26903L17.6214 2.0932L16.9557 1.42334L16.2901 2.0932L16.1017 2.28159L15.863 2.16018L15.2476 1.842L14.9168 2.55372L14.8038 2.79236L14.5401 2.76305L14.2889 2.73375C14.39 2.96541 14.4767 3.2031 14.5484 3.44547C15.2893 3.0511 16.1165 2.84683 16.9557 2.85097Z" fill="white"/>
<path d="M30.4156 11.0568C30.5273 11.0958 30.6448 11.1156 30.7631 11.1154C30.9987 11.1136 31.2294 11.0485 31.4312 10.927C31.633 10.8055 31.7985 10.632 31.9103 10.4246C31.1753 10.3024 30.5052 9.92961 30.0137 9.36959C29.8967 9.23872 29.7535 9.13384 29.5934 9.06173C29.4333 8.98962 29.2599 8.95187 29.0843 8.95093C28.8093 8.95527 28.541 9.03649 28.3098 9.18538C29.4988 9.81755 29.7416 10.8307 30.4031 11.061" fill="white"/>
<path d="M3.15251 11.1154C3.26944 11.1156 3.38555 11.0958 3.49581 11.0568C4.17404 10.8266 4.41686 9.80084 5.58911 9.18123C5.35907 9.03308 5.09234 8.9519 4.81877 8.94678C4.6432 8.94772 4.46977 8.98546 4.30968 9.05758C4.14959 9.12969 4.0064 9.23457 3.88935 9.36544C3.40173 9.92451 2.73643 10.2986 2.00538 10.4246C2.1168 10.6323 2.28216 10.8061 2.48404 10.9276C2.68592 11.0492 2.91685 11.1141 3.15251 11.1154Z" fill="white"/>
<path d="M30.738 15.1805H30.7966C32.0526 15.1805 32.4713 13.8492 32.4713 13.8492H32.4461C31.79 13.8288 31.1462 13.6654 30.5597 13.3704C29.9732 13.0753 29.4583 12.6558 29.0508 12.1411C28.1884 11.0484 27.485 10.0855 26.0909 9.70866L25.9569 9.67517L25.9276 9.53701C25.8899 9.32349 26.0365 9.11835 26.3463 8.90902C28.2679 7.65304 26.9617 6.04539 26.9617 6.04539C26.9617 6.04539 26.43 7.32649 25.2033 7.32649H25.1196C24.9791 7.32388 24.8391 7.30988 24.7009 7.28462L24.4749 7.24275C24.5679 6.92179 24.571 6.58146 24.4839 6.25885C24.3968 5.93624 24.2228 5.64373 23.9808 5.41321C23.7395 5.16506 23.4503 4.96847 23.1308 4.83534C22.8113 4.70221 22.4681 4.63531 22.122 4.63869C21.9985 4.63724 21.8752 4.64705 21.7536 4.668C22.1722 5.22481 22.4862 6.14587 21.9964 6.71106C21.5777 7.20089 20.5353 7.22182 20.5353 7.96704C20.5353 8.27684 20.8241 8.63689 21.3391 8.95926C22.8965 9.93892 24.4414 11.241 25.0819 12.9826C25.8857 15.1554 24.9814 16.5998 23.6878 17.4246C23.9686 17.6612 24.3145 17.8071 24.68 17.8432C24.8014 17.8432 24.9144 17.8432 25.0233 17.8432C25.6982 17.8717 26.3623 17.6661 26.9031 17.2613C26.7961 17.8353 26.5373 18.3702 26.1537 18.8103C25.8376 19.1772 25.4425 19.4677 24.9979 19.6599C24.5534 19.852 24.0711 19.9409 23.5873 19.9198C23.5907 20.1165 23.6361 20.3102 23.7206 20.4878C23.8051 20.6655 23.9267 20.8229 24.0771 20.9497C24.4121 21.1742 24.7949 21.3175 25.1949 21.3683C25.1949 21.3683 23.7338 21.6656 23.5747 23.8217C23.5791 24.3702 23.4467 24.9112 23.1896 25.3958H23.2147C26.6016 25.3958 26.5137 22.4903 26.5137 22.4903C26.6014 22.757 26.7559 22.9966 26.9626 23.1865C27.1693 23.3763 27.4213 23.51 27.6943 23.5747C27.8093 23.6033 27.9275 23.6174 28.046 23.6165C28.2379 23.6152 28.4291 23.5914 28.6154 23.5454C28.31 22.7359 28.31 21.8429 28.6154 21.0334C28.8548 20.362 28.9711 19.6528 28.9587 18.9401C29.1528 19.1725 29.3996 19.3552 29.6784 19.4731C29.9573 19.5911 30.2602 19.6409 30.5622 19.6183C30.8296 19.6223 31.0937 19.5588 31.33 19.4336C31.5664 19.3085 31.7674 19.1258 31.9144 18.9024C29.6579 17.9646 29.8798 14.9377 29.8798 14.9377C30.1404 15.0972 30.4408 15.1799 30.7464 15.1764L30.738 15.1805ZM30.0681 18.3372C29.1513 17.8851 28.5693 16.6626 28.427 16.2439C28.2763 18.6303 27.1124 20.284 25.7518 21.8749C25.335 22.3536 25.0113 22.906 24.7972 23.5035C24.9086 22.9061 25.1628 22.3445 25.5382 21.8665C26.7942 20.3426 28.0167 18.4419 28.1046 16.2481C28.1742 14.9164 27.8448 13.5942 27.1585 12.4509C27.3726 13.0701 27.4044 13.7379 27.25 14.3747C27.0957 15.0115 26.7616 15.5905 26.2877 16.043C26.2877 16.043 28.6112 13.2547 25.3624 10.3994C24.0604 9.31093 22.6369 8.64108 21.9043 8.16381C24.5502 9.02625 25.8439 8.07589 25.8439 8.07589C25.4775 8.36179 25.0534 8.56485 24.601 8.6711C24.1485 8.77734 23.6784 8.78424 23.2231 8.69132C23.4073 8.77924 23.5999 8.87553 23.805 8.98438C26.0365 10.1985 28.046 12.1913 28.3851 14.9545V14.9335C28.9043 17.6465 30.0598 18.3414 30.0598 18.3414" fill="white"/>
<path d="M8.7165 21.3516C9.11657 21.3008 9.4993 21.1574 9.83432 20.9329C9.98478 20.8062 10.1063 20.6487 10.1908 20.4711C10.2753 20.2934 10.3208 20.0997 10.3242 19.903C9.83976 19.9239 9.35692 19.8349 8.91177 19.6428C8.46662 19.4507 8.07068 19.1603 7.75358 18.7936C7.37232 18.3524 7.11514 17.8178 7.00837 17.2445C7.54916 17.6494 8.21321 17.8549 8.88815 17.8265C9.00119 17.8265 9.11423 17.8265 9.23564 17.8265C9.60096 17.7899 9.94675 17.644 10.2279 17.4078C8.9342 16.5705 8.0299 15.1387 8.83373 12.9658C9.47846 11.2242 11.0191 9.92217 12.5765 8.94251C13.0915 8.62433 13.3971 8.26428 13.3971 7.95447C13.3971 7.226 12.363 7.20088 11.9402 6.69849C11.4503 6.12911 11.756 5.20806 12.1788 4.65543C12.0572 4.63444 11.9338 4.62463 11.8104 4.62613C11.4643 4.62274 11.1211 4.68964 10.8015 4.82277C10.482 4.9559 10.1929 5.1525 9.95155 5.40065C9.70963 5.63117 9.53563 5.92367 9.44851 6.24628C9.3614 6.5689 9.36452 6.90923 9.45753 7.23019L9.21052 7.28462C9.07227 7.30949 8.93229 7.32349 8.79186 7.32648H8.70394C7.47308 7.32648 6.92464 6.0412 6.92464 6.0412C6.92464 6.0412 5.63098 7.64885 7.53588 8.90902C7.86662 9.12253 8.01315 9.32768 7.95454 9.53701L7.92523 9.67516L7.78708 9.70028C6.39713 10.0771 5.69378 11.04 4.82715 12.1327C4.42159 12.6481 3.90837 13.0688 3.32336 13.3652C2.73835 13.6617 2.09566 13.8269 1.44019 13.8492H1.44857C1.44857 13.8492 1.86723 15.1805 3.12321 15.1805H3.18182C3.48736 15.1839 3.78768 15.1012 4.04844 14.9419C4.04844 14.9419 4.27033 17.9688 2.01376 18.9066C2.15976 19.1268 2.35831 19.3072 2.59147 19.4314C2.82464 19.5557 3.08508 19.6199 3.34928 19.6183C3.64987 19.6361 3.95039 19.5824 4.22621 19.4616C4.50203 19.3408 4.74527 19.1564 4.936 18.9234C4.92267 19.6358 5.03754 20.3449 5.27512 21.0167C5.57932 21.8263 5.57932 22.7189 5.27512 23.5286C5.46008 23.5744 5.64978 23.5982 5.84031 23.5998C5.95884 23.6009 6.07702 23.5868 6.19198 23.5579C6.4649 23.4928 6.71664 23.359 6.92328 23.1693C7.12992 22.9795 7.28459 22.74 7.3726 22.4736C7.3726 22.4736 7.28468 25.3791 10.6758 25.3791H10.7009C10.4445 24.8942 10.3122 24.3534 10.3158 23.8049C10.1776 21.6572 8.7165 21.3516 8.7165 21.3516ZM8.17224 21.8791C6.8116 20.284 5.66028 18.6303 5.49282 16.2481C5.35048 16.6668 4.77273 17.8851 3.85586 18.3414C3.85586 18.3414 5.01136 17.6464 5.5305 14.9335V14.9545C5.8738 12.1913 7.87918 10.1943 10.1148 8.98437C10.32 8.87134 10.5126 8.77923 10.6968 8.69131C10.242 8.78361 9.77272 8.77639 9.32105 8.67016C8.86938 8.56392 8.44605 8.36119 8.08014 8.07588C8.08014 8.07588 9.3738 9.02624 12.0197 8.1638C11.2871 8.64107 9.86363 9.31093 8.56578 10.3994C5.3128 13.2547 7.64054 16.043 7.64054 16.043C7.16614 15.5908 6.8318 15.0118 6.6774 14.3749C6.52299 13.738 6.55505 13.0701 6.76973 12.4509C6.08077 13.5931 5.75111 14.9161 5.82356 16.2481C5.90311 18.421 7.11722 20.3384 8.3732 21.8665C8.75344 22.3472 9.01068 22.9135 9.1226 23.5161C8.90749 22.919 8.58387 22.3669 8.16806 21.8875" fill="white"/>
<path d="M14.4521 10.7386C14.5066 10.7972 14.561 10.8642 14.6154 10.927L14.6531 10.973L14.7996 11.1782L14.8331 11.2242C14.8875 11.3079 14.942 11.4 14.9964 11.4921C15.1832 11.8644 15.4613 12.1832 15.8046 12.419C16.1479 12.6547 16.5454 12.7996 16.9599 12.8402C17.3743 12.7992 17.7716 12.6542 18.1149 12.4185C18.4582 12.1828 18.7363 11.8641 18.9234 11.4921C18.9778 11.4 19.0323 11.3079 19.0909 11.2242L19.116 11.1865C19.1662 11.1154 19.2165 11.0442 19.2667 10.973L19.3002 10.9311C19.3546 10.8642 19.4091 10.7972 19.4677 10.7386L19.497 10.7134C19.7517 10.4463 20.0745 10.2537 20.4306 10.1566L20.2506 10.0478L19.564 9.62911L18.8564 9.21045L16.9683 10.2362L15.0717 9.24813L14.3642 9.66679L13.6734 10.0854L13.4976 10.1859C13.8538 10.2828 14.1767 10.4754 14.4312 10.7427L14.4605 10.7721L14.4521 10.7386ZM16.2021 10.6883H17.7972V11.2368C17.7247 11.1667 17.6375 11.1138 17.5418 11.0819C17.4462 11.05 17.3446 11.04 17.2446 11.0526V11.8438C17.2487 12.0389 17.3004 12.2301 17.3953 12.4006H16.5957C16.6969 12.2205 16.7489 12.0169 16.7464 11.8103V11.0191C16.6464 11.0065 16.5448 11.0165 16.4491 11.0484C16.3535 11.0803 16.2662 11.1332 16.1938 11.2033L16.2021 10.6883Z" fill="white"/>
<path d="M16.7924 9.59145V6.38451L14.7494 5.69373L15.2895 8.79181L16.7924 9.59145ZM16.3738 7.17159V7.68655L16.2733 7.64049C16.1197 7.58872 15.9775 7.50768 15.8547 7.40186C15.7453 7.33274 15.6516 7.24156 15.5795 7.13414C15.5074 7.02673 15.4585 6.90544 15.436 6.77805L16.3738 7.17159Z" fill="white"/>
<path d="M18.622 8.79188L19.1579 5.68542L17.119 6.37621V9.58315L18.622 8.79188ZM17.5586 7.16329L18.488 6.77394C18.4655 6.90133 18.4166 7.02261 18.3445 7.13003C18.2724 7.23744 18.1787 7.32863 18.0694 7.39774C17.9465 7.50357 17.8043 7.5846 17.6507 7.63638L17.5502 7.68243L17.5586 7.16329Z" fill="white"/>
<path d="M13.9037 17.0269C14.0862 17.0862 14.277 17.1158 14.4689 17.1148V17.0562C14.4806 17.0191 14.4904 16.9813 14.4982 16.9432C14.5283 16.7759 14.5451 16.6065 14.5484 16.4366C14.4344 16.3684 14.3417 16.2698 14.2805 16.1519C14.2551 16.0818 14.2082 16.0214 14.1466 15.9793C14.085 15.9373 14.0118 15.9156 13.9372 15.9175C13.7518 15.9332 13.5733 15.9951 13.418 16.0975C13.3934 16.2815 13.4255 16.4687 13.51 16.634C13.5946 16.7993 13.7275 16.9349 13.8911 17.0227" fill="white"/>
<path d="M18.421 15.327C18.0401 15.7457 17.299 16.4574 17.2655 16.4951L17.2195 16.5411L14.875 16.5035C14.873 16.697 14.8477 16.8896 14.7996 17.077V17.1524L17.5837 17.6506C17.8726 17.4496 18.6722 16.8635 18.982 16.6374C18.7903 16.3431 18.7198 15.9861 18.7853 15.641C18.6512 15.5569 18.5323 15.4508 18.4336 15.327" fill="white"/>
<path d="M18.7392 12.5052C18.3413 12.9372 17.8025 13.2133 17.2195 13.284C17.1344 13.2883 17.0492 13.2883 16.9641 13.284C16.879 13.2883 16.7938 13.2883 16.7087 13.284C16.6242 13.2771 16.5403 13.2645 16.4575 13.2463C16.4036 13.4491 16.4183 13.664 16.4994 13.8575C16.5593 13.9738 16.6422 14.0767 16.7429 14.1602C16.8436 14.2436 16.9601 14.3059 17.0855 14.3432L17.1818 14.3808V14.4855C17.1925 14.6995 17.2733 14.9039 17.4118 15.0674C17.5502 15.2308 17.7387 15.3441 17.9479 15.3898C18.0693 15.2642 18.1782 15.1512 18.2619 15.0549C18.1889 14.9075 18.1649 14.7406 18.1935 14.5787C18.2222 14.4167 18.3019 14.2682 18.421 14.1548C18.3871 14.4011 18.4271 14.652 18.5359 14.8756C18.6448 15.0992 18.8175 15.2854 19.0323 15.4107L19.1495 15.4652L19.116 15.5908C19.0399 15.8357 19.062 16.1006 19.1776 16.3295C19.2932 16.5584 19.4933 16.7334 19.7356 16.8174L19.8905 16.8761L19.8235 17.0268C19.7238 17.2538 19.7146 17.5103 19.7979 17.7438C19.8812 17.9773 20.0506 18.1701 20.2715 18.2828H22.0131V16.9012C21.7759 16.8705 21.5551 16.7638 21.3837 16.597C21.2124 16.4301 21.0998 16.2122 21.0628 15.9759C20.8015 15.9415 20.5641 15.8063 20.4013 15.5991C20.299 15.4645 20.2398 15.3021 20.2316 15.1332C20.2234 14.9643 20.2665 14.7969 20.3552 14.653C20.3591 14.933 20.4614 15.2027 20.6441 15.4149C20.7948 15.5714 20.9971 15.668 21.2135 15.6871H21.3391V15.8168C21.3515 15.9985 21.4228 16.1712 21.5422 16.3087C21.6615 16.4462 21.8225 16.541 22.0006 16.5788V13.7905C22.0166 13.3488 22.1116 12.9135 22.2811 12.5052H18.7392Z" fill="white"/>
<path d="M14.0544 13.799L14.0042 15.5992L14.2093 15.6285L14.7117 13.9036L14.4563 13.3719L14.0544 13.799Z" fill="white"/>
<path d="M19.564 22.0466H19.6142C19.924 22.1345 20.0036 23.2565 20.5478 23.357C20.5965 23.362 20.6456 23.362 20.6944 23.357C20.764 23.3573 20.8327 23.3403 20.8941 23.3074C20.9555 23.2745 21.0077 23.2268 21.046 23.1686C21.046 23.1686 20.7697 22.7499 20.5646 22.4443C20.2924 22.0633 20.0789 21.607 19.5724 21.607H19.5347C19.437 21.611 19.3426 21.643 19.2625 21.6991C19.0932 21.5882 18.8955 21.5286 18.6932 21.5274C18.459 21.5556 18.2278 21.6047 18.0024 21.674L16.8678 21.5609C16.7154 21.5243 16.5832 21.4296 16.4994 21.2972V21.2679C16.4994 21.2386 16.4994 21.2051 16.4994 21.1758C16.5074 20.8716 16.4113 20.5739 16.2271 20.3318C16.0429 20.0897 15.7815 19.9178 15.4862 19.8444C15.4862 19.8444 15.5155 19.6686 15.4486 19.6016L15.1974 19.903L14.36 19.4844L14.9462 20.1668L14.4521 20.7236C14.4279 20.747 14.4119 20.7776 14.4067 20.8108C14.4014 20.844 14.407 20.8781 14.4228 20.9078L14.6364 21.0962L14.9085 20.9329C14.9304 20.9269 14.9536 20.9269 14.9755 20.9329C15.0508 20.9329 15.1639 20.9329 15.2643 20.9329C15.3648 20.9329 15.4695 20.9078 15.482 20.8073C15.4486 21.1506 15.1304 21.7493 15.3397 22.2182L15.4904 22.6076L14.4898 22.4652L14.0209 23.2565C13.9474 23.3578 13.9054 23.4786 13.9002 23.6038C13.8949 23.7289 13.9268 23.8527 13.9916 23.9598L14.1675 24.1776C14.289 24.0544 14.3906 23.9132 14.4689 23.7589L14.3893 23.671C14.3603 23.6432 14.3423 23.606 14.3384 23.566C14.3346 23.5261 14.3452 23.486 14.3684 23.4533L14.6615 22.9634L15.8463 23.2439L15.9091 23.1393C15.9416 23.0836 15.989 23.038 16.0459 23.0077C16.1028 22.9774 16.1671 22.9635 16.2314 22.9676C16.2858 22.9634 16.3404 22.9634 16.3947 22.9676C16.7049 23.0303 17.0203 23.0639 17.3367 23.0681C17.5154 23.0864 17.696 23.0688 17.8679 23.0163C18.0397 22.9638 18.1993 22.8775 18.3373 22.7625C18.756 23.3988 19.6352 23.4993 19.564 23.8217L19.3337 24.9102C19.4844 24.9102 19.631 24.9102 19.7524 24.8725L19.9701 23.7421C19.9952 23.6207 20.0161 23.4533 20.0161 23.4533C19.8528 23.3151 19.7116 23.1527 19.5975 22.9718C19.4426 22.6787 19.5263 22.5238 19.384 22.1345C19.3979 22.1086 19.4184 22.0869 19.4434 22.0715C19.4683 22.0561 19.4969 22.0475 19.5263 22.0466H19.564ZM15.0969 20.4557C15.0833 20.4551 15.07 20.4519 15.0577 20.4461C15.0454 20.4403 15.0345 20.432 15.0255 20.4218C15.0165 20.4117 15.0096 20.3998 15.0053 20.3869C15.0011 20.374 14.9994 20.3603 15.0006 20.3468C15.0011 20.3332 15.0044 20.3199 15.0102 20.3076C15.016 20.2954 15.0242 20.2844 15.0344 20.2754C15.0446 20.2664 15.0565 20.2595 15.0694 20.2553C15.0823 20.251 15.0959 20.2494 15.1094 20.2505C15.1366 20.2505 15.1627 20.2613 15.182 20.2806C15.2012 20.2998 15.212 20.3259 15.212 20.3531C15.212 20.3803 15.2012 20.4064 15.182 20.4256C15.1627 20.4449 15.1366 20.4557 15.1094 20.4557" fill="white"/>
<path d="M13.5185 23.0765C13.5185 23.0765 13.9121 22.9132 13.9372 22.8002L13.8869 22.6704C13.8656 22.6339 13.8581 22.5911 13.8658 22.5496C13.8735 22.508 13.8959 22.4707 13.9288 22.4443L14.3475 22.1512L15.055 22.2852C14.9754 22.1776 14.9341 22.0464 14.9378 21.9126L14.2763 21.7703L13.6399 22.1596C13.5289 22.2423 13.4489 22.3598 13.4124 22.4934C13.376 22.6269 13.3854 22.7688 13.439 22.8965L13.5185 23.0765Z" fill="white"/>
<path d="M18.5215 24.9228H18.9402C18.9402 24.9228 19.3044 23.8594 19.3253 23.8259C19.0547 23.6997 18.7906 23.56 18.5341 23.4072C18.6429 23.5705 18.9067 23.7547 18.8523 23.8971L18.5215 24.9228Z" fill="white"/>
<path d="M21.988 18.6094H11.9402V22.3773C11.9402 23.9264 13.058 24.8893 14.7117 24.8893C16.0933 24.8893 16.4575 24.9437 16.9683 25.4545C17.1282 25.2819 17.3228 25.145 17.5392 25.0527C17.7556 24.9604 17.989 24.9147 18.2243 24.9186V24.86L18.5424 23.8803L18.0024 23.29C17.7854 23.3554 17.5587 23.3823 17.3325 23.3695C16.9951 23.3657 16.6587 23.3307 16.3277 23.2649H16.2231C16.177 23.2649 16.177 23.2649 16.1645 23.29L16.1017 23.3947L15.9886 23.5831L15.7709 23.5328L14.8038 23.3067L14.6698 23.5244V23.5496L14.7871 23.6793L14.7368 23.8468C14.6489 24.0518 14.5224 24.238 14.3642 24.3953L14.1214 24.6548L13.8995 24.3785L13.7362 24.1734C13.6501 24.0603 13.5941 23.9272 13.5736 23.7866C13.5531 23.646 13.5687 23.5025 13.619 23.3695L13.3469 23.4826L13.2255 23.2146L13.1585 23.0262C13.0759 22.8341 13.0612 22.6195 13.1167 22.4179C13.1722 22.2163 13.2948 22.0395 13.4641 21.9168L14.2428 21.4981L14.9838 21.6447C14.9838 21.5735 15.0299 21.3181 15.0508 21.2553H15.009L14.5903 21.4144L14.1716 21.1297C14.1511 21.1095 14.1348 21.0853 14.1237 21.0587C14.1126 21.0322 14.1069 21.0036 14.1069 20.9748C14.1069 20.946 14.1126 20.9174 14.1237 20.8909C14.1348 20.8643 14.1511 20.8401 14.1716 20.8199L14.5694 20.217L13.5604 18.961L15.0718 19.5555L15.1764 19.4299L15.3857 19.1788L15.6244 19.4048C15.6874 19.4664 15.731 19.5449 15.75 19.6309C16.1686 19.7984 16.9432 20.2882 17.006 21.0837L16.7673 21.1799C16.7961 21.2212 16.835 21.2544 16.8804 21.2762L17.9856 21.3851L18.0861 21.3558C18.2751 21.2851 18.4747 21.2468 18.6764 21.2427C18.8765 21.2441 19.0739 21.2899 19.2542 21.3767C19.335 21.3477 19.4196 21.3307 19.5054 21.3265H19.5598C20.1501 21.3265 20.4473 21.7703 20.6818 22.1219L20.8032 22.2978C21.0083 22.5908 21.2805 23.0179 21.293 23.0346L21.4144 23.223L21.2637 23.3988C21.1948 23.4888 21.1061 23.5617 21.0044 23.6118C20.9028 23.6619 20.7909 23.6879 20.6776 23.6877C20.6108 23.694 20.5435 23.694 20.4767 23.6877C20.4163 23.6758 20.3573 23.6576 20.3008 23.6333C20.3008 23.6919 20.3008 23.7631 20.2673 23.8217L20.0957 24.8097C20.6475 24.6986 21.1417 24.3943 21.4893 23.9515C21.8369 23.5088 22.0152 22.9565 21.9922 22.3941L21.988 18.6094Z" fill="#FCE527"/>
<path d="M11.9276 18.3037H19.7524C19.596 18.1395 19.4869 17.9361 19.4368 17.715C19.3867 17.4938 19.3973 17.2633 19.4677 17.0477C19.3618 16.997 19.2632 16.9322 19.1746 16.8551C18.869 17.0812 17.9186 17.7594 17.6926 17.9311L17.6423 17.9646L14.5694 17.4203H14.5066C14.4062 17.4262 14.3055 17.4262 14.2051 17.4203C14.1908 17.4864 14.1544 17.5457 14.1019 17.5883C14.0494 17.6309 13.9839 17.6544 13.9163 17.6548H13.866C13.7869 17.6414 13.7162 17.5975 13.6693 17.5325C13.6223 17.4675 13.6027 17.3866 13.6148 17.3073V17.2403C13.421 17.1006 13.2721 16.9073 13.1866 16.6842C13.1011 16.4611 13.0826 16.2178 13.1334 15.9843V15.9299L13.1794 15.8964C13.1794 15.8964 13.238 15.8545 13.3176 15.8085L13.0957 15.775C13.056 15.7678 13.0206 15.7454 12.9972 15.7126C12.9737 15.6797 12.964 15.639 12.9701 15.5991C12.9731 15.5792 12.9801 15.5601 12.9907 15.543C13.0012 15.5258 13.0151 15.5109 13.0315 15.4992C13.0479 15.4875 13.0664 15.4792 13.0861 15.4748C13.1058 15.4704 13.1261 15.47 13.1459 15.4735L13.6776 15.5573L13.7279 13.6859L14.5191 12.8485L15.0131 13.8868L14.494 15.6871L14.9629 15.7624C15.0026 15.7696 15.038 15.792 15.0614 15.8248C15.0849 15.8577 15.0946 15.8984 15.0885 15.9383C15.0825 15.9737 15.064 16.0059 15.0364 16.0289C15.0087 16.052 14.9738 16.0644 14.9378 16.0639H14.9127L14.5317 16.0011V16.0304C14.574 16.1051 14.6383 16.1651 14.7159 16.202L17.0562 16.2397L17.6549 15.6494C17.4313 15.5721 17.2341 15.4333 17.086 15.2488C16.9378 15.0644 16.8448 14.8419 16.8176 14.6069C16.526 14.4953 16.2879 14.2767 16.1519 13.9957C16.0383 13.7311 16.0191 13.4355 16.0975 13.1584C15.7289 13.0139 15.396 12.791 15.122 12.5052H11.6471C11.8153 12.9139 11.9102 13.349 11.9276 13.7905V18.3037Z" fill="#FCE527"/>
<path d="M15.1471 20.2506C15.1336 20.2495 15.1199 20.2511 15.1071 20.2553C15.0942 20.2596 15.0823 20.2665 15.0721 20.2755C15.0619 20.2845 15.0537 20.2954 15.0479 20.3077C15.042 20.32 15.0388 20.3333 15.0383 20.3469C15.0371 20.3604 15.0387 20.3741 15.043 20.387C15.0473 20.3998 15.0541 20.4117 15.0631 20.4219C15.0721 20.4321 15.0831 20.4403 15.0954 20.4461C15.1076 20.452 15.121 20.4552 15.1346 20.4557C15.1618 20.4557 15.1878 20.4449 15.2071 20.4257C15.2263 20.4065 15.2371 20.3804 15.2371 20.3532C15.2371 20.326 15.2263 20.2999 15.2071 20.2806C15.1878 20.2614 15.1618 20.2506 15.1346 20.2506" fill="#222220"/>
<path d="M21.9754 27.1165L21.3977 26.8946L21.5568 26.2959L21.7326 25.6428C20.9415 26.0475 20.1128 26.3742 19.2583 26.6183C18.8397 26.7355 18.5383 26.79 18.5383 26.79V27.2128C18.0232 27.2964 17.5026 27.3412 16.9808 27.3468H16.9348C16.413 27.3413 15.8924 27.2965 15.3774 27.2128V26.7941C15.3774 26.7941 15.0717 26.7355 14.6531 26.6183C13.7986 26.3744 12.9699 26.0477 12.1788 25.6428L12.3505 26.2959L12.5137 26.8946L11.9318 27.1165L11.3038 27.3551C12.1674 27.8032 13.0681 28.1758 13.9958 28.4688L13.7739 29.0716C14.7847 29.4584 15.8612 29.6447 16.9432 29.6201H16.9683C18.0503 29.6449 19.1268 29.4586 20.1375 29.0716L19.9198 28.4688C20.8464 28.1762 21.7457 27.8036 22.6076 27.3551L21.9754 27.1165ZM11.9862 27.397L12.9408 27.0788L12.6603 26.1578C13.2745 26.464 13.9131 26.7188 14.5694 26.9197L14.1088 28.1757C13.3785 27.9819 12.6689 27.7169 11.9904 27.3844L11.9862 27.397ZM16.9599 29.3061C16.0391 29.3011 15.1228 29.1758 14.2344 28.9335L14.7996 27.4012C15.5048 27.5785 16.2286 27.6712 16.9557 27.6775H17.0018C17.7289 27.6708 18.4526 27.5781 19.1579 27.4012L19.7231 28.9335C18.83 29.1831 17.908 29.314 16.9808 29.3228L16.9599 29.3061ZM19.8361 28.1883L19.3756 26.9323C20.0319 26.7315 20.6704 26.4766 21.2847 26.1703L21.0042 27.0914L21.9545 27.4096C21.2761 27.7424 20.5665 28.0074 19.8361 28.2008" fill="#222220"/>
<path d="M16.9557 3.21952C17.9021 3.19374 18.8311 3.47743 19.6017 4.02754C19.7217 3.4065 19.9529 2.81224 20.2841 2.27335L19.3337 2.3822L18.8397 1.32299L17.881 1.81701L16.9557 0.900146L16.0305 1.81701L15.0718 1.32299L14.5777 2.3822L13.6274 2.27335C13.9588 2.81211 14.19 3.40642 14.3098 4.02754C15.0806 3.47798 16.0094 3.19435 16.9557 3.21952ZM14.5359 2.75062L14.7996 2.77993L14.9127 2.54129L15.2434 1.82957L15.8588 2.14775L16.0975 2.26916L16.2901 2.09333L16.9557 1.41928L17.6214 2.09333L17.814 2.28172L18.0526 2.16031L18.6639 1.84213L18.9988 2.55385L19.1118 2.79249L19.3756 2.76318L19.6268 2.73388C19.5252 2.96536 19.4385 3.20308 19.3672 3.4456C18.6215 3.06351 17.7957 2.86425 16.9578 2.86425C16.12 2.86425 15.2941 3.06351 14.5484 3.4456C14.4767 3.20324 14.39 2.96554 14.2889 2.73388L14.5359 2.75062Z" fill="#222220"/>
<path d="M30.7966 15.5909C32.3205 15.5909 32.8313 14.0376 32.8522 13.9706L33.0239 13.4222H32.4503C31.8547 13.4016 31.2707 13.2511 30.7392 12.9814C30.2077 12.7117 29.7415 12.3292 29.3732 11.8606L29.2601 11.7224C28.4814 10.7302 27.7404 9.78824 26.4174 9.35702C26.4699 9.31082 26.5259 9.26883 26.5849 9.23142C26.8956 9.05576 27.1648 8.81528 27.3743 8.52632C27.5838 8.23736 27.7287 7.90669 27.799 7.55678C27.8707 6.91691 27.6905 6.27427 27.2966 5.76492L26.878 5.24159L26.6142 5.86539C26.6142 5.90307 26.1495 6.90367 25.2117 6.90367H25.1196H24.9354C24.9609 6.5782 24.9157 6.25106 24.803 5.94467C24.6903 5.63828 24.5126 5.35989 24.2823 5.12855C24.0022 4.84232 23.6672 4.61546 23.2975 4.46152C22.9278 4.30759 22.5308 4.22974 22.1304 4.23262C21.9804 4.232 21.8306 4.2432 21.6824 4.26611L21.0418 4.39171L21.4396 4.91504C21.7494 5.3337 22.0299 6.05798 21.6991 6.44733C21.5406 6.58516 21.3593 6.69425 21.1633 6.7697C20.7446 6.96647 20.1417 7.24697 20.1417 7.95032C20.1417 8.40666 20.4976 8.88393 21.1381 9.29003C23.0263 10.4874 24.1944 11.7224 24.7009 13.1124C25.4838 15.2308 24.4623 16.4366 23.4701 17.0729L23.0263 17.3576L23.4156 17.7135C23.7625 18.0107 24.192 18.1948 24.6465 18.241C24.7805 18.241 24.9061 18.241 25.0275 18.241C25.4161 18.2424 25.8027 18.186 26.1746 18.0735C26.0808 18.2372 25.9715 18.3914 25.8481 18.534C25.5689 18.8583 25.2194 19.1143 24.8261 19.2827C24.4328 19.451 24.0062 19.5272 23.5789 19.5053H23.2063L23.177 19.8779C23.1754 20.1359 23.2304 20.3911 23.3382 20.6255C23.446 20.8599 23.6039 21.0677 23.8008 21.2344C23.9052 21.326 24.0223 21.4021 24.1483 21.4605C23.8417 21.7596 23.597 22.1161 23.4282 22.5097C23.2594 22.9034 23.1698 23.3264 23.1644 23.7547C23.1638 24.2288 23.0565 24.6967 22.8505 25.1237L22.4318 25.7517H23.177C24.4079 25.7517 25.3499 25.414 26.003 24.7386C26.3418 24.3821 26.5939 23.9523 26.7398 23.4826C26.9819 23.6864 27.2688 23.8299 27.5771 23.9013C27.724 23.9352 27.8743 23.952 28.0251 23.9515C28.2507 23.9509 28.4755 23.9242 28.6949 23.872L29.1722 23.7464L28.9629 23.3026C28.7 22.5935 28.7 21.8137 28.9629 21.1046C29.118 20.6422 29.226 20.1653 29.2853 19.6812C29.6624 19.8732 30.0804 19.9709 30.5036 19.9659C30.8445 19.9708 31.1811 19.8894 31.482 19.729C31.7829 19.5687 32.0382 19.3347 32.2242 19.049L32.4545 18.6303L32.0358 18.4545C30.6333 17.8726 30.3235 16.3068 30.2607 15.4611C30.3987 15.4891 30.5387 15.5059 30.6794 15.5113L30.7966 15.5909ZM31.9103 18.9067C31.7631 19.1286 31.5625 19.3101 31.327 19.4345C31.0915 19.5588 30.8285 19.6221 30.5622 19.6184C30.2616 19.6362 29.9611 19.5825 29.6852 19.4617C29.4094 19.3409 29.1662 19.1564 28.9754 18.9234C28.9877 19.6361 28.8714 20.3452 28.6321 21.0167C28.3268 21.8262 28.3268 22.7192 28.6321 23.5287C28.4458 23.5747 28.2547 23.5986 28.0628 23.5998C27.9442 23.6007 27.8261 23.5866 27.7111 23.558C27.4382 23.4929 27.1864 23.3591 26.9798 23.1693C26.7732 22.9795 26.6185 22.74 26.5305 22.4736C26.5305 22.4736 26.6184 25.3791 23.2314 25.3791H23.2063C23.4634 24.8945 23.5958 24.3535 23.5915 23.805C23.738 21.6572 25.1949 21.3516 25.1949 21.3516C24.7948 21.301 24.4121 21.1576 24.0771 20.933C23.9267 20.8062 23.8051 20.6487 23.7206 20.4711C23.6361 20.2934 23.5907 20.0998 23.5873 19.9031C24.0711 19.9242 24.5534 19.8353 24.9979 19.6432C25.4425 19.451 25.8376 19.1605 26.1537 18.7936C26.5373 18.3534 26.7961 17.8186 26.9031 17.2446C26.3623 17.6494 25.6982 17.855 25.0233 17.8265C24.9144 17.8265 24.7972 17.8265 24.68 17.8265C24.3145 17.7904 23.9686 17.6445 23.6878 17.4078C24.9772 16.5705 25.8815 15.1387 25.0819 12.9659C24.4372 11.2242 22.8923 9.92221 21.3391 8.94254C20.8241 8.62436 20.5143 8.26432 20.5143 7.95451C20.5143 7.22604 21.5484 7.20511 21.9755 6.69853C22.4653 6.12915 22.1597 5.2081 21.7326 4.65547C21.8543 4.63452 21.9776 4.62471 22.1011 4.62616C22.4472 4.62278 22.7904 4.68968 23.1099 4.82281C23.4294 4.95594 23.7186 5.15253 23.9599 5.40068C24.2018 5.6312 24.3758 5.92371 24.4629 6.24632C24.55 6.56893 24.5469 6.90927 24.4539 7.23023L24.68 7.27628C24.8182 7.30136 24.9582 7.31536 25.0987 7.31814H25.1908C26.4174 7.31814 26.9701 6.03286 26.9701 6.03286C26.9701 6.03286 28.2763 7.64051 26.3546 8.89649C26.0239 9.11001 25.8774 9.31515 25.936 9.52448L25.9653 9.66264L26.1034 9.68776C27.4976 10.0646 28.1967 11.0275 29.0634 12.1202C29.4691 12.6354 29.9824 13.0559 30.5673 13.3523C31.1523 13.6488 31.7949 13.8141 32.4503 13.8367H32.4754C32.4754 13.8367 32.0568 15.168 30.8008 15.168H30.7422C30.4366 15.1716 30.1362 15.0889 29.8756 14.9294C29.8756 14.9294 29.6537 17.9563 31.9103 18.8941" fill="#222220"/>
<path d="M28.113 9.54543C28.5826 9.81171 28.9895 10.1758 29.3062 10.613C29.5439 10.9819 29.8845 11.273 30.2859 11.4503C30.4383 11.5014 30.5982 11.5269 30.7589 11.5257C31.0736 11.5247 31.3819 11.4371 31.65 11.2724C31.9181 11.1077 32.1356 10.8723 32.2787 10.5921L32.5215 10.0478L31.9312 10.0143C31.2962 9.89901 30.7199 9.56949 30.2984 9.08072C30.1431 8.91211 29.9549 8.77718 29.7453 8.68428C29.5357 8.59138 29.3093 8.5425 29.0801 8.54065C28.7218 8.54625 28.3723 8.65212 28.0711 8.84627L27.5269 9.22725L28.113 9.54543ZM29.0801 8.95094C29.2557 8.95188 29.4291 8.98962 29.5892 9.06174C29.7493 9.13385 29.8925 9.23872 30.0095 9.3696C30.5012 9.92935 31.1712 10.302 31.9061 10.4246C31.7943 10.632 31.6289 10.8055 31.4271 10.927C31.2252 11.0485 30.9945 11.1136 30.7589 11.1154C30.6406 11.1156 30.5232 11.0958 30.4115 11.0568C29.7332 10.8265 29.4946 9.80082 28.3182 9.1812C28.5494 9.03231 28.8177 8.9511 29.0927 8.94675" fill="#222220"/>
<path d="M28.381 14.9335C28.0377 12.1704 26.0323 10.1734 23.8008 8.96342C23.5957 8.85039 23.4031 8.75828 23.2189 8.67036C23.6743 8.763 24.1443 8.75597 24.5967 8.64973C25.0491 8.5435 25.4731 8.34058 25.8397 8.05493C25.8397 8.05493 24.546 9.00529 21.9001 8.14285C22.6328 8.62012 24.0562 9.28998 25.3582 10.3785C28.607 13.2338 26.2835 16.022 26.2835 16.022C26.7582 15.5701 27.093 14.9912 27.2481 14.3544C27.4032 13.7176 27.3721 13.0496 27.1585 12.4299C27.8448 13.5733 28.1743 14.8955 28.1046 16.2272C28.0125 18.4209 26.7942 20.3384 25.5383 21.8665C25.1595 22.3476 24.9037 22.9138 24.793 23.516C25.0071 22.9185 25.3308 22.3662 25.7476 21.8875C27.1082 20.2924 28.2595 18.6387 28.4228 16.2565C28.5652 16.6751 29.1429 17.8934 30.064 18.3498C30.064 18.3498 28.9085 17.6548 28.3893 14.9419" fill="#222220"/>
<path d="M11.0568 25.1531C10.8538 24.725 10.7467 24.2578 10.7428 23.7841C10.737 23.3555 10.6467 22.9323 10.4772 22.5386C10.3076 22.1449 10.0621 21.7885 9.75477 21.4898C9.88096 21.4317 9.99801 21.3556 10.1023 21.2637C10.2994 21.0973 10.4575 20.8894 10.5653 20.655C10.6731 20.4206 10.728 20.1653 10.7261 19.9073L10.7009 19.5347H10.3242C9.89759 19.5559 9.47182 19.4794 9.0793 19.3111C8.68678 19.1428 8.33788 18.887 8.0592 18.5634C7.93641 18.4202 7.8271 18.2661 7.73265 18.1029C8.10454 18.2155 8.49119 18.272 8.87978 18.2703C9.00119 18.2703 9.12678 18.2703 9.26076 18.2703C9.71663 18.2247 10.1476 18.0406 10.4958 17.7428L10.8852 17.3869L10.4414 17.1023C9.44497 16.4659 8.42762 15.2602 9.21052 13.1417C9.7171 11.7643 10.8852 10.5209 12.7901 9.32356C13.4306 8.9049 13.7823 8.44018 13.7823 7.98385C13.7823 7.2805 13.192 6.99999 12.7608 6.80322C12.5646 6.72809 12.3832 6.61896 12.2249 6.48086C11.8899 6.0915 12.1704 5.35047 12.4844 4.94856L12.9031 4.42524L12.2584 4.29964C12.1102 4.27657 11.9604 4.26537 11.8104 4.26615C11.4073 4.25444 11.0061 4.32486 10.6311 4.47313C10.2561 4.62139 9.91524 4.8444 9.62918 5.12859C9.39472 5.3587 9.21303 5.63697 9.09665 5.94418C8.98028 6.25138 8.93199 6.5802 8.95513 6.90789H8.77092H8.70394C7.76195 6.90789 7.31817 5.91148 7.30143 5.86961L7.03767 5.24581L6.61901 5.76913C6.2298 6.28068 6.0515 6.92197 6.12081 7.561C6.19016 7.91074 6.33415 8.24139 6.54296 8.5304C6.75177 8.81941 7.02047 9.05996 7.33073 9.23564C7.38995 9.27277 7.44597 9.31478 7.4982 9.36124C6.17523 9.7799 5.4342 10.7344 4.6555 11.7267L4.54246 11.869C4.17367 12.3381 3.7068 12.7209 3.17454 12.9907C2.64228 13.2604 2.05749 13.4106 1.46112 13.4306H0.887558L1.0634 13.9791C1.0634 14.046 1.59091 15.5993 3.11901 15.5993H3.19437C3.33503 15.5936 3.47502 15.5768 3.61303 15.549C3.55023 16.3863 3.24043 17.9605 1.83373 18.5424L1.41507 18.7183L1.64533 19.1369C1.83133 19.4227 2.0867 19.6566 2.3876 19.817C2.6885 19.9773 3.02511 20.0588 3.36602 20.0538C3.78774 20.058 4.20423 19.9603 4.58014 19.7691C4.63902 20.2533 4.74704 20.7302 4.90251 21.1926C5.16544 21.9016 5.16544 22.6815 4.90251 23.3905L4.69318 23.8343L5.17045 23.9599C5.38993 24.0121 5.6147 24.0388 5.8403 24.0394C5.99107 24.0401 6.1414 24.0233 6.28827 23.9892C6.59666 23.9181 6.88369 23.7746 7.12559 23.5706C7.27137 24.0403 7.52352 24.4701 7.86243 24.8265C8.51833 25.4992 9.46032 25.8369 10.6884 25.8397H11.4336L11.0568 25.1531ZM10.6968 25.3875C7.3098 25.3875 7.39353 22.482 7.39353 22.482C7.30552 22.7484 7.15085 22.9879 6.94421 23.1777C6.73757 23.3675 6.48583 23.5013 6.21291 23.5664C6.09795 23.5953 5.97977 23.6093 5.86124 23.6082C5.6707 23.6068 5.48099 23.5829 5.29605 23.5371C5.60025 22.7274 5.60025 21.8348 5.29605 21.0251C5.05847 20.3533 4.9436 19.6443 4.95693 18.9318C4.7662 19.1648 4.52295 19.3493 4.24714 19.4701C3.97132 19.5909 3.6708 19.6446 3.37021 19.6268H3.34928C3.08187 19.6307 2.81778 19.5672 2.58142 19.4421C2.34507 19.3169 2.14407 19.1342 1.99701 18.9109C4.25358 17.9731 4.03169 14.9462 4.03169 14.9462C3.77093 15.1054 3.47061 15.1881 3.16507 15.1848H3.11901C1.86304 15.1848 1.44438 13.8535 1.44438 13.8535H1.4695C2.12534 13.8323 2.76864 13.668 3.3544 13.3723C3.94015 13.0765 4.45422 12.6563 4.86064 12.1411C5.72308 11.0484 6.42643 10.0855 7.82057 9.70872L7.95872 9.6836L7.98803 9.54545C8.02571 9.33193 7.87918 9.12679 7.56937 8.91746C5.64772 7.66148 6.95394 6.05382 6.95394 6.05382C6.95394 6.05382 7.4982 7.33911 8.73324 7.33911H8.79186C8.93229 7.3361 9.07227 7.3221 9.21052 7.29724L9.43659 7.25119C9.34311 6.93027 9.33975 6.58981 9.42689 6.2671C9.51403 5.9444 9.6883 5.6519 9.93061 5.42165C10.1719 5.1735 10.4611 4.97691 10.7806 4.84377C11.1001 4.71064 11.4433 4.64374 11.7895 4.64713C11.9129 4.64558 12.0362 4.65539 12.1579 4.67643C11.7392 5.23325 11.4294 6.1543 11.9192 6.71949C12.3379 7.20932 13.3762 7.23026 13.3762 7.97547C13.3762 8.28528 13.0873 8.64533 12.5724 8.9677C11.0149 9.94736 9.47009 11.2494 8.82954 12.991C8.0299 15.1639 8.9342 16.6082 10.2237 17.433C9.94256 17.6692 9.59677 17.8151 9.23145 17.8517C9.11004 17.8517 8.997 17.8517 8.88396 17.8517C8.20902 17.8801 7.54497 17.6746 7.00418 17.2697C7.11095 17.843 7.36813 18.3776 7.74939 18.8188C8.06649 19.1855 8.46243 19.4758 8.90758 19.668C9.35273 19.8601 9.83557 19.9491 10.32 19.9282C10.3166 20.1249 10.2711 20.3186 10.1866 20.4962C10.1022 20.6739 9.98059 20.8314 9.83013 20.9581C9.49511 21.1826 9.11238 21.326 8.71231 21.3768C8.71231 21.3768 10.1734 21.674 10.3325 23.8301C10.3289 24.3786 10.4612 24.9194 10.7177 25.4043L10.6968 25.3875Z" fill="#222220"/>
<path d="M3.15251 11.5215C3.31327 11.5226 3.47312 11.4971 3.62559 11.4461C4.02712 11.269 4.36778 10.9779 4.60526 10.6088C4.9207 10.1721 5.32615 9.80801 5.79425 9.54125L6.38037 9.22725L5.83612 8.84627C5.53635 8.65246 5.18825 8.54658 4.83133 8.54065C4.6018 8.54303 4.37521 8.59257 4.16563 8.6862C3.95605 8.77982 3.76796 8.91554 3.61303 9.08491C3.19241 9.57259 2.61783 9.90198 1.98444 10.0185L1.39413 10.0478L1.63277 10.5921C1.7761 10.8709 1.99323 11.105 2.26047 11.2689C2.52772 11.4328 2.83483 11.5202 3.14832 11.5215H3.15251ZM3.89772 9.3696C4.01477 9.23872 4.15796 9.13385 4.31805 9.06174C4.47814 8.98962 4.65157 8.95188 4.82715 8.95094C5.10067 8.95628 5.36735 9.03744 5.59748 9.18539C4.41267 9.81756 4.16566 10.8307 3.50418 11.061C3.39394 11.1 3.27782 11.1199 3.16088 11.1196C2.92338 11.1193 2.69041 11.0545 2.48688 10.9321C2.28335 10.8097 2.11692 10.6343 2.00538 10.4246C2.74037 10.3024 3.41044 9.92962 3.90191 9.3696" fill="#222220"/>
<path d="M5.81519 16.244C5.74273 14.912 6.07239 13.589 6.76136 12.4468C6.54718 13.0664 6.5158 13.7345 6.67095 14.3714C6.8261 15.0084 7.16123 15.5872 7.63636 16.0389C7.63636 16.0389 5.30861 13.2506 8.56159 10.3953C9.86363 9.30682 11.2829 8.63697 12.0155 8.1597C9.36961 9.02213 8.07595 8.07178 8.07595 8.07178C8.44186 8.35709 8.86519 8.55982 9.31686 8.66605C9.76853 8.77228 10.2378 8.7795 10.6926 8.68721C10.5084 8.77513 10.3158 8.87142 10.1106 8.98027C7.87918 10.1944 5.86124 12.1914 5.5305 14.9545V14.9336C5.01136 17.6465 3.85586 18.3415 3.85586 18.3415C4.77272 17.8893 5.35466 16.6669 5.49282 16.2482C5.64772 18.6346 6.8116 20.2883 8.17224 21.8792C8.58813 22.3585 8.91176 22.9107 9.12679 23.5078C9.01234 22.9077 8.75371 22.3445 8.3732 21.8666C7.11722 20.3385 5.9031 18.421 5.81519 16.244Z" fill="#222220"/>
<path d="M16.1896 10.6548V11.2032C16.2625 11.1326 16.3505 11.0793 16.4469 11.0474C16.5433 11.0155 16.6457 11.0058 16.7464 11.019V11.8103C16.7431 12.0055 16.6913 12.1969 16.5957 12.3671H17.3869C17.2921 12.1966 17.2403 12.0054 17.2362 11.8103V11.019C17.3363 11.0064 17.4378 11.0165 17.5335 11.0483C17.6291 11.0802 17.7164 11.1332 17.7889 11.2032V10.6548H16.1896Z" fill="#222220"/>
<path d="M15.8505 7.40603C15.9733 7.51185 16.1155 7.59289 16.2691 7.64467L16.3696 7.69072V7.17158L15.4402 6.78223C15.4627 6.90962 15.5116 7.0309 15.5837 7.13831C15.6558 7.24573 15.7495 7.33691 15.8588 7.40603" fill="#222220"/>
<path d="M18.061 7.40603C18.1703 7.33691 18.2641 7.24573 18.3361 7.13831C18.4082 7.0309 18.4571 6.90962 18.4796 6.78223L17.5502 7.17158V7.68653L17.6465 7.64048C17.8002 7.5887 17.9423 7.50767 18.0652 7.40184" fill="#222220"/>
<path d="M19.7314 5.30436C19.7314 4.52146 18.4127 3.81812 16.9599 3.81812C15.5072 3.81812 14.1884 4.52146 14.1884 5.30436L14.2177 5.49694L14.7996 8.84622L14.2177 9.18533L12.698 10.0478C12.698 10.0478 12.3588 10.2236 12.1997 10.3283C11.6262 10.7469 11.5048 11.3079 11.8355 11.5508C11.8764 11.275 12.017 11.0238 12.2308 10.8447C12.4445 10.6657 12.7165 10.5713 12.9952 10.5795C13.2327 10.5862 13.4653 10.6489 13.6741 10.7623C13.8828 10.8758 14.0619 11.0369 14.1968 11.2326C14.2787 11.3338 14.3542 11.4401 14.4228 11.5508C14.5108 11.6931 14.5987 11.8187 14.6866 11.9401H10.8098C11.1359 12.5026 11.3266 13.1333 11.3666 13.7822V22.3941C11.3666 24.4874 12.9701 25.4712 14.7159 25.4712C16.0556 25.4712 16.2356 25.4084 16.9725 26.1452C17.7093 25.4084 17.8893 25.4712 19.229 25.4712C20.9623 25.4712 22.5783 24.479 22.5783 22.3941V13.7906C22.6184 13.1417 22.809 12.511 23.1351 11.9485H19.2165C19.3044 11.8271 19.3923 11.7015 19.4802 11.5591C19.5498 11.4491 19.6253 11.3429 19.7063 11.241C19.8418 11.045 20.0216 10.8837 20.2311 10.7702C20.4406 10.6568 20.6739 10.5943 20.9121 10.5878C21.1907 10.5797 21.4627 10.6741 21.6765 10.8531C21.8902 11.0321 22.0309 11.2833 22.0717 11.5591C22.4067 11.3205 22.2853 10.7218 21.7075 10.3366C21.5526 10.2278 21.2135 10.0561 21.2135 10.0561L19.7063 9.16859L19.1244 8.82947L19.7063 5.48019L19.7314 5.30436ZM14.7494 5.68952L16.7924 6.38031V9.58725L15.2895 8.79179L14.7494 5.68952ZM15.168 12.5053C15.442 12.7912 15.7748 13.014 16.1435 13.1584C16.0651 13.4355 16.0844 13.7311 16.198 13.9957C16.334 14.2768 16.572 14.4954 16.8636 14.607C16.8909 14.842 16.9839 15.0645 17.132 15.2489C17.2802 15.4333 17.4774 15.5722 17.7009 15.6494C17.4497 15.9048 17.2027 16.1435 17.1023 16.2398L14.7619 16.2021C14.6844 16.1651 14.6201 16.1052 14.5777 16.0304V16.0011L14.9587 16.0639H14.9838C15.0198 16.0644 15.0548 16.052 15.0824 16.029C15.1101 16.006 15.1286 15.9738 15.1346 15.9383C15.1407 15.8984 15.1309 15.8577 15.1075 15.8249C15.084 15.792 15.0487 15.7697 15.009 15.7625L14.5401 15.6871L15.0592 13.8869L14.5652 12.8486L13.7739 13.6859L13.7237 15.5573L13.192 15.4736C13.1722 15.47 13.1518 15.4704 13.1322 15.4748C13.1125 15.4793 13.0939 15.4876 13.0775 15.4993C13.0611 15.511 13.0473 15.5259 13.0367 15.543C13.0262 15.5602 13.0192 15.5793 13.0161 15.5992C13.01 15.6391 13.0198 15.6798 13.0432 15.7126C13.0667 15.7455 13.102 15.7679 13.1417 15.775L13.3636 15.8085C13.2841 15.8546 13.2297 15.8881 13.2255 15.8965L13.1794 15.9299V15.9844C13.1292 16.2179 13.1479 16.4609 13.2334 16.6839C13.3189 16.907 13.4674 17.1003 13.6609 17.2403V17.3073C13.6488 17.3866 13.6683 17.4675 13.7153 17.5325C13.7623 17.5975 13.833 17.6415 13.9121 17.6548H13.9623C14.0299 17.6544 14.0954 17.631 14.148 17.5884C14.2005 17.5458 14.2369 17.4865 14.2512 17.4204C14.3502 17.4261 14.4494 17.4261 14.5484 17.4204H14.6112L17.68 17.9772L17.7302 17.9437C17.9731 17.772 18.9067 17.1064 19.2123 16.8677C19.3009 16.9448 19.3995 17.0096 19.5054 17.0603C19.435 17.2759 19.4244 17.5065 19.4745 17.7276C19.5246 17.9487 19.6336 18.1521 19.7901 18.3163H11.9276V13.7906C11.9102 13.349 11.8153 12.914 11.6471 12.5053H15.168ZM18.9611 16.6375C18.6513 16.8677 17.8517 17.4497 17.5628 17.6506L14.7787 17.165V17.0896C14.8266 16.9021 14.8519 16.7096 14.8541 16.5161L17.1985 16.5537L17.2446 16.5077C17.2823 16.47 18.0233 15.7541 18.4001 15.3396C18.4989 15.4632 18.6178 15.5694 18.7518 15.6536C18.6859 15.9987 18.7564 16.3559 18.9485 16.65L18.9611 16.6375ZM14.2972 16.156C14.3584 16.2739 14.4512 16.3725 14.5652 16.4407C14.5617 16.6106 14.5449 16.78 14.5149 16.9473C14.5149 16.985 14.5149 17.0226 14.4856 17.0603V17.1189C14.2938 17.1199 14.1029 17.0903 13.9204 17.031C13.7572 16.9431 13.6248 16.8073 13.541 16.6419C13.4571 16.4765 13.4259 16.2894 13.4515 16.1058C13.6003 15.9999 13.7728 15.9323 13.9539 15.909C14.0286 15.9065 14.1022 15.9279 14.1639 15.9701C14.2257 16.0122 14.2724 16.073 14.2972 16.1435V16.156ZM14.0084 15.5866L14.0544 13.8157L14.4731 13.3971L14.7285 13.9288L14.2303 15.6536L14.0084 15.5866ZM18.9444 24.9144H18.5257L18.8397 23.8887C18.8899 23.7463 18.6304 23.5621 18.5215 23.3988C18.778 23.5518 19.0421 23.6915 19.3128 23.8175C19.3128 23.851 18.9276 24.9144 18.9276 24.9144H18.9444ZM19.9701 23.738L19.7524 24.8683C19.6142 24.8683 19.4677 24.8976 19.3337 24.906L19.564 23.8175C19.631 23.4951 18.7643 23.3988 18.3373 22.7583C18.1993 22.8733 18.0397 22.9596 17.8679 23.0121C17.696 23.0646 17.5154 23.0822 17.3367 23.0639C17.0203 23.0597 16.7049 23.0261 16.3947 22.9634C16.3404 22.959 16.2858 22.959 16.2314 22.9634C16.167 22.9588 16.1026 22.9725 16.0455 23.0028C15.9885 23.0332 15.9412 23.079 15.9091 23.1351L15.8463 23.2397L14.6531 22.9509L14.3684 23.4449C14.346 23.4779 14.3359 23.5178 14.3397 23.5575C14.3435 23.5972 14.3611 23.6344 14.3893 23.6626L14.4689 23.7505C14.3906 23.9048 14.289 24.046 14.1675 24.1692L13.9916 23.9515C13.9268 23.8444 13.8949 23.7205 13.9002 23.5954C13.9054 23.4703 13.9474 23.3495 14.0209 23.2481L14.4898 22.4569L15.4904 22.6076L15.3355 22.2517C15.1262 21.7828 15.4444 21.1841 15.4779 20.8408C15.4779 20.9455 15.369 20.9664 15.2602 20.9664C15.1513 20.9664 15.0466 20.9664 14.9713 20.9664C14.9494 20.9601 14.9262 20.9601 14.9043 20.9664L14.6322 21.1297L14.4186 20.9329C14.4029 20.9032 14.3972 20.8692 14.4025 20.8359C14.4078 20.8027 14.4237 20.7721 14.448 20.7487L14.942 20.1919L14.3558 19.5095L15.1932 19.9281L15.4444 19.6267C15.5113 19.6937 15.482 19.8695 15.482 19.8695C15.7773 19.9429 16.0387 20.1148 16.2229 20.3569C16.4072 20.599 16.5032 20.8967 16.4952 21.2009C16.4952 21.2302 16.4952 21.2595 16.4952 21.293V21.3223C16.5787 21.4551 16.711 21.5498 16.8636 21.586L17.9982 21.6991C18.2236 21.6298 18.4548 21.5808 18.689 21.5525C18.8913 21.5537 19.089 21.6133 19.2584 21.7242C19.3383 21.6679 19.4328 21.6359 19.5305 21.6321H19.5682C20.0747 21.6321 20.2883 22.0926 20.5604 22.4694C20.7655 22.7583 21.0418 23.1937 21.0418 23.1937C21.0035 23.2519 20.9513 23.2996 20.8899 23.3325C20.8285 23.3654 20.7598 23.3824 20.6902 23.3821C20.6414 23.387 20.5924 23.387 20.5436 23.3821C19.9994 23.2816 19.9198 22.1596 19.61 22.0717H19.5598C19.5304 22.0726 19.5018 22.0812 19.4769 22.0966C19.4519 22.112 19.4314 22.1338 19.4174 22.1596C19.5598 22.5406 19.4761 22.6955 19.631 22.9969C19.7451 23.1779 19.8863 23.3402 20.0496 23.4784C20.0496 23.4784 20.0287 23.6458 20.0036 23.7673L19.9701 23.738ZM13.8953 22.6704L13.9456 22.8002C13.9121 22.9132 13.5269 23.0765 13.5269 23.0765L13.4432 22.8923C13.3895 22.7646 13.3802 22.6227 13.4166 22.4892C13.453 22.3556 13.5331 22.2381 13.6441 22.1554L14.2763 21.7703L14.9503 21.9126C14.9467 22.0464 14.9879 22.1776 15.0676 22.2852L14.36 22.1512L13.9414 22.4443C13.9098 22.4717 13.8888 22.5093 13.8819 22.5506C13.875 22.5918 13.8827 22.6342 13.9037 22.6704H13.8953ZM20.0957 24.8097L20.2883 23.7966C20.2883 23.738 20.3092 23.6668 20.3176 23.6082C20.3741 23.6325 20.433 23.6507 20.4934 23.6626C20.5602 23.6688 20.6275 23.6688 20.6944 23.6626C20.8077 23.6628 20.9195 23.6368 21.0212 23.5867C21.1229 23.5366 21.2116 23.4637 21.2805 23.3737L21.4312 23.1979L21.3056 23.0262C21.3056 23.0262 21.0251 22.5825 20.8158 22.2894L20.6985 22.1136C20.4641 21.7619 20.1668 21.3181 19.5765 21.3181H19.5221C19.4363 21.3222 19.3517 21.3391 19.2709 21.3683C19.0906 21.2815 18.8933 21.2357 18.6932 21.2344C18.4914 21.2386 18.2919 21.2768 18.1029 21.3474L18.0024 21.3767L16.8971 21.2679C16.8519 21.2458 16.813 21.2127 16.7841 21.1716L17.0227 21.0753C16.9557 20.2756 16.1854 19.7858 15.7667 19.6225C15.7478 19.5365 15.7041 19.458 15.6411 19.3964L15.4025 19.1704L15.1932 19.4216L15.0885 19.5472L13.5395 18.9108L14.5484 20.1668L14.1507 20.7697C14.1302 20.7899 14.1139 20.814 14.1028 20.8406C14.0917 20.8672 14.086 20.8957 14.086 20.9246C14.086 20.9534 14.0917 20.9819 14.1028 21.0085C14.1139 21.0351 14.1302 21.0592 14.1507 21.0795L14.5694 21.3641L14.988 21.2051H15.0299C15.0299 21.2679 14.9838 21.5232 14.9629 21.5944L14.2344 21.4688L13.4557 21.8875C13.2811 22.0128 13.1558 22.1952 13.1015 22.4032C13.0472 22.6112 13.0674 22.8316 13.1585 23.0262L13.2464 23.2146L13.3678 23.4826L13.6399 23.3695C13.5897 23.5025 13.574 23.646 13.5945 23.7866C13.6151 23.9272 13.671 24.0603 13.7572 24.1734L13.9204 24.3827L14.1381 24.659L14.381 24.3994C14.5395 24.2424 14.666 24.0562 14.7536 23.851L14.8038 23.6835L14.6866 23.5537V23.5286L14.8206 23.3109L15.7877 23.537L16.0054 23.5872L16.1226 23.3946L16.1854 23.29C16.1854 23.2691 16.1854 23.2649 16.244 23.2649H16.3487C16.6783 23.3306 17.0132 23.3656 17.3493 23.3695C17.5755 23.3823 17.8022 23.3554 18.0191 23.29L18.555 23.9012L18.2368 24.8809V24.9395C18.0016 24.9356 17.7681 24.9813 17.5517 25.0736C17.3353 25.1659 17.1408 25.3028 16.9808 25.4754C16.4659 24.9646 16.1017 24.9102 14.7243 24.9102C13.0706 24.9102 11.9527 23.9431 11.9527 22.3982V18.6303H22.0006V22.3982C22.0222 22.9612 21.8423 23.5134 21.4931 23.9555C21.1439 24.3975 20.6483 24.7005 20.0957 24.8097ZM22.2727 12.5053C22.103 12.9135 22.008 13.3488 21.9922 13.7906V16.6124C21.8141 16.5745 21.6532 16.4797 21.5338 16.3422C21.4144 16.2047 21.3431 16.0321 21.3307 15.8504V15.7206H21.2051C20.9886 15.702 20.7863 15.6052 20.6357 15.4485C20.453 15.2363 20.3508 14.9665 20.3469 14.6865C20.2581 14.8304 20.215 14.9979 20.2232 15.1667C20.2315 15.3356 20.2906 15.4981 20.3929 15.6327C20.5558 15.8398 20.7932 15.9751 21.0544 16.0095C21.0914 16.2458 21.204 16.4637 21.3754 16.6305C21.5467 16.7973 21.7676 16.9041 22.0048 16.9347V18.3163H20.2464C20.0255 18.2037 19.8561 18.0108 19.7728 17.7773C19.6895 17.5438 19.6987 17.2873 19.7984 17.0603L19.8654 16.9096L19.7105 16.851C19.4682 16.7669 19.2681 16.5919 19.1525 16.363C19.0369 16.1341 19.0148 15.8692 19.0909 15.6243L19.1244 15.4987L19.0072 15.4443C18.7924 15.319 18.6196 15.1327 18.5108 14.9091C18.402 14.6855 18.362 14.4347 18.3959 14.1883C18.2832 14.3024 18.2089 14.4489 18.1833 14.6072C18.1578 14.7656 18.1824 14.928 18.2536 15.0717C18.1698 15.168 18.061 15.281 17.9396 15.4066C17.7261 15.3618 17.5338 15.2467 17.3934 15.0798C17.253 14.9128 17.1726 14.7036 17.1651 14.4856V14.3809L17.0688 14.3432C16.9434 14.3059 16.8269 14.2437 16.7261 14.1602C16.6254 14.0768 16.5426 13.9738 16.4826 13.8576C16.4019 13.664 16.3872 13.4491 16.4408 13.2463C16.5235 13.2648 16.6075 13.2774 16.692 13.284C16.777 13.2884 16.8623 13.2884 16.9474 13.284C17.2824 13.283 17.6135 13.2117 17.9193 13.0746C18.2251 12.9376 18.4987 12.738 18.7225 12.4886L22.2727 12.5053ZM19.5598 9.65005L20.2464 10.0687L20.418 10.1692C20.0619 10.2663 19.7391 10.4588 19.4844 10.726L19.4551 10.7511C19.3965 10.8139 19.3421 10.8767 19.2877 10.9437L19.2542 10.9856C19.2011 11.0526 19.1509 11.1237 19.1035 11.1991L19.0783 11.2368C19.0197 11.3205 18.9653 11.4126 18.9109 11.5047C18.7237 11.8767 18.4456 12.1954 18.1023 12.431C17.759 12.6667 17.3617 12.8118 16.9474 12.8528C16.533 12.8118 16.1357 12.6667 15.7924 12.431C15.4491 12.1954 15.171 11.8767 14.9838 11.5047C14.9294 11.4126 14.875 11.3247 14.8206 11.2368L14.7871 11.1907L14.6531 10.973L14.6154 10.927C14.561 10.86 14.5066 10.7972 14.4521 10.7386L14.4228 10.7093C14.1682 10.4421 13.8453 10.2495 13.4892 10.1524L13.6651 10.052L14.3558 9.6333L15.0634 9.21464L16.9515 10.2404L18.8397 9.24813L19.5598 9.65005ZM18.6304 8.81273L17.1274 9.60399V6.3845L19.1662 5.69371L18.6304 8.81273ZM16.9557 6.04539L14.7201 5.14945C14.9085 4.6973 15.7877 4.31213 16.9557 4.31213C18.1238 4.31213 19.003 4.6973 19.1914 5.14945L16.9557 6.04539Z" fill="#222220"/>
</svg>
