<svg fill="none" height="34" viewBox="0 0 34 34" width="34" xmlns="http://www.w3.org/2000/svg"><path d="m0 34 2.924-8.7714c-1.48369-2.4955-2.337793-5.4078-2.337793-8.5217 0-9.2269 7.480003-16.7069 16.706893-16.7069 9.2269 0 16.7069 7.48 16.7069 16.7069s-7.48 16.7069-16.7069 16.7069c-2.8073 0-5.4511-.6958-7.7731-1.9187z" fill="#2cb742"/><path d="m27.9517 22.2671c-.7714-1.4579-3.6163-3.1251-3.6163-3.1251-.6437-.367-1.4204-.408-1.7873.2462 0 0-.9245 1.1085-1.1596 1.268-1.0739.7275-2.0687.6993-3.0729-.3049l-2.3336-2.3336-2.3337-2.3337c-1.0042-1.0042-1.0323-1.999-.3049-3.0729.1595-.2351 1.268-1.1596 1.268-1.1596.6542-.3675.6132-1.1436.2462-1.7873 0 0-1.6672-2.84486-3.1251-3.61631-.6202-.32828-1.3816-.21338-1.87758.28255l-1.03055 1.03055c-3.26928 3.26931-1.65955 6.96001 1.60973 10.22931l2.9879 2.9879 2.9879 2.9879c3.2693 3.2693 6.96 4.879 10.2293 1.6097l1.0305-1.0305c.496-.4971.6103-1.2586.282-1.8782z" fill="#fff"/></svg>