<svg width="135" height="99" viewBox="0 0 135 99" fill="none" xmlns="http://www.w3.org/2000/svg">
<path d="M99.3632 48.403C98.5133 48.2618 97.6503 48.2209 96.7941 48.2846L95.9373 46.4802C95.6569 45.8909 94.9983 45.6177 94.4043 45.8337L91.6401 46.8562C91.0442 47.0767 90.7049 47.7226 90.8479 48.3627L91.2807 50.3082C90.5431 50.837 89.8738 51.4562 89.283 52.1529L87.4314 51.5018C86.8311 51.291 86.1769 51.5792 85.9072 52.1685L84.649 54.9192C84.3793 55.5092 84.5781 56.2163 85.115 56.5656L86.7151 57.6011C86.5363 58.5742 86.4818 59.5635 86.5476 60.5496L84.8779 61.4043C84.3097 61.695 84.0462 62.378 84.2545 62.994L85.2398 65.8606C85.4525 66.4785 86.0753 66.8304 86.6925 66.6827L88.4814 66.2586C89.0164 67.0639 89.6449 67.7963 90.3612 68.4305L89.7929 70.1601C89.5897 70.7826 89.8676 71.461 90.4358 71.7407L93.0884 73.0455C93.6573 73.3252 94.3391 73.119 94.6759 72.5622L95.5979 71.0349C96.5125 71.2138 97.4414 71.2646 98.364 71.1989L99.1217 72.7905C99.4021 73.3798 100.061 73.653 100.655 73.4371L103.413 72.4172C104.009 72.1967 104.348 71.5508 104.205 70.9107L103.831 69.2306C104.642 68.6588 105.372 67.9791 106.01 67.2038L107.618 67.769C108.218 67.9798 108.873 67.6916 109.142 67.1023L110.401 64.3515C110.67 63.7615 110.472 63.0545 109.935 62.7052L108.495 61.7712C108.677 60.7428 108.72 59.6975 108.624 58.6568L110.172 57.8665C110.741 57.5757 111.004 56.8927 110.796 56.2767L109.81 53.4102C109.598 52.7923 108.975 52.4404 108.358 52.588L106.58 53.0115C106.036 52.2251 105.398 51.5154 104.677 50.9014L105.266 49.1139C105.469 48.4914 105.191 47.813 104.623 47.5333L101.971 46.2285C101.402 45.9488 100.72 46.155 100.383 46.7118L99.3632 48.403ZM101.98 61.8986C100.833 64.4048 97.9319 65.4781 95.5152 64.2891C93.0984 63.1 92.0635 60.091 93.2101 57.5842C94.3567 55.078 97.2582 54.0047 99.6756 55.1937C102.093 56.3828 103.127 59.3924 101.98 61.8986Z" fill="white" stroke="#D7D7D7" stroke-width="2.5" stroke-miterlimit="10" stroke-linecap="round" stroke-linejoin="round"/>
<path d="M79.3045 92.4421L81.3988 91.4907C82.0442 91.1983 82.3658 90.4674 82.1474 89.7957L81.7417 88.529C82.4512 87.9576 83.076 87.2908 83.6076 86.5486L84.9347 86.8753C85.6193 87.0461 86.328 86.6718 86.5785 86.0128L87.3848 83.8574C87.6303 83.1963 87.3477 82.4505 86.7173 82.1267L85.5068 81.5034C85.5972 80.5705 85.5602 79.6333 85.3916 78.7132L86.5842 77.9945C87.1905 77.6273 87.4267 76.8687 87.1343 76.224L86.1722 74.1255C85.879 73.4801 85.1489 73.1584 84.4771 73.3769L83.0639 73.8302C82.4989 73.1734 81.8556 72.5898 81.1461 72.0932L81.5005 70.6557C81.6713 69.9712 81.297 69.2624 80.6381 69.0119L78.4826 68.2057C77.8215 67.9602 77.0758 68.2427 76.752 68.8731L76.0347 70.2679C75.237 70.2046 74.4371 70.2387 73.6437 70.3625L72.8247 69.0048C72.4575 68.3985 71.6989 68.1623 71.0542 68.4547L68.9599 69.4061C68.3145 69.6993 67.9929 70.4294 68.2113 71.1012L68.6917 72.6012C68.0512 73.1314 67.4748 73.7341 66.9845 74.403L65.4268 74.0166C64.7423 73.8458 64.0335 74.2201 63.783 74.8791L62.9768 77.0345C62.7313 77.6956 63.0131 78.4414 63.6443 78.7651L65.0141 79.4703C64.9223 80.3534 64.9458 81.2408 65.0817 82.1139L63.783 82.8996C63.1767 83.2667 62.9405 84.0253 63.233 84.67L64.1844 86.7643C64.4776 87.4097 65.2077 87.7313 65.8794 87.5129L67.2948 87.0539C67.8506 87.7313 68.4896 88.3369 69.1983 88.8464L68.8575 90.2283C68.6867 90.9129 69.061 91.6217 69.7199 91.8721L71.8754 92.6784C72.5365 92.9239 73.2822 92.6414 73.606 92.0109L74.2464 90.7649C75.1068 90.8517 75.9699 90.8289 76.8232 90.6966L77.534 91.8793C77.8955 92.4962 78.6591 92.7353 79.3045 92.4421ZM71.0314 78.9537C71.9017 76.6246 74.5069 75.4405 76.8338 76.3151C79.1629 77.1854 80.347 79.7906 79.4724 82.1175C78.6022 84.4466 75.997 85.6307 73.67 84.7554C71.341 83.8858 70.1561 81.2799 71.0314 78.9537Z" fill="white" stroke="#D7D7D7" stroke-width="2.5" stroke-miterlimit="10" stroke-linecap="round" stroke-linejoin="round"/>
<path d="M75.2645 50.2911C75.4654 49.7249 75.2075 49.094 74.6639 48.8314L73.5828 48.3046C73.041 48.0378 72.3851 48.2211 72.06 48.7286L71.5776 49.4769C71.0286 49.3801 70.4753 49.3492 69.9207 49.3861L69.5288 48.5701C69.2667 48.0263 68.6442 47.7632 68.0715 47.9598L66.9327 48.3505C66.3606 48.5465 66.0281 49.1351 66.1574 49.7261L66.3479 50.5984C65.8674 50.922 65.4306 51.2983 65.0477 51.726L64.182 51.4217C63.6141 51.2215 62.9813 51.4786 62.718 52.0206L62.1896 53.0985C61.922 53.6387 62.1058 54.2926 62.6149 54.6169L63.3502 55.0851C63.2264 55.6882 63.1839 56.2979 63.2179 56.9119L62.4468 57.2821C61.9014 57.5434 61.6375 58.1647 61.8346 58.7351L62.2266 59.8705C62.4238 60.4416 63.0135 60.7731 63.6062 60.6436L64.4216 60.4676C64.7595 60.9739 65.1587 61.4306 65.6156 61.8305L65.3505 62.5763C65.1496 63.1425 65.4075 63.7735 65.9511 64.036L67.0322 64.5629C67.574 64.8296 68.2299 64.6463 68.5551 64.1388L68.9755 63.4873C69.5628 63.6023 70.164 63.6452 70.7586 63.6119L71.0856 64.2967C71.3477 64.8405 71.9702 65.1037 72.5429 64.9071L73.6817 64.5163C74.2544 64.3197 74.5869 63.7317 74.457 63.1407L74.3041 62.433C74.8332 62.0845 75.3094 61.6696 75.725 61.1947L76.4324 61.4451C77.0003 61.6454 77.6331 61.3883 77.8964 60.8463L78.4248 59.7683C78.6924 59.2281 78.5086 58.5742 77.9995 58.25L77.3698 57.8471C77.4929 57.2125 77.5281 56.5629 77.4766 55.9186L78.1694 55.5902C78.7148 55.3288 78.9787 54.7076 78.7816 54.1372L78.3878 52.9957C78.1906 52.4246 77.6009 52.0931 77.0082 52.2226L76.1976 52.4017C75.8512 51.9123 75.4484 51.4646 74.9848 51.0775L75.2645 50.2911ZM73.1648 57.8695C72.4076 59.4169 70.5292 60.0556 68.9773 59.3007C67.4254 58.5458 66.7847 56.673 67.5419 55.1256C68.299 53.5782 70.1774 52.9394 71.7293 53.6944C73.2806 54.4493 73.9219 56.3221 73.1648 57.8695Z" fill="white" stroke="#D7D7D7" stroke-width="2.5" stroke-miterlimit="10" stroke-linecap="round" stroke-linejoin="round"/>
<path d="M72.0426 66.3412L69.0039 69.0294" stroke="#D7D7D7" stroke-width="2.5" stroke-miterlimit="10" stroke-linecap="round" stroke-linejoin="round"/>
<path d="M60.5492 88.4034H51.5781V92.71H60.5492V88.4034Z" stroke="#D7D7D7" stroke-width="2.5" stroke-miterlimit="10" stroke-linecap="round" stroke-linejoin="round"/>
<path d="M86.2015 97.1238C85.5611 97.1238 77.9238 97.1238 77.9238 97.1238" stroke="#D7D7D7" stroke-width="2.5" stroke-miterlimit="10" stroke-linecap="round" stroke-linejoin="round"/>
<path d="M35.633 57.4359L31.7852 60.8392" stroke="black" stroke-width="2.5" stroke-miterlimit="10" stroke-linecap="round" stroke-linejoin="round"/>
<path d="M58.2148 57.9389L62.0627 61.3422" stroke="black" stroke-width="2.5" stroke-miterlimit="10" stroke-linecap="round" stroke-linejoin="round"/>
<path d="M36.2344 72.7995C39.8983 76.469 47.356 80.6198 57.1222 73.3837L36.2344 72.7995Z" fill="white"/>
<path d="M36.2344 72.7995C39.8983 76.469 47.356 80.6198 57.1222 73.3837" stroke="black" stroke-width="2.5" stroke-miterlimit="10" stroke-linecap="round" stroke-linejoin="round"/>
<path d="M31.6152 59.6406C31.6152 59.6406 2.97659 75.9519 2.30049 77.5746C1.62439 79.1973 2.30049 96.9117 2.30049 96.9117H44.3541" fill="white"/>
<path d="M31.6152 59.6406C31.6152 59.6406 2.97659 75.9519 2.30049 77.5746C1.62439 79.1973 2.30049 96.9117 2.30049 96.9117H44.3541" stroke="black" stroke-width="2.5" stroke-miterlimit="10" stroke-linecap="round" stroke-linejoin="round"/>
<path d="M39.2147 96.8447L44.353 96.9117L41.6486 85.9585C41.6486 85.9585 32.1551 66.2536 31.6142 59.6406L22.6777 64.7932L27.576 70.5429L23.316 79.4007C23.316 79.4007 39.2125 90.8926 39.2125 96.1837" fill="white"/>
<path d="M39.2147 96.8447L44.353 96.9117L41.6486 85.9585C41.6486 85.9585 32.1551 66.2536 31.6142 59.6406L22.6777 64.7932L27.576 70.5429L23.316 79.4007C23.316 79.4007 39.2125 90.8926 39.2125 96.1837" stroke="black" stroke-width="2.5" stroke-miterlimit="10" stroke-linecap="round" stroke-linejoin="round"/>
<path d="M62.0403 59.6406C62.0403 59.6406 90.6789 75.9519 91.355 77.5746C92.0311 79.1973 91.355 96.9117 91.355 96.9117H50.2285" fill="white"/>
<path d="M62.0403 59.6406C62.0403 59.6406 90.6789 75.9519 91.355 77.5746C92.0311 79.1973 91.355 96.9117 91.355 96.9117H50.2285" stroke="black" stroke-width="2.5" stroke-miterlimit="10" stroke-linecap="round" stroke-linejoin="round"/>
<path d="M54.4392 96.8447L49.3008 96.9117L52.0052 85.9585C52.0052 85.9585 61.4988 66.2536 62.0396 59.6406L70.9761 64.7932L66.0779 70.5429L70.3379 79.4007C70.3379 79.4007 54.4413 90.8926 54.4413 96.1837" fill="white"/>
<path d="M54.4392 96.8447L49.3008 96.9117L52.0052 85.9585C52.0052 85.9585 61.4988 66.2536 62.0396 59.6406L70.9761 64.7932L66.0779 70.5429L70.3379 79.4007C70.3379 79.4007 54.4413 90.8926 54.4413 96.1837" stroke="black" stroke-width="2.5" stroke-miterlimit="10" stroke-linecap="round" stroke-linejoin="round"/>
<path d="M84.1241 85.8709H72.7656V91.3232H84.1241V85.8709Z" stroke="#D7D7D7" stroke-width="2.5" stroke-miterlimit="10" stroke-linecap="round" stroke-linejoin="round"/>
<path d="M40.291 96.9117C41.1023 96.9117 50.7701 96.9117 50.7701 96.9117" stroke="black" stroke-width="2.5" stroke-miterlimit="10" stroke-linecap="round" stroke-linejoin="round"/>
<path d="M46.4095 21.769C53.6292 21.769 57.3331 18.7551 58.7578 17.5673C60.1825 16.3795 59.4231 16.1977 62.0821 18.9368C64.7411 21.676 60.8467 26.7918 60.8467 26.7918C60.8467 26.7918 63.6019 31.45 63.5068 35.1952C63.5068 35.1952 64.2521 31.5874 65.3447 29.0755C66.196 27.1185 67.4249 26.4964 67.5915 24.4172C67.9712 19.6681 69.5084 10.369 60.732 5.6924C48.2193 -0.974723 35.5529 3.36869 34.4051 3.63806L32.7836 5.23696C23.9499 9.80431 25.2956 19.6681 25.6753 24.4183C25.8397 26.4683 27.3791 27.549 28.2174 29.4876C29.3208 32.0407 29.76 35.1963 29.76 35.1963C29.6648 31.4511 32.4201 26.7929 32.4201 26.7929C32.4201 26.7929 28.5257 21.6781 31.1847 18.9379C33.8437 16.1977 33.0843 16.3806 34.509 17.5684C35.9337 18.7562 39.6376 21.7701 46.8573 21.7701" stroke="black" stroke-width="2.5" stroke-miterlimit="10" stroke-linecap="round" stroke-linejoin="round"/>
<path d="M27.9871 30.7198C25.6581 29.8068 23.7856 31.7702 24.7451 35.1498C25.7046 38.5293 28.0791 44.6036 29.0375 42.5936" stroke="black" stroke-width="2.5" stroke-miterlimit="10" stroke-linecap="round" stroke-linejoin="round"/>
<path d="M64.7047 30.7198C67.0337 29.8068 68.9063 31.7702 67.9467 35.1498C66.9872 38.5293 64.6127 44.6036 63.6543 42.5936" stroke="black" stroke-width="2.5" stroke-miterlimit="10" stroke-linecap="round" stroke-linejoin="round"/>
<path d="M29.0371 41.1342C29.2654 44.7648 29.539 49.4922 29.539 49.4922C29.539 49.4922 37.0627 60.7245 41.3162 62.2325C41.3162 62.2325 47.9128 63.7406 52.1652 62.2325C56.4176 60.7245 63.9424 49.4922 63.9424 49.4922C63.9424 49.4922 64.2161 46.5692 64.4443 42.9387" stroke="black" stroke-width="2.5" stroke-miterlimit="10" stroke-linecap="round" stroke-linejoin="round"/>
<path d="M132.746 40.5304C132.746 41.9505 132.122 43.3124 131.01 44.3165C129.898 45.3207 128.389 45.8848 126.817 45.8848H91.2393L75.6445 52.6978L79.3802 44.1592V13.7583C79.3802 12.3383 80.0049 10.9763 81.1169 9.9722C82.2289 8.96805 83.7371 8.40393 85.3097 8.40393H126.817C128.389 8.40393 129.898 8.96805 131.01 9.9722C132.122 10.9763 132.746 12.3383 132.746 13.7583V40.5304Z" fill="white" stroke="#FC8E28" stroke-width="3" stroke-linecap="round" stroke-linejoin="round"/>
<ellipse rx="3.06626" ry="3.11326" transform="matrix(1 0 0 -1 93.8827 28.6311)" fill="#FC8E28"/>
<ellipse rx="3.06626" ry="3.11326" transform="matrix(1 0 0 -1 106.308 28.631)" fill="#FC8E28"/>
<ellipse rx="3.06626" ry="3.11326" transform="matrix(1 0 0 -1 118.732 28.631)" fill="#FC8E28"/>
</svg>
