<svg width="135" height="108" viewBox="0 0 135 108" fill="none" xmlns="http://www.w3.org/2000/svg">
<path d="M77.4422 57.6262C80.4889 55.1511 84.9863 55.6169 87.4614 58.6645C89.9365 61.7112 89.4708 66.2086 86.4231 68.6837C83.3764 71.1588 78.8791 70.693 76.404 67.6454C73.9298 64.5987 74.3955 60.1014 77.4422 57.6262Z" fill="white" stroke="#D7D7D7" stroke-width="2.5" stroke-miterlimit="10" stroke-linecap="round" stroke-linejoin="round"/>
<path d="M118.518 40.6447L115.543 40.5876C114.626 40.5692 113.844 41.243 113.724 42.1487L113.492 43.8534C112.346 44.124 111.244 44.5539 110.21 45.1246L108.844 44.0035C108.14 43.4227 107.104 43.4641 106.445 44.0937L104.302 46.1592C103.646 46.7943 103.56 47.8215 104.116 48.5505L105.181 49.9533C104.555 50.9916 104.075 52.1062 103.76 53.2743L101.967 53.4473C101.054 53.5375 100.356 54.2914 100.337 55.2073L100.289 58.1932C100.271 59.11 100.945 59.8924 101.851 60.012L103.752 60.2707C104.045 61.3531 104.471 62.3923 105.021 63.3671L103.806 64.8472C103.226 65.5513 103.267 66.5869 103.897 67.2468L105.962 69.3896C106.597 70.045 107.625 70.1315 108.354 69.5756L109.968 68.3477C110.864 68.8659 111.816 69.2727 112.811 69.571L113.01 71.6125C113.1 72.5247 113.854 73.2233 114.77 73.2418L117.745 73.2988C118.662 73.3172 119.444 72.6435 119.564 71.7377L119.84 69.7192C120.883 69.4578 121.892 69.0748 122.837 68.5677L124.439 69.8876C125.144 70.4684 126.179 70.427 126.839 69.7974L128.982 67.7319C129.637 67.0968 129.724 66.0696 129.168 65.3406L127.963 63.7537C128.562 62.7743 129.03 61.725 129.358 60.6306L131.312 60.4382C132.225 60.348 132.923 59.5941 132.942 58.6783L132.999 55.7034C133.017 54.7866 132.343 54.0042 131.438 53.8846L129.53 53.6305C129.259 52.5306 128.851 51.4674 128.307 50.477L129.475 49.054C130.056 48.3499 130.015 47.3143 129.385 46.6544L127.32 44.5116C126.684 43.8562 125.657 43.7697 124.928 44.3256L123.486 45.4228C122.53 44.842 121.511 44.3873 120.441 44.0661L120.271 42.2887C120.192 41.3673 119.434 40.6631 118.518 40.6447ZM120.651 61.0006C118.337 63.2336 114.635 63.1628 112.408 60.8441C110.175 58.5301 110.246 54.828 112.565 52.6014C114.879 50.3684 118.581 50.4393 120.807 52.7579C123.04 55.0719 122.969 58.774 120.651 61.0006Z" fill="white" stroke="#D7D7D7" stroke-width="2.5" stroke-miterlimit="10" stroke-linecap="round" stroke-linejoin="round"/>
<path d="M97.2384 90.2988C96.5913 90.9449 96.5305 91.9795 97.103 92.6956L98.237 94.126C98.804 94.8468 99.8212 95.0235 100.6 94.5402L101.75 93.8287C102.438 94.3203 103.176 94.7253 103.96 95.0373L103.96 96.4125C103.962 97.3311 104.643 98.0987 105.555 98.2037L107.37 98.4126C108.282 98.5175 109.123 97.9275 109.334 97.031L109.645 95.7092C110.515 95.5785 111.36 95.3484 112.164 95.0106L113.15 95.9955C113.796 96.6426 114.831 96.7033 115.547 96.1308L116.978 94.9968C117.698 94.4298 117.875 93.4127 117.392 92.634L116.692 91.5101C117.257 90.7627 117.716 89.9536 118.072 89.0884L119.37 89.0847C120.288 89.0829 121.056 88.4026 121.161 87.4905L121.37 85.6753C121.475 84.7632 120.885 83.9219 119.988 83.7111L118.757 83.4193C118.626 82.5025 118.379 81.6152 118.016 80.7675L118.868 79.917C119.515 79.2708 119.576 78.2362 119.003 77.5201L117.869 76.0897C117.303 75.369 116.285 75.1923 115.507 75.6755L114.503 76.295C113.774 75.7528 112.98 75.3009 112.143 74.9575L112.145 73.8033C112.143 72.8847 111.463 72.117 110.551 72.0121L108.736 71.8031C107.824 71.6982 106.982 72.2882 106.772 73.1847L106.517 74.2561C105.564 74.3887 104.64 74.6464 103.759 75.0275L102.955 74.2212C102.309 73.5741 101.275 73.5133 100.558 74.0859L99.1281 75.2199C98.4073 75.7869 98.2306 76.804 98.7138 77.5827L99.3112 78.5473C98.7267 79.338 98.2518 80.2069 97.9002 81.1246L96.7358 81.1218C95.8172 81.1237 95.0495 81.8039 94.9446 82.7161L94.7347 84.5413C94.6298 85.4535 95.2198 86.2948 96.1163 86.5056L97.3433 86.7918C97.4961 87.6902 97.7538 88.5683 98.1349 89.4032L97.2384 90.2988ZM105.084 81.2673C107.136 79.6381 110.126 79.9888 111.755 82.0404C113.384 84.0921 113.033 87.0818 110.982 88.711C108.93 90.3402 105.94 89.9895 104.311 87.9378C102.682 85.887 103.033 82.8965 105.084 81.2673Z" fill="white" stroke="#D7D7D7" stroke-width="2.5" stroke-miterlimit="10" stroke-linecap="round" stroke-linejoin="round"/>
<path d="M50.5826 7.49364C49.3354 7.2939 48.0688 7.23591 46.8124 7.32611L45.555 4.77277C45.1436 3.93883 44.1771 3.55224 43.3055 3.85783L39.249 5.30479C38.3746 5.61683 37.8766 6.53084 38.0865 7.43657L38.7216 10.1897C37.6391 10.938 36.657 11.8143 35.7899 12.8001L33.0727 11.8787C32.1919 11.5805 31.2318 11.9882 30.836 12.8222L28.9896 16.7148C28.5938 17.5496 28.8856 18.5502 29.6735 19.0444L32.0216 20.5098C31.7592 21.8868 31.6792 23.2868 31.7758 24.6822L29.3256 25.8917C28.4916 26.3032 28.105 27.2696 28.4106 28.1413L29.8567 32.1978C30.1687 33.0722 31.0827 33.5702 31.9884 33.3612L34.6136 32.7611C35.3987 33.9006 36.321 34.937 37.3722 35.8345L36.5383 38.282C36.24 39.1629 36.6478 40.1229 37.4817 40.5187L41.3743 42.3651C42.2092 42.7609 43.2097 42.4691 43.704 41.6812L45.0571 39.52C46.3991 39.7731 47.7623 39.8449 49.1163 39.7519L50.2282 42.0043C50.6396 42.8382 51.6061 43.2248 52.4778 42.9192L56.525 41.476C57.3995 41.1639 57.8974 40.2499 57.6885 39.3442L57.139 36.9666C58.3291 36.1576 59.4005 35.1957 60.3367 34.0985L62.6967 34.8984C63.5776 35.1966 64.5376 34.7888 64.9334 33.9549L66.7798 30.0623C67.1756 29.2274 66.8839 28.2269 66.096 27.7326L63.9835 26.4109C64.2504 24.9556 64.313 23.4764 64.1731 22.0037L66.4448 20.8854C67.2787 20.4739 67.6653 19.5074 67.3597 18.6358L65.9137 14.5793C65.6017 13.7049 64.6877 13.2069 63.7819 13.4159L61.1734 14.0151C60.3753 12.9022 59.4383 11.898 58.3807 11.0291L59.245 8.49969C59.5432 7.61882 59.1355 6.65878 58.3015 6.26299L54.4089 4.41655C53.5741 4.02075 52.5735 4.31254 52.0792 5.10045L50.5826 7.49364ZM54.4227 26.5913C52.7401 30.1378 48.4821 31.6565 44.9356 29.9739C41.3891 28.2913 39.8703 24.0333 41.5529 20.4859C43.2355 16.9394 47.4935 15.4206 51.041 17.1032C54.5884 18.7858 56.1053 23.0447 54.4227 26.5913Z" fill="white" stroke="#D7D7D7" stroke-width="2.5" stroke-miterlimit="10" stroke-linecap="round" stroke-linejoin="round"/>
<path d="M24.6811 59.6218L27.39 58.3912C28.2249 58.0129 28.6409 57.0675 28.3583 56.1986L27.8337 54.5602C28.7514 53.8211 29.5595 52.9586 30.2471 51.9986L31.9638 52.4211C32.8492 52.642 33.766 52.1578 34.09 51.3055L35.1329 48.5174C35.4505 47.6623 35.085 46.6977 34.2695 46.2789L32.7038 45.4726C32.8207 44.2658 32.7728 43.0536 32.5547 41.8635L34.0974 40.9338C34.8816 40.4588 35.1872 39.4776 34.8089 38.6437L33.5644 35.9293C33.1852 35.0944 32.2408 34.6784 31.3719 34.9609L29.5439 35.5473C28.813 34.6977 27.9809 33.9429 27.0633 33.3004L27.5216 31.4411C27.7425 30.5556 27.2584 29.6389 26.406 29.3149L23.618 28.272C22.7629 27.9544 21.7982 28.3199 21.3794 29.1354L20.4516 30.9395C19.4198 30.8576 18.3852 30.9017 17.3589 31.0619L16.2994 29.3057C15.8245 28.5214 14.8433 28.2158 14.0093 28.5942L11.3004 29.8248C10.4656 30.204 10.0495 31.1484 10.3321 32.0173L10.9534 33.9577C10.125 34.6434 9.37945 35.423 8.74525 36.2882L6.73037 35.7884C5.84489 35.5675 4.92812 36.0517 4.60412 36.904L3.56124 39.6921C3.24369 40.5472 3.60819 41.5118 4.42463 41.9306L6.19651 42.8428C6.07777 43.9851 6.10814 45.1329 6.28395 46.2623L4.60412 47.2785C3.81989 47.7535 3.5143 48.7347 3.89261 49.5686L5.12326 52.2775C5.50248 53.1124 6.44687 53.5284 7.31578 53.2458L9.14657 52.6521C9.86545 53.5284 10.692 54.3117 11.6088 54.9708L11.1679 56.7583C10.947 57.6438 11.4311 58.5605 12.2835 58.8845L15.0715 59.9274C15.9267 60.245 16.8913 59.8795 17.3101 59.064L18.1385 57.4523C19.2513 57.5646 20.3679 57.5351 21.4715 57.3639L22.391 58.8937C22.8586 59.6918 23.8463 60.001 24.6811 59.6218ZM13.9799 42.1746C15.1056 39.1619 18.4754 37.6303 21.4853 38.7615C24.4979 39.8872 26.0296 43.257 24.8983 46.2669C23.7726 49.2796 20.4028 50.8112 17.3929 49.679C14.3803 48.5542 12.8477 45.1835 13.9799 42.1746Z" fill="white" stroke="#D7D7D7" stroke-width="2.5" stroke-miterlimit="10" stroke-linecap="round" stroke-linejoin="round"/>
<path d="M22.474 5.64623C22.7787 4.78468 22.3875 3.82464 21.5628 3.42517L19.9225 2.62345C19.1005 2.21753 18.1055 2.49643 17.6122 3.26869L16.8804 4.40729C16.0474 4.26002 15.2079 4.21308 14.3666 4.26922L13.772 3.02753C13.3744 2.20004 12.43 1.79964 11.5611 2.09879L9.83338 2.6934C8.96539 2.99163 8.46098 3.88724 8.65704 4.78652L8.94606 6.11382C8.21706 6.60626 7.55433 7.17879 6.97352 7.82955L5.66003 7.36656C4.79849 7.06189 3.83845 7.45308 3.43897 8.27781L2.63726 9.91807C2.23133 10.74 2.51023 11.735 3.2825 12.2284L4.39809 12.9408C4.21032 13.8585 4.14588 14.7864 4.19743 15.7206L3.02753 16.2839C2.20004 16.6816 1.79964 17.6269 2.09879 18.4949L2.6934 20.2226C2.99255 21.0915 3.88724 21.5959 4.78652 21.3989L6.02361 21.1311C6.53631 21.9015 7.14197 22.5964 7.83507 23.2049L7.43283 24.3398C7.12816 25.2013 7.51935 26.1614 8.34408 26.5608L9.98434 27.3626C10.8063 27.7685 11.8013 27.4896 12.2947 26.7173L12.9326 25.726C13.8236 25.9009 14.7357 25.9662 15.6378 25.9156L16.1339 26.9576C16.5315 27.785 17.4759 28.1854 18.3448 27.8863L20.0725 27.2917C20.9415 26.9925 21.4459 26.0978 21.2489 25.1986L21.0169 24.1216C21.8196 23.5914 22.5421 22.96 23.1726 22.2375L24.2459 22.6185C25.1074 22.9232 26.0675 22.532 26.4669 21.7073L27.2687 20.067C27.6746 19.245 27.3957 18.25 26.6234 17.7567L25.668 17.1436C25.8548 16.1781 25.9082 15.1895 25.83 14.2092L26.8812 13.7094C27.7086 13.3118 28.109 12.3665 27.8099 11.4985L27.2125 9.76159C26.9134 8.89268 26.0187 8.38827 25.1194 8.58524L23.8897 8.8577C23.3641 8.11305 22.7529 7.43191 22.0497 6.84282L22.474 5.64623ZM19.2883 17.1777C18.1396 19.5322 15.2898 20.5042 12.9353 19.3555C10.5808 18.2068 9.60879 15.357 10.7575 13.0025C11.9062 10.648 14.756 9.67598 17.1105 10.8247C19.4641 11.9734 20.437 14.8232 19.2883 17.1777Z" fill="white" stroke="#D7D7D7" stroke-width="2.5" stroke-miterlimit="10" stroke-linecap="round" stroke-linejoin="round"/>
<path d="M114.815 82.0395C114.815 84.5708 112.744 86.6418 110.212 86.6418H27.1863C24.655 86.6418 22.584 84.5708 22.584 82.0395V22.659C22.584 20.1278 24.655 18.0568 27.1863 18.0568H110.212C112.744 18.0568 114.815 20.1278 114.815 22.659V82.0395Z" fill="white"/>
<path d="M114.815 82.0395C114.815 84.5708 112.744 86.6418 110.212 86.6418H27.1863C24.655 86.6418 22.584 84.5708 22.584 82.0395V22.659C22.584 20.1278 24.655 18.0568 27.1863 18.0568H110.212C112.744 18.0568 114.815 20.1278 114.815 22.659V82.0395Z" stroke="black" stroke-width="3" stroke-miterlimit="10" stroke-linecap="round" stroke-linejoin="round"/>
<path d="M114.815 74.0757H22.584" stroke="black" stroke-width="3" stroke-miterlimit="10" stroke-linecap="round" stroke-linejoin="round"/>
<path d="M59.0048 87.4085C59.0048 87.4085 58.0844 99.2207 50.7207 99.2207L59.0048 87.4085Z" fill="white"/>
<path d="M59.0048 87.4085C59.0048 87.4085 58.0844 99.2207 50.7207 99.2207" stroke="black" stroke-width="3" stroke-miterlimit="10" stroke-linecap="round" stroke-linejoin="round"/>
<path d="M78.3945 87.4085C78.3945 87.4085 79.315 99.2207 86.6786 99.2207L78.3945 87.4085Z" fill="white"/>
<path d="M78.3945 87.4085C78.3945 87.4085 79.315 99.2207 86.6786 99.2207" stroke="black" stroke-width="3" stroke-miterlimit="10" stroke-linecap="round" stroke-linejoin="round"/>
<path d="M89.6204 102.915C89.6204 104.433 88.3778 105.676 86.859 105.676H50.5387C49.02 105.676 47.7773 104.433 47.7773 102.915V101.983C47.7773 100.464 49.02 99.2217 50.5387 99.2217H86.8581C88.3768 99.2217 89.6194 100.464 89.6194 101.983V102.915H89.6204Z" fill="white"/>
<path d="M89.6204 102.915C89.6204 104.433 88.3777 105.676 86.859 105.676H50.5387C49.02 105.676 47.7773 104.433 47.7773 102.915V101.983C47.7773 100.464 49.02 99.2217 50.5387 99.2217H86.8581C88.3768 99.2217 89.6194 100.464 89.6194 101.983V102.915H89.6204Z" stroke="black" stroke-width="3" stroke-miterlimit="10" stroke-linecap="round" stroke-linejoin="round"/>
<path d="M67.6699 80.1222H69.7271" stroke="black" stroke-width="2.5" stroke-miterlimit="10" stroke-linecap="round" stroke-linejoin="round"/>
<path d="M29.7422 28.4846L33.69 24.5377" stroke="#D7D7D7" stroke-width="2.5" stroke-miterlimit="10" stroke-linecap="round" stroke-linejoin="round"/>
<path d="M29.7422 34.5817L39.7135 24.8948" stroke="#D7D7D7" stroke-width="2.5" stroke-miterlimit="10" stroke-linecap="round" stroke-linejoin="round"/>
<path d="M108.892 65.2946L104.945 69.2424" stroke="#D7D7D7" stroke-width="2.5" stroke-miterlimit="10" stroke-linecap="round" stroke-linejoin="round"/>
<path d="M108.893 59.1974L98.9219 68.8853" stroke="#D7D7D7" stroke-width="2.5" stroke-miterlimit="10" stroke-linecap="round" stroke-linejoin="round"/>
<path d="M80.0538 55.9444V60.7699C80.0556 61.2179 79.9637 61.6613 79.7839 62.0718C79.604 62.4822 79.3403 62.8507 79.0095 63.1535C78.6788 63.4564 78.2883 63.6869 77.8631 63.8305C77.4379 63.974 76.9873 64.0273 76.5403 63.987C71.5808 63.4491 66.8169 61.7578 62.6313 59.0488C58.7371 56.5792 55.4355 53.2842 52.961 49.3977C50.2372 45.2015 48.5421 40.4238 48.0131 35.4519C47.9728 35.0071 48.0258 34.5588 48.1686 34.1356C48.3115 33.7123 48.541 33.3234 48.8427 32.9935C49.1444 32.6637 49.5117 32.4001 49.921 32.2197C50.3304 32.0392 50.7729 31.9458 51.2204 31.9454H56.0555C56.8377 31.9377 57.596 32.2141 58.189 32.7231C58.7821 33.2322 59.1694 33.939 59.2789 34.712C59.483 36.2563 59.8615 37.7726 60.4071 39.2319C60.6239 39.8077 60.6709 40.4334 60.5423 41.0349C60.4138 41.6364 60.1152 42.1886 59.6818 42.6259L57.635 44.6687C59.9293 48.6957 63.2702 52.03 67.3052 54.3198L69.3521 52.277C69.7903 51.8445 70.3435 51.5465 70.9462 51.4182C71.549 51.2899 72.1759 51.3367 72.7528 51.5532C74.215 52.0977 75.7343 52.4754 77.2817 52.6791C78.0646 52.7893 78.7796 53.1829 79.2907 53.785C79.8018 54.387 80.0734 55.1555 80.0538 55.9444Z" fill="white" stroke="black" stroke-width="3" stroke-linecap="round" stroke-linejoin="round"/>
<path d="M90.9047 41.3595C90.9047 41.95 90.6449 42.5163 90.1825 42.9339C89.72 43.3515 89.0929 43.5861 88.4389 43.5861H73.6444L68.7129 46.1989V30.2266C68.7129 29.6361 68.9727 29.0697 69.4351 28.6521C69.8975 28.2346 70.5247 28 71.1786 28H88.4389C89.0929 28 89.72 28.2346 90.1825 28.6521C90.6449 29.0697 90.9047 29.6361 90.9047 30.2266V41.3595Z" fill="white" stroke="#FC8E28" stroke-width="2" stroke-linecap="round" stroke-linejoin="round"/>
<ellipse rx="1.48841" ry="1.5" transform="matrix(1 0 0 -1 74.9572 36.2059)" fill="#FC8E28"/>
<ellipse rx="1.48841" ry="1.5" transform="matrix(1 0 0 -1 79.9337 36.2059)" fill="#FC8E28"/>
<ellipse rx="1.48841" ry="1.5" transform="matrix(1 0 0 -1 84.9103 36.2059)" fill="#FC8E28"/>
</svg>
