<svg fill="none" height="22" viewBox="0 0 22 22" width="22" xmlns="http://www.w3.org/2000/svg"><g stroke-linecap="round" stroke-linejoin="round" stroke-width="1.7"><path d="m20.9994 16.0457v2.9679c.0046 1.0924-.892 1.9819-2.0033 1.9864-.0629 0-.1265-.0022-.1894-.0083-3.0946-.3304-6.0665-1.3708-8.6779-3.0365-2.42967-1.5187-4.48966-3.5451-6.03351-5.9351-1.69953-2.58093-2.75714-5.51943-3.08692-8.57638-.100473-1.08864.71555-2.05054 1.82224-2.14861.05906-.00528.11888-.0083.1787-.0083h3.01713c1.00929-.00981 1.8698.71822 2.01091 1.70124.12731.94982.36353 1.8823.70405 2.77931.2761.72274.0997 1.53828-.45249 2.08751l-1.27695 1.25612c1.43187 2.47681 3.51564 4.52731 6.03354 5.93511l1.2769-1.2561c.5583-.5432 1.3866-.7168 2.1221-.4452.9127.335 1.8606.5674 2.8254.6926 1.0109.1403 1.7548 1.0042 1.7295 2.0083z" stroke="#000"/><path d="m13.002 4.7196c.9216.17721 1.7687.62141 2.4327 1.27576s1.1147 1.48908 1.2945 2.39735m-3.7272-7.39271c1.9148.20963 3.7004 1.05467 5.0636 2.39636s2.223 3.10029 2.4381 4.98705" stroke="#fc8e28"/></g></svg>