<svg fill="none" height="22" viewBox="0 0 22 22" width="22" xmlns="http://www.w3.org/2000/svg"><g stroke-linecap="round" stroke-linejoin="round" stroke-width="1.7"><path d="m14.8884 11.4426c0 1.7027 1.3255 3.0833 3.0283 3.0833s3.0833-1.3806 3.0833-3.0833v-.4426c0-5.52314-4.4774-10-10-10-5.52259 0-10 4.47741-10 10 0 5.5226 4.47741 10 10 10 2.6919 0 5.1355-1.0637 6.933-2.7937" stroke="#1d1d1d"/><path d="m10.9604 14.5253c2.2326 0 4.0425-1.8099 4.0425-4.0425 0-2.23254-1.8099-4.04242-4.0425-4.04242-2.23256 0-4.04243 1.80988-4.04243 4.04242 0 2.2326 1.80987 4.0425 4.04243 4.0425z" stroke="#f38b2a"/></g></svg>