<svg fill="none" height="22" viewBox="0 0 22 22" width="22" xmlns="http://www.w3.org/2000/svg"><g stroke-linecap="round" stroke-linejoin="round" stroke-width="1.7"><g stroke="#f38b2a"><path d="m11.0059 2.90616v1.97925"/><path d="m11.0059 17.1293v1.9792"/><path d="m19.1062 11.0075h-1.9792"/><path d="m4.88354 11.0075h-1.97924"/><path d="m11.0231 11.8259c.4562 0 .8259-.3698.8259-.8259s-.3697-.8259-.8259-.8259c-.4561 0-.8258.3698-.8258.8259s.3697.8259.8258.8259z"/><path d="m10.479 10.3799-3.83154-3.82804"/><path d="m12 11h2"/></g><path d="m11 21c5.5228 0 10-4.4772 10-10 0-5.52285-4.4772-10-10-10-5.52285 0-10 4.47715-10 10 0 5.5228 4.47715 10 10 10z" stroke="#000"/></g></svg>