<?xml version="1.0" encoding="UTF-8"?>
<!DOCTYPE svg PUBLIC "-//W3C//DTD SVG 1.1//EN" "http://www.w3.org/Graphics/SVG/1.1/DTD/svg11.dtd">
<!-- Creator: CorelDRAW 2018 (64-Bit) -->
<svg xmlns="http://www.w3.org/2000/svg" xml:space="preserve" width="315mm" height="50mm" version="1.1" style="shape-rendering:geometricPrecision; text-rendering:geometricPrecision; image-rendering:optimizeQuality; fill-rule:evenodd; clip-rule:evenodd"
viewBox="0 0 31500 5000"
 xmlns:xlink="http://www.w3.org/1999/xlink">
 <defs>
  <style type="text/css">
   <![CDATA[
    .fil1 {fill:#EF7F1A}
    .fil0 {fill:#F3F3F3}
    .fil3 {fill:#FF0E00}
    .fil6 {fill:#FEFEFE;fill-rule:nonzero}
    .fil2 {fill:#FEFEFE;fill-rule:nonzero}
    .fil8 {fill:#C5C6C6;fill-rule:nonzero}
    .fil5 {fill:#2B2A29;fill-rule:nonzero}
    .fil7 {fill:#FFE503;fill-rule:nonzero}
    .fil4 {fill:#EF7F1A;fill-rule:nonzero}
   ]]>
  </style>
 </defs>
 <g id="Слой_x0020_1">
  <metadata id="CorelCorpID_0Corel-Layer"/>
  <g id="_2678817859248">
   <rect class="fil0" x="213.67" y="129.33" width="31072.67" height="4741.34" rx="465.72" ry="465.72"/>
   <rect class="fil1" x="1451.07" y="1306.66" width="9536.47" height="2590.37" rx="371.29" ry="371.29"/>
   <path class="fil2" d="M2266.26 1922.7l215.15 0c116.34,0 200.08,10.62 251.46,32.11 51.38,21.49 92.13,56.32 121.77,104.24 29.65,47.92 44.47,105.47 44.47,172.66 0,74.35 -19.52,136.1 -58.55,185.26 -38.78,49.16 -91.64,83.49 -158.58,102.76 -39.27,11.11 -110.66,16.55 -214.16,16.55l0 450.55 -201.56 0 0 -1064.13zm201.56 416.46l64.97 0c51.13,0 86.45,-3.7 106.46,-10.87 20.01,-7.41 35.57,-19.26 47.18,-36.06 11.36,-16.8 17.04,-37.05 17.04,-61.01 0,-41.25 -16.05,-71.39 -48.17,-90.16 -23.21,-14.08 -66.69,-21.25 -129.92,-21.25l-57.56 0 0 219.35z"/>
   <path id="1" class="fil2" d="M3657.93 2199.85l197.11 0 0 786.98 -197.11 0 0 -83.74c-38.54,36.56 -77.32,62.74 -116.1,78.8 -38.78,16.06 -81.02,24.21 -126.22,24.21 -102.02,0 -189.96,-39.28 -264.31,-118.08 -74.35,-78.55 -111.4,-176.36 -111.4,-293.2 0,-121.28 36.06,-220.58 107.94,-298.15 71.89,-77.31 159.08,-116.09 261.84,-116.09 47.42,0 91.64,8.89 133.14,26.43 41.5,17.54 79.78,44.21 115.11,79.29l0 -86.45zm-207.74 161.54c-61.26,0 -112.15,21.49 -152.41,64.72 -40.51,42.98 -60.76,98.31 -60.76,165.75 0,67.92 20.5,123.75 61.75,167.72 41.25,43.72 91.89,65.7 152.16,65.7 62,0 113.63,-21.49 154.38,-64.71 41.01,-42.98 61.51,-99.55 61.51,-169.46 0,-68.42 -20.5,-123.75 -61.51,-166.24 -40.75,-42.23 -92.63,-63.48 -155.12,-63.48z"/>
   <path id="2" class="fil2" d="M4824.57 2359.91l-164.26 90.41c-30.88,-32.36 -61.26,-54.59 -91.4,-67.19 -30.13,-12.6 -65.46,-18.77 -105.97,-18.77 -73.85,0 -133.63,21.98 -179.08,65.7 -45.7,43.97 -68.42,100.04 -68.42,168.71 0,66.7 21.98,121.04 65.7,163.28 43.97,42.24 101.52,63.23 172.91,63.23 88.18,0 156.85,-30.13 206.26,-90.4l155.37 106.71c-84.48,109.67 -203.54,164.51 -357.43,164.51 -138.57,0 -247.01,-41.01 -325.32,-122.77 -78.3,-81.76 -117.57,-177.35 -117.57,-287.03 0,-76.08 19.02,-145.98 57.06,-209.96 38.28,-63.98 91.39,-114.37 159.81,-150.92 68.18,-36.56 144.51,-54.84 228.98,-54.84 78.31,0 148.46,15.56 210.71,46.68 62.24,31.13 113.13,75.34 152.65,132.65z"/>
   <path id="3" class="fil2" d="M5773.35 2359.91l-164.26 90.41c-30.88,-32.36 -61.26,-54.59 -91.4,-67.19 -30.13,-12.6 -65.46,-18.77 -105.97,-18.77 -73.85,0 -133.63,21.98 -179.08,65.7 -45.7,43.97 -68.42,100.04 -68.42,168.71 0,66.7 21.98,121.04 65.7,163.28 43.97,42.24 101.52,63.23 172.91,63.23 88.18,0 156.85,-30.13 206.26,-90.4l155.37 106.71c-84.48,109.67 -203.54,164.51 -357.43,164.51 -138.57,0 -247.01,-41.01 -325.32,-122.77 -78.3,-81.76 -117.57,-177.35 -117.57,-287.03 0,-76.08 19.02,-145.98 57.06,-209.96 38.28,-63.98 91.39,-114.37 159.81,-150.92 68.18,-36.56 144.51,-54.84 228.98,-54.84 78.31,0 148.46,15.56 210.71,46.68 62.24,31.13 113.13,75.34 152.65,132.65z"/>
   <path id="4" class="fil2" d="M6148.57 2199.85l0 86.45c35.57,-35.08 74.1,-61.75 115.6,-79.29 41.5,-17.54 85.96,-26.43 133.14,-26.43 102.51,0 189.7,38.78 261.59,116.09 71.88,77.57 107.69,176.87 107.69,298.15 0,116.84 -37.05,214.65 -111.4,293.2 -74.1,78.8 -162.04,118.08 -263.81,118.08 -45.2,0 -87.44,-8.15 -126.47,-24.21 -39.03,-16.06 -77.81,-42.49 -116.34,-79.29l0 371.75 -197.12 0 0 -1074.5 197.12 0zm206.99 161.54c-62,0 -113.62,21.25 -154.38,63.48 -41,42.49 -61.51,97.82 -61.51,166.24 0,69.91 20.51,126.48 61.51,169.46 40.76,43.22 92.38,64.71 154.38,64.71 60.27,0 110.91,-21.98 152.16,-65.7 41.25,-43.97 61.76,-99.8 61.76,-167.72 0,-67.44 -20.26,-122.77 -60.77,-165.75 -40.26,-43.23 -91.39,-64.72 -153.15,-64.72z"/>
   <path id="5" class="fil2" d="M7300.14 2180.58c74.35,0 144.26,18.52 209.72,55.58 65.7,37.05 116.59,87.19 153.39,150.67 36.81,63.73 55.09,132.16 55.09,205.77 0,74.1 -18.53,143.26 -55.34,207.73 -37.05,64.48 -87.44,114.87 -151.17,151.18 -63.97,36.31 -134.13,54.59 -210.95,54.59 -113.13,0 -209.71,-40.02 -289.5,-120.05 -80.03,-80.28 -120.04,-177.6 -120.04,-291.97 0,-122.77 45.2,-225.03 135.61,-306.79 79.29,-71.14 170.19,-106.71 273.19,-106.71zm2.97 185.26c-61.51,0 -112.64,21.24 -153.4,63.73 -40.76,42.73 -61.26,97.07 -61.26,163.52 0,68.18 20.26,123.51 60.52,165.75 40.26,42.24 91.4,63.48 153.4,63.48 61.75,0 113.13,-21.49 154.38,-64.22 41,-42.74 61.51,-97.82 61.51,-165.01 0,-67.43 -20.26,-122.02 -60.52,-164.26 -40.27,-42 -91.89,-62.99 -154.63,-62.99z"/>
   <path id="6" class="fil2" d="M8306.97 2674.11l-158.83 0c-107.45,0 -190.2,-20.5 -248,-61.75 -57.8,-41.25 -86.7,-109.18 -86.7,-203.54l0 -208.97 197.11 0 0 193.65c0,68.92 46.44,103.5 139.57,103.5l77.31 -0.74 79.54 0 0 -296.41 197.12 0 0 786.98 -197.12 0 0 -312.72z"/>
   <polygon id="7" class="fil2" points="8702.93,2199.85 8900.05,2199.85 8900.05,2494.53 9173.98,2199.85 9414.82,2199.85 9062.33,2582.22 9419.27,2986.83 9156.69,2986.83 8921.29,2709.43 8900.05,2733.64 8900.05,2986.83 8702.93,2986.83 "/>
   <path id="8" class="fil2" d="M10081.51 2199.85l197.11 0 0 786.98 -197.11 0 0 -83.74c-38.54,36.56 -77.32,62.74 -116.1,78.8 -38.78,16.06 -81.02,24.21 -126.22,24.21 -102.02,0 -189.96,-39.28 -264.31,-118.08 -74.35,-78.55 -111.4,-176.36 -111.4,-293.2 0,-121.28 36.06,-220.58 107.94,-298.15 71.89,-77.31 159.08,-116.09 261.84,-116.09 47.42,0 91.64,8.89 133.14,26.43 41.5,17.54 79.78,44.21 115.11,79.29l0 -86.45zm-207.74 161.54c-61.26,0 -112.15,21.49 -152.41,64.72 -40.51,42.98 -60.76,98.31 -60.76,165.75 0,67.92 20.5,123.75 61.75,167.72 41.25,43.72 91.89,65.7 152.16,65.7 62,0 113.63,-21.49 154.38,-64.71 41.01,-42.98 61.51,-99.55 61.51,-169.46 0,-68.42 -20.5,-123.75 -61.51,-166.24 -40.75,-42.23 -92.63,-63.48 -155.12,-63.48z"/>
   <g>
    <path class="fil3" d="M17602.58 1610.38l130.9 386.21 -258.58 -0.28 127.68 -385.93zm-438.96 679.92c0,22.33 45.98,30.18 82.42,44.4 29,11.31 61.7,30.54 96.28,30.54l53.51 -148.24c7.23,-19.22 7.32,-41.99 27.19,-41.99l363.16 0c18.98,0 34.2,59.14 45.45,92.91 6.2,18.63 11.41,34.42 17.94,51.23 22.86,58.84 2.82,58.79 113.6,15.55 109.01,-42.55 96.79,-10.4 41.34,-164.72l-136.91 -376.14c-28.03,-84.42 -60.47,-164.33 -90.79,-249.31 -32.86,-92.12 -59.79,-176.55 -175.09,-176.55 -109.74,0 -137.76,90.74 -168.04,172.07 -17.77,47.72 -270.06,728.96 -270.06,750.25z"/>
    <path class="fil3" d="M17123.27 2688.06c0,63.14 -13.6,167.16 23.05,167.16l916.56 0c13.28,0 17.29,-4.01 17.29,-17.29l0 -167.17c0,-13.28 -4.01,-17.29 -17.29,-17.29l-916.56 0c-17.72,0 -23.05,16.89 -23.05,34.59z"/>
    <path class="fil3" d="M20022.81 2249.95c-76.78,0 -57.64,13.98 -57.64,-190.23 20.01,-1.66 64.74,-17.86 86.63,11.37 32.17,42.96 21.75,178.86 -28.99,178.86zm-253.64 -74.94c0,-147.38 43.38,-120.31 103.77,-115.29l0 190.23c-47.62,0 -103.77,11.71 -103.77,-74.94zm103.77 -190.22c-79.35,-6.61 -195.31,-29.6 -197.78,168.01 -1.06,84.89 30.63,177.86 128.6,177.86 25.17,0 45.05,-9.53 69.18,-11.53l0 115.29 92.23 0 0 -121.06c222.07,117.51 278.97,-334.34 74.94,-334.34 -58.2,0 -39.54,2.82 -74.94,5.77l0 -138.35 -92.23 0 0 138.35z"/>
    <path class="fil3" d="M20968.19 2255.72l-51.88 -5.77 0 -132.58c52.92,-1.18 121.06,-29.76 121.06,80.7 0,36.07 -31.97,57.65 -69.18,57.65zm-149.88 51.88c21.58,1.79 32.18,8.45 55.28,13.89 330.88,77.88 323.84,-284.82 123.42,-284.82l-80.7 5.76 0 -115.29c33.19,0 51.57,-5.82 74.94,-5.82l103.76 5.82 0 -69.17c-55.97,-13.04 -110.11,-15.9 -167.33,-11.77 -29.04,2.09 -60.37,5.38 -82.78,9.53 -23.02,4.27 -21.9,-2.24 -26.59,19.53l0 432.34z"/>
    <path class="fil3" d="M18754.62 1955.96c15.62,11.44 25.81,68.8 32.25,94.57 7.64,30.54 24.75,72.49 25.4,101.43l-109.53 0c0.91,-40.64 48.04,-149.8 51.88,-196zm-207.52 368.93l97.99 0 29.68 -91.95 166.32 -0.28c1.8,21.61 7.65,29.42 13.47,49.94 14.51,51.17 -3.03,42.29 113.35,42.29 -0.83,-37.05 -133.02,-400.31 -149.88,-472.69 -74.07,-6.16 -104.07,-23.82 -121.99,33.65 -6.22,19.96 -14.27,45.39 -21.39,65.08 -17.75,49.09 -125.31,347.08 -127.55,373.96z"/>
    <polygon class="fil3" points="21510.05,2324.89 21596.52,2324.89 21596.52,2186.54 21694.52,2186.54 21694.52,2324.89 21786.75,2324.89 21786.75,1984.79 21694.52,1984.79 21694.52,2111.6 21596.52,2111.6 21596.52,1984.79 21510.05,1984.79 "/>
    <path class="fil3" d="M19031.32 1996.31c0,51.54 3.55,186.75 -5.9,230.45 -8.51,39.38 -11.4,26.2 -28.69,52.02 4.61,19.78 14.4,35.51 23.06,51.88 122.26,-28.49 98,-129.62 98,-270.94l92.23 0 0 265.17c62.66,0 92.23,8.81 92.23,-17.29l0 -293.99c0,-41.77 -169.75,-36.58 -213.42,-28.96 -21.82,3.8 -36.79,9.94 -57.51,11.66z"/>
    <path class="fil3" d="M21256.42 2215.37c0,-50.83 50.87,-43.32 86.46,-40.36 0,86.77 32.12,80.71 -57.64,80.71 -18.64,0 -28.82,-20.93 -28.82,-40.35zm-57.65 -224.82c2.05,24.6 10.94,42.84 11.53,69.17 121.43,-10.1 132.58,-23.38 132.58,57.65 -257.49,-59.99 -223.51,321.04 34.59,184.46l27.51 30.13c17.27,-11.99 39.58,-30.72 58.96,-35.89 -19.35,-83.05 -29.81,11.87 -28.69,-196.13 0.9,-165.27 -134.53,-117.88 -236.48,-109.39z"/>
    <path class="fil3" d="M20287.98 2226.89c0,-32.34 -4.24,-42.92 34.8,-52.06 29.99,-7.02 24.02,-2.12 51.67,0.18 0,34.84 -0.74,47.02 5.76,74.94 -23.63,5.51 -92.23,19.66 -92.23,-23.06zm-57.64 -236.34c0,26.13 6.52,47.71 11.52,69.17 44.17,-3.67 69.73,-13.3 126.82,0 5.5,23.61 5.77,27.07 5.77,57.65 -206.64,-48.14 -247.36,213.29 -57.65,213.29 42.05,0 61.52,-12.12 86.47,-28.83l28.82 28.83c22.89,-12.12 42.42,-26.3 63.41,-40.36 -64.27,-95.97 0.74,-212.24 -50.6,-277.97 -44.75,-57.29 -165.37,-25.87 -214.56,-21.78z"/>
    <path class="fil3" d="M21971.22 2111.6l-17.3 0c0,-152.45 22.8,-126.81 -92.23,-126.81l0 340.1c115.99,0 92.23,27.61 92.23,-138.35 37.09,0 36.25,4.93 61.52,59.54 11.2,24.21 24.83,53.55 30.71,78.81l98 0c-2.46,-29.6 -31.52,-70.72 -43.67,-100.44 -31.25,-76.42 -39.3,-55.65 -60.09,-84.02 24.9,-6.65 33.34,-25.2 44.26,-47.97 26.46,-55.2 20.55,-36.87 47.97,-50.03 0,-44.47 15.7,-63.41 -17.29,-63.41 -119.7,0 -93.58,132.58 -144.11,132.58z"/>
    <path class="fil3" d="M19492.48 2261.48c-21.71,0 -10.9,-3.79 -34.59,-5.76 0,-107.27 -12.27,-98 46.12,-98 55.92,0 61.02,103.76 -11.53,103.76zm-126.82 46.12c62.35,14.52 172.15,49.79 238.05,-9.82 35.1,-31.74 46.54,-88.35 29.45,-142.39 -29.53,-93.33 -154.4,-66.84 -175.27,-66.84l0 -103.76 -92.23 0 0 322.81z"/>
    <path class="fil3" d="M20628.09 2209.6c30.19,0 39.07,4.37 59.56,-21.29 10.45,-13.09 13.81,-24.82 11.93,-39.77 -11.95,-95.35 -156.18,-37.65 -104.82,36.46 5.92,8.54 21.42,24.6 33.33,24.6z"/>
   </g>
   <path class="fil4" d="M12452.25 1561.6c131.71,0 245.38,32.29 340.59,96.89 95.64,65.01 169.04,163.58 221.05,296.55 52.01,133.38 78.02,318.36 78.02,555.77 0,239.92 -26.43,426.58 -79.28,560.38 -52.85,133.39 -123.73,231.54 -213.08,294.03 -88.92,62.5 -201.75,93.96 -337.65,93.96 -135.9,0 -249.99,-31.46 -342.27,-94.38 -92.7,-63.33 -165.26,-158.97 -217.7,-287.74 -52.43,-128.35 -78.43,-311.23 -78.43,-549.05 0,-331.37 51.17,-571.71 153.52,-720.62 113.67,-164 272.22,-245.79 475.23,-245.79zm10.49 327.17c-57.89,0 -109.06,18.45 -153.94,55.78 -44.88,36.91 -78.86,101.09 -102.77,191.69 -23.48,90.6 -35.23,223.15 -35.23,398.06 0,227.76 27.26,385.47 81.37,472.3 54.11,86.82 124.16,130.44 210.57,130.44 83.05,0 148.9,-41.1 197.56,-123.73 59.56,-99.83 89.34,-266.35 89.34,-499.99 0,-236.56 -26.85,-400.15 -80.12,-489.91 -53.27,-89.76 -122.05,-134.64 -206.78,-134.64z"/>
   <path id="1" class="fil4" d="M14822.98 1526.36l249.15 0 -1431.58 2010.84 -247.89 0 1226.04 -1726.87c-73.82,12.58 -143.03,22.23 -208.04,28.52 -64.6,6.29 -124.58,9.65 -179.53,9.65 -56.62,0 -116.6,-2.94 -179.94,-8.81 18.04,57.05 27.27,109.06 27.27,155.62 0,119.54 -41.53,221.05 -125,304.52 -83.05,83.47 -184.56,124.99 -304.1,124.99 -120.38,0 -223.15,-41.94 -307.46,-125.41 -84.31,-83.47 -126.67,-184.56 -126.67,-303.27 0,-76.75 18.88,-148.06 56.63,-214.33 37.33,-65.86 90.6,-119.13 158.55,-159.39 68.37,-40.69 136.32,-60.82 203.43,-60.82 50.75,0 120.38,9.64 209.72,29.36 157.72,33.97 296.97,51.17 417.36,51.17 108.63,0 209.72,-9.65 303.68,-28.94 93.53,-19.3 179.52,-48.24 258.38,-86.83zm-1176.14 259.22c-57.46,0 -106.12,20.14 -146.8,60.82 -40.69,40.69 -60.82,89.34 -60.82,145.97 0,57.88 20.13,106.96 60.82,147.65 40.68,40.68 89.34,60.82 146.8,60.82 57.47,0 106.12,-20.14 146.81,-60.82 40.69,-40.69 60.82,-89.77 60.82,-147.65 0,-57.46 -20.13,-106.12 -60.82,-146.39 -40.69,-40.26 -89.34,-60.4 -146.81,-60.4zm1195.43 815.41c118.7,0 220.63,42.36 304.94,126.67 84.31,84.31 126.67,186.24 126.67,305.36 0,118.7 -42.36,220.21 -126.67,304.52 -84.31,84.31 -186.24,126.67 -304.94,126.67 -119.54,0 -221.47,-42.36 -305.78,-126.67 -83.89,-84.31 -125.83,-185.82 -125.83,-304.52 0,-119.12 41.94,-221.05 125.83,-305.36 84.31,-84.31 186.24,-126.67 305.78,-126.67zm0.84 223.98c-58.3,0 -107.38,20.56 -147.65,61.24 -40.68,40.69 -60.82,89.35 -60.82,146.39 0,57.05 20.14,105.7 60.82,146.39 40.27,40.69 89.35,61.24 147.65,61.24 57.04,0 105.7,-20.55 145.97,-61.24 40.68,-40.69 60.82,-89.34 60.82,-146.39 0,-57.04 -20.14,-105.7 -60.82,-146.39 -40.27,-40.68 -88.93,-61.24 -145.97,-61.24z"/>
   <g>
    <polygon class="fil5" points="25758.66,2140.09 25602.77,2140.09 25602.77,2043.99 26028.05,2043.99 26028.05,2140.09 25872.17,2140.09 25872.17,2404.2 25758.66,2404.2 "/>
    <polygon class="fil5" points="26464,2043.99 26464,2404.2 26354.28,2404.2 26354.28,2194.58 26165.1,2404.2 26068.24,2404.2 26068.24,2043.99 26177.97,2043.99 26177.97,2253.61 26367.15,2043.99 "/>
    <polygon class="fil5" points="26653.04,2404.2 26543.31,2404.2 26543.31,2043.99 26653.04,2043.99 26653.04,2175.67 26829.35,2175.67 26829.35,2043.99 26939.07,2043.99 26939.07,2404.2 26829.35,2404.2 26829.35,2270.25 26653.04,2270.25 "/>
    <path class="fil5" d="M27128.11 2317.17l93.85 0c18.9,0 31.03,0 43.12,-5.31 17.41,-7.55 28,-23.44 28,-42.37 0,-18.16 -10.59,-33.29 -28.76,-39.34 -12.85,-4.54 -27.23,-4.54 -42.36,-4.54l-93.85 0 0 91.56zm-109.73 87.03l0 -360.21 109.73 0 0 96.86 112.75 0c27.26,0 56.01,0.76 80.21,9.83 50.71,18.92 82.5,60.55 82.5,120.33 0,62.8 -37.07,108.96 -93.84,124.86 -21.19,6.06 -43.9,8.33 -68.87,8.33l-222.48 0z"/>
    <polygon class="fil5" points="27563.78,2404.2 27454.05,2404.2 27454.05,2043.99 27563.78,2043.99 27563.78,2179.45 27594.04,2179.45 27726.47,2043.99 27864.2,2043.99 27688.62,2216.52 27871.01,2404.2 27724.95,2404.2 27594.04,2267.98 27563.78,2267.98 "/>
    <path class="fil5" d="M28219.85 2224.85c0,-59.02 -47.66,-102.17 -120.3,-102.17 -73.42,0 -120.32,43.15 -120.32,102.17 0,59.02 46.9,102.9 120.32,102.9 72.64,0 120.3,-43.88 120.3,-102.9zm115.05 0c0,107.45 -88.56,190.7 -235.35,190.7 -147.57,0 -236.12,-83.25 -236.12,-190.7 0,-107.46 88.55,-190.71 236.12,-190.71 146.79,0 235.35,83.25 235.35,190.71z"/>
    <path class="fil5" d="M28805.65 2224.09c0,-48.42 -32.52,-83.24 -108.95,-86.27l0 168.76c76.43,-3.03 108.95,-34.05 108.95,-82.49zm-218.68 -86.27c-75.68,3.03 -108.99,37.85 -108.99,86.27 0,48.44 33.31,79.46 108.99,82.49l0 -168.76zm330.68 86.27c0,102.93 -82.48,156.64 -220.95,159.67l0 36.33 -109.73 0 0 -36.33c-137.75,-3.03 -220.22,-56.74 -220.22,-159.67 0,-102.92 82.47,-161.19 220.22,-164.21l0 -36.33 109.73 0 0 36.33c138.47,3.02 220.95,61.29 220.95,164.21z"/>
    <path class="fil5" d="M29388.43 2224.09c0,-48.42 -32.53,-83.24 -108.98,-86.27l0 168.76c76.45,-3.03 108.98,-34.05 108.98,-82.49zm-218.69 -86.27c-75.66,3.03 -108.96,37.85 -108.96,86.27 0,48.44 33.3,79.46 108.96,82.49l0 -168.76zm330.7 86.27c0,102.93 -82.48,156.64 -220.99,159.67l0 36.33 -109.71 0 0 -36.33c-137.72,-3.03 -220.21,-56.74 -220.21,-159.67 0,-102.92 82.49,-161.19 220.21,-164.21l0 -36.33 109.71 0 0 36.33c138.51,3.02 220.99,61.29 220.99,164.21z"/>
    <path class="fil6" d="M24463.01 1656.72l-0.65 0.13 0.55 -0.72 0.1 0.59zm145.4 1170.85l3.02 0c10.57,-0.08 27.47,-0.92 27.47,-0.92 77.56,-4.6 124.15,-25.42 126.34,-26.42l24.47 -11.16 -8.92 -24.23c31.96,-11.69 63.61,-27.13 88.3,-39.17l69.53 -33.78 -93.01 -38.78 45.35 0.59c63.35,0 113.33,-18.33 148.53,-54.55 10.04,-10.35 18.66,-21.99 25.82,-34.81 5.93,2.4 12.12,4.37 18.52,5.91 8.42,1.97 17.45,2.97 26.88,2.97 20.45,0 37.25,-4.53 37.7,-4.67l55.24 -14.62 -24.07 -50.67c-0.56,-1.31 -13.74,-33.04 1.55,-78.59 3.89,-11.62 7.17,-23.31 9.83,-34.95 10.36,2.19 21.19,3.32 32.38,3.33 65.41,0 96.78,-45.98 102.86,-56l26.94 -46.9 -49.9 -20.49c-34.69,-14.41 -50.43,-47.79 -57.46,-77.55 64.48,-5.62 99.08,-60 109.65,-93.02l19.9 -63.66 -65.79 2.09c-5.56,0 -45.97,-1.16 -85.17,-29.59 2.94,0.27 5.84,0.69 8.85,0.69 40.34,0 79.42,-24.28 95.05,-59.05l28.29 -62.79c-35.5,0.48 -67.95,-4.01 -67.95,-4.01 -0.27,-0.04 -25.84,-3.35 -55.42,-33.56 -21.2,-21.65 -47.45,-33.12 -75.86,-33.12 -12.46,0 -23.58,2.26 -33.16,5.29 1.5,-5.08 2.9,-10.24 3.75,-15.57 9.02,-58.77 -28.77,-103.56 -28.78,-103.52l-49.5 -61.3 -30.68 72c-0.1,0.22 -7.86,17.11 -21.7,25.34 -4.17,-21.18 -14.47,-44.96 -36.41,-67.7 -41.41,-42.84 -91.79,-49.26 -118.16,-49.26 -12.22,0 -20.95,1.33 -23.06,1.69l-59.71 11.75c3.45,-13.34 10.79,-36.61 24.2,-57.53l32.96 -51.34 -82.93 9.45 -26.43 -56.11 -51.15 26.37 -46.7 -46.12 -1.21 0 -46.57 46.12 -51.27 -26.37 -26.37 56.11 -82.9 -9.48 33 51.39c13.44,20.9 20.75,44.1 24.16,57.41l-56.98 -11.23 -1.97 -0.32c-2.85,-0.46 -11.52,-1.79 -23.8,-1.79 -26.35,0 -76.72,6.42 -118.03,49.24 -21.99,22.73 -32.3,46.54 -36.5,67.72 -13.76,-8.16 -21.45,-24.76 -21.45,-24.76l-30.75 -72.42 -50.25 61.66c-6.15,7.94 -36.45,50.08 -28.21,103.06 0.85,5.3 2.23,10.43 3.71,15.51 -9.53,-3.05 -20.65,-5.29 -33.08,-5.29 -28.44,0 -54.69,11.47 -75.93,33.12 -29.49,30.1 -54.91,33.5 -54.69,33.5 0,0 -26.9,4.84 -68.53,4.07l28.14 62.79c15.67,34.77 54.77,59.05 95.02,59.05 3.06,0 5.95,-0.42 8.92,-0.69 -39.12,28.43 -79.51,29.59 -84.39,29.63l-67 -2.13 20.3 63.64c10.22,32.81 44.34,87.14 109.68,92.98 -7.1,29.79 -22.85,63.2 -57.46,77.57l-49.92 20.57 27.22 47.39c15.34,25.58 51.44,55.47 102.78,55.47 11.1,-0.01 21.83,-1.14 32.15,-3.33 2.65,11.68 5.94,23.37 9.85,34.99 15.27,45.51 2.1,77.24 1.97,77.59l-24.65 51.63 55 14.51c0.7,0.19 17.3,4.78 38.1,4.78 9.44,0 18.48,-1 26.91,-3.01 6.4,-1.5 12.56,-3.47 18.46,-5.87 7.13,12.76 15.77,24.42 25.86,34.86 35.25,36.18 85.21,54.5 148.48,54.5l0.21 0 45.16 -0.59 -93.32 38.81 70.85 34.25c25.76,12.54 56.26,27.38 87.35,38.73l-8.84 24.21 24.42 11.12c2.17,1 49.14,21.99 127.19,26.48 0,0 17.12,0.78 27.72,0.86z"/>
    <path class="fil6" d="M24609.27 1653.87c-52.84,0.05 -92.48,17.36 -101.1,37.74l101.1 39.91 101.13 -39.91c-8.55,-20.38 -48.2,-37.69 -101.13,-37.74z"/>
    <path class="fil6" d="M24610.34 2710.09l-2.03 0c-32.02,0.23 -76.16,-6.34 -97.38,-12.55l-25.56 69.17c16.84,6 73.97,17.49 124,17.49 49.96,0 107.08,-11.49 123.9,-17.49l-25.52 -69.17c-21.32,6.21 -65.39,12.78 -97.41,12.55z"/>
    <path class="fil6" d="M24803.81 2641.28c-19.04,10.75 -61.52,26.94 -86.22,34.44l20.74 57.14c38.21,-10.44 69.79,-22.64 95.82,-35.7l-43.05 -14.33 12.71 -41.55z"/>
    <path class="fil6" d="M24414.85 2641.28l12.74 41.55 -43.1 14.33c26.01,13.06 57.71,25.26 95.8,35.7l20.77 -57.14c-24.66,-7.5 -67.19,-23.69 -86.21,-34.44z"/>
    <path class="fil6" d="M24609.27 1587.73c39.86,0 78.91,9.53 108.97,26.27 2.75,-9.2 6.6,-20.38 11.8,-32.1l-11.38 1.37 -11.91 1.24 -5.05 -10.86 -15.2 -32.09 -27.7 14.42 -10.78 5.5 -8.63 -8.5 -30.12 -29.8 -30.04 29.8 -8.6 8.5 -10.77 -5.5 -27.86 -14.42 -15 32.09 -5.14 10.86 -11.9 -1.24 -11.34 -1.37c5.21,11.72 9.01,22.9 11.81,32.1 30.15,-16.74 69.18,-26.27 108.84,-26.27z"/>
    <path class="fil6" d="M25217.58 1958.74c5.17,1.8 10.42,2.58 15.64,2.58 22.56,0 44.33,-14.58 51.81,-31.23 0,0 -41.3,-2.51 -85.76,-47.62 -14.14,-14.62 -29.11,-19 -41.96,-19 -19.96,0 -34.93,10.52 -34.93,10.52 53.69,28.59 64.63,74.43 95.2,84.75z"/>
    <path class="fil6" d="M23985.4 1961.32c5.22,0 10.47,-0.78 15.54,-2.59 30.63,-10.31 41.69,-56.16 95.31,-84.73 0,0 -15.01,-10.53 -34.86,-10.53 -12.9,0 -27.86,4.38 -42.07,19 -44.4,45.11 -85.69,47.63 -85.69,47.63 7.42,16.64 29.24,31.22 51.77,31.22z"/>
    <path class="fil6" d="M25201.38 2287.95c-41.52,-20.49 -67.76,-74.84 -74.09,-94.4 -6.9,107.78 -59.49,182.54 -120.99,254.56 -31.92,37.34 -43.06,73.61 -43.06,73.61 0,0 6.16,-41.11 33.74,-74.56 57.39,-68.94 111.93,-154.78 115.97,-254 2.78,-69.28 -15,-125.43 -42.79,-171.72 15.55,48.21 13.33,107.23 -39.44,162.33 0,0 105.09,-125.92 -41.83,-255.01 -58.8,-49.14 -123.17,-79.48 -156.27,-100.97 119.66,39.04 178.11,-3.95 178.11,-3.95 -38.21,33.13 -87.69,32.57 -118.38,27.8 8.34,4.05 17,8.28 26.29,13.3 100.92,54.8 191.59,144.98 207.06,269.87l0 -0.97c23.46,122.65 75.68,154.11 75.68,154.11zm30.73 -142.88c0.95,0.06 1.73,0.06 2.68,0.06 56.25,0 75.3,-60.25 75.3,-60.25l-1.1 0c-10.32,0 -93.93,-2.43 -153.05,-77.55 -38.91,-49.41 -70.81,-92.86 -133.78,-109.94l-6.19 -1.11 -1.36 -6.31c-1.73,-9.61 4.88,-18.63 19.82,-28.36 86.92,-56.9 27.89,-129.5 27.89,-129.5 0,0 -24.82,58.04 -80.35,58.04 -1.33,0 -2.74,-0.07 -4.11,-0.07 -6.31,-0.33 -12.41,-0.57 -18.53,-1.86l-10.23 -1.99c0,0 15.84,-43.07 -22.37,-82.6 -28.8,-29.84 -63.82,-34.93 -84.03,-34.93 -10.19,0 -16.66,1.32 -16.66,1.32 19.19,25.09 33.08,66.72 10.91,92.43 -19.15,22.09 -65.95,23.14 -65.95,56.04 0,13.97 13.04,30.22 36.42,44.82 70.33,44.29 140.12,103.08 169.19,181.83 36.27,98.23 -4.61,163.43 -62.93,200.83 0,0 18.3,16.85 44.82,19 5.4,0.53 10.67,0.77 15.59,0.77 56,0 84.98,-26.25 84.98,-26.25 0,0 -4.78,36.29 -33.93,69.97 -26.89,31.1 -62.17,49.43 -116.03,50.19 0,0 -1.7,24.98 22.15,46.62 15.26,13.65 50.49,18.09 50.49,18.09 0,0 -65.97,13.38 -73.27,110.79 -3.95,52.81 -17.44,71.17 -17.44,71.17l1.18 0c153.1,0 149.18,-131.31 149.18,-131.31 0,0 10.64,38.88 53.35,49.02 5.16,1.35 10.67,1.87 15.92,1.87 13.74,0 25.69,-3.24 25.69,-3.24 0,0 -22.37,-47.16 -0.19,-113.15 18.41,-54.76 15.44,-95.33 15.44,-95.33 0,0 20.62,31.2 71.76,31.46l0.53 0c42.58,0 61.13,-32.26 61.13,-32.26 -102.07,-42.39 -91.99,-179.13 -91.99,-179.13 0,0 13.26,9.89 39.07,10.82z"/>
    <path class="fil6" d="M24212.31 2448.11c-61.49,-72.02 -114.07,-146.78 -121.02,-254.56 -6.36,19.56 -32.52,73.91 -74.02,94.4 0,0 52.18,-31.46 75.63,-154.11l0 0.95c15.52,-124.86 106.16,-215.05 207.1,-269.84 9.25,-5.03 17.97,-9.27 26.26,-13.31 -30.68,4.77 -80.16,5.33 -118.33,-27.79 0,0 58.43,42.98 178.05,3.94 -33.11,21.51 -97.42,51.83 -156.19,100.97 -146.98,129.09 -41.86,255.03 -41.86,255.03 -52.85,-55.12 -54.98,-114.13 -39.43,-162.35 -27.85,46.29 -45.64,102.44 -42.78,171.72 4.02,99.22 58.53,185.06 115.81,254 27.71,33.45 33.95,74.56 33.95,74.56 0,0 -11.26,-36.27 -43.17,-73.61zm24.6 -23.75c0,0 35.24,-4.44 50.52,-18.09 23.82,-21.64 22.11,-46.62 22.11,-46.62 -53.86,-0.76 -89.12,-19.09 -116.17,-50.19 -28.96,-33.68 -33.78,-69.97 -33.78,-69.97 0,0 28.97,26.25 84.91,26.25 5.02,0 10.24,-0.24 15.64,-0.77 26.55,-2.15 44.91,-18.98 44.91,-18.98 -58.39,-37.4 -99.27,-102.61 -63.04,-200.85 29.04,-78.74 98.84,-137.54 169.19,-181.83 23.37,-14.6 36.38,-30.85 36.38,-44.79 0,-32.93 -46.72,-33.99 -65.88,-56.07 -22.15,-25.71 -8.27,-67.34 10.88,-92.44 0,0 -6.38,-1.3 -16.62,-1.3 -20.21,0 -55.21,5.07 -84,34.91 -38.29,39.53 -22.41,82.61 -22.41,82.61l-10.23 1.99c-6.12,1.29 -12.28,1.53 -18.54,1.88 -1.43,0 -2.71,0.05 -4.06,0.05 -55.67,0 -80.36,-58.03 -80.36,-58.03 0,0 -59.01,72.59 27.9,129.49 14.93,9.73 21.52,18.75 19.78,28.36l-1.36 6.31 -6.32 1.11c-62.87,17.1 -94.8,60.54 -133.73,109.94 -59.08,75.12 -142.6,77.55 -153,77.55l-1.15 0c0,0 19.08,60.23 75.35,60.23 0.89,0 1.74,0 2.68,-0.05 25.87,-0.92 39.14,-10.81 39.14,-10.81 0,0 9.99,136.74 -92.04,179.11 0,0 18.59,32.3 61.15,32.3l0.51 0c51.18,-0.29 71.77,-31.48 71.77,-31.48 0,0 -2.97,40.59 15.37,95.33 22.19,65.99 -0.06,113.17 -0.06,113.17 0,0 11.89,3.22 25.61,3.22 5.35,0 10.8,-0.52 15.91,-1.87 42.67,-10.14 53.35,-49.02 53.35,-49.02 0,0 -3.92,131.31 149.21,131.31l1.09 0c0,0 -13.38,-18.36 -17.33,-71.17 -7.26,-97.43 -73.28,-110.79 -73.28,-110.79z"/>
    <path class="fil6" d="M24574.73 1940.49l72.17 0 0 24.78c-8.48,-10.4 -25.02,-8.28 -25.02,-8.28l0 35.7c0,0 0.63,17.57 6.79,25.17l-35.71 0c6.24,-7.6 6.81,-25.17 6.81,-25.17l0 -35.7c0,0 -16.48,-2.12 -25.04,8.28l0 -24.78zm-78.63 3.72c2.49,2.7 4.97,5.62 7.36,8.57 0.56,0.69 1.08,1.3 1.64,2.09 2.21,2.92 4.42,6.02 6.56,9.19 0.48,0.63 0.94,1.38 1.45,2.11 2.55,3.86 4.99,7.88 7.39,12.01 22.1,38.13 57.42,60.91 88.78,60.96 31.39,-0.05 66.69,-22.83 88.84,-60.96 2.44,-4.25 4.92,-8.35 7.49,-12.19 0.38,-0.55 0.78,-1.12 1.13,-1.67 2.19,-3.29 4.46,-6.49 6.86,-9.58 0.49,-0.66 0.98,-1.27 1.44,-1.85 2.47,-3.06 5,-6.02 7.59,-8.77 0.44,-0.43 0.82,-0.86 1.24,-1.21 11.25,-11.52 24.65,-20.31 42.21,-25.15l-7.82 -4.55 -0.43 0 -31.07 -18.05 -31.94 -18.29 -85.3 46.44 -0.24 -0.19 -0.16 0.19 -85.33 -46.44 -31.92 18.29 -31.13 18.05 -0.36 0 -7.88 4.55c17.58,4.84 30.93,13.53 42.23,25.07 0.48,0.43 0.83,0.95 1.37,1.38z"/>
    <path class="fil6" d="M24582.1 1783.12l0 23.28 -4.48 -2.03c-0.2,-0.18 -6.78,-1.66 -18.21,-10.72 -18.92,-14.66 -19.29,-28.19 -19.29,-28.19l41.98 17.66zm19.8 109.35l0 -145 -92.29 -31.29 24.34 140.49 67.95 35.8z"/>
    <path class="fil6" d="M24636.54 1783.12l41.98 -17.66c0,0 -0.37,13.53 -19.33,28.19 -11.41,9.06 -17.99,10.54 -18.21,10.72l-4.44 2.03 0 -23.28zm48.12 73.55l24.25 -140.49 -92.21 31.29 0 145 67.96 -35.8z"/>
    <path class="fil6" d="M24471.39 2228.56c8.98,3.25 19.89,3.94 25.47,3.94 0.2,-0.69 0.52,-1.53 0.79,-2.59 0.49,-1.62 0.94,-3.28 1.3,-5.08 1.56,-8.04 2.12,-17.11 2.24,-22.98 -3.76,-2.39 -9.12,-6.55 -12.11,-12.81 -3.42,-7.19 -8.33,-10.55 -15.45,-10.55 -9.29,0 -19.24,5.58 -23.53,8.19 -3.39,20.04 11.38,38.22 21.29,41.88z"/>
    <path class="fil6" d="M24675.52 2151.65c-17.13,18.65 -50.7,51.1 -52.31,52.73l-2.03 2.03 -106.01 -1.68c-0.07,10.51 -1.78,19.43 -3.44,26 -0.25,1.08 -0.56,2.21 -0.86,3.36l126.11 22.67c13.1,-9.18 49.21,-35.55 63.25,-45.88 -10.19,-14.89 -11.16,-32.55 -8.87,-45 -6.7,-4.25 -11.79,-9.11 -15.84,-14.23z"/>
    <path class="fil6" d="M24689.88 2024.15c-24.42,24.22 -47.84,33.2 -68.78,35.29 -3.8,0.38 -7.63,0.63 -11.53,0.63l-0.52 0c-3.92,0 -7.77,-0.25 -11.55,-0.63 -3.67,-0.33 -7.49,-0.92 -11.33,-1.8 -1.38,5.47 -3.13,16.83 1.85,27.66 4.44,9.78 13.43,17.06 26.57,21.92l4.4 1.73 0.08 4.74c0,1.41 1.06,32.27 34.65,40.84 5.48,-5.66 10.47,-10.78 14.17,-15.05 -6.87,-16.16 -3.26,-32.67 6.7,-40.76 -0.43,1.72 -4.81,42.19 27.63,57.24l5.35 2.53 -1.6 5.71c-0.52,1.68 -11.35,40.88 27.95,55.46l6.96 2.62 -3.08 6.75c-0.7,1.51 -16.08,37.03 20.2,57.25l78.69 0 0 -62.49c-28,-3.41 -39.83,-25.92 -42.89,-41.83 -13.02,-2.23 -23.09,-7.85 -29.99,-17 -16.5,-21.74 -2.31,-41.64 -2.12,-42.73 -0.03,0.18 0,21.37 13.07,34.45 6.5,6.31 14.16,11.2 25.77,12.29l5.73 0.52 0.49 5.85c0.1,1.25 3.26,29.94 29.94,34.43l-0.08 -127.61c0,-19.77 5.76,-39.65 12.71,-58.01l-159.44 0z"/>
    <polygon class="fil6" points="24478.1,2082.64 24475.96,2163.87 24485.21,2165.29 24507.79,2087.32 24496.34,2063.35 "/>
    <path class="fil6" d="M24527.02 2383.49c-2.62,-0.08 -4.55,-2.31 -4.39,-4.96 0.22,-2.51 2.37,-4.52 4.96,-4.29 2.63,0.1 4.51,2.43 4.41,4.92 -0.23,2.57 -2.44,4.53 -4.98,4.33zm200.11 71.91c0.7,0 1.47,0.1 2.23,0.28 14.06,4.03 17.61,54.68 42.25,59.2 2.43,0.5 4.65,0.65 6.61,0.65 7.14,0 11.38,-3.03 15.95,-8.44 0,0 -12.39,-19.47 -21.66,-32.66 -12.34,-17.22 -21.88,-37.99 -44.85,-37.99 -0.53,0 -1.2,0 -1.76,0.08 -7.55,0.39 -12.22,4.06 -12.22,4.06 -9.29,-5.83 -17.96,-7.83 -25.77,-7.83 -14.37,0 -25.54,6.6 -31.15,6.6l-0.21 0 -51.23 -5.05c-8,-0.78 -14.35,-8.85 -16.62,-11.99 -0.57,-0.87 -0.89,-1.39 -0.89,-1.39 0,-1.38 0,-2.81 -0.08,-4.08 -1.74,-41.89 -34.16,-59.82 -45.72,-60.11 0,0 1.36,-7.96 -1.76,-10.99l-11.31 13.71 -37.07 -18.61 26.45 30.89 -22.39 25.15c-2.82,2.86 -2.46,6.75 -1.29,8.37l9.68 8.56 12.27 -7.45c0.61,-0.44 1.73,-0.59 3.08,-0.59 3.4,0 8.5,0.89 13.06,0.89 5.02,0 9.33,-1.08 9.87,-5.77 -1.55,15.52 -15.97,42.52 -6.5,63.74l7.01 16.01 -45.29 -6.51 -21.21 35.8c-6.53,11.91 -7.56,24.8 -1.27,31.83l7.92 9.91c0,0 11.13,-11.79 13.63,-19.56l-3.61 -3.96c-3.02,-3.32 -2.89,-6.31 -1.01,-9.89l13.29 -22.04 53.47 12.58 2.83 -4.8c3.62,-6.04 8.84,-7.83 14.58,-7.83 2.37,0 4.78,0.29 7.29,0.68 9.94,1.96 26.25,4.59 42.59,4.59 17.91,0 35.72,-3.2 45.2,-13.82 19.38,28.69 58.61,33.27 55.53,47.85l-10.34 49.19c6.82,-0.29 13.42,-0.74 19.69,-1.61l9.81 -51.16c1.1,-5.59 2.12,-13.07 2.12,-13.07 -3.78,-3.84 -12.95,-11.95 -18.11,-21.84 -6.93,-13.31 -3.17,-20.25 -9.61,-37.55 0,0 1.98,-4.03 6.52,-4.03z"/>
    <path class="fil6" d="M24454.02 2501.95c0,0 17.74,-7.3 19.29,-12.47l-2.35 -5.93c-1.68,-3.87 -1.45,-8.05 1.8,-10.3l19.11 -13.23 31.96 6.14c0,0 -5.77,-7.24 -5.21,-16.91l-30.52 -6.46 -28.75 17.51c-12.35,9.22 -13.23,24.32 -9.17,33.26l3.84 8.39z"/>
    <path class="fil6" d="M24680.11 2585.3c5.71,-0.23 12.06,-0.31 18.97,-0.31 0,0 16.45,-48.11 17.37,-49.63 -9.22,-4.06 -28.36,-14.23 -35.75,-18.87 4.9,7.3 16.75,15.62 14.4,22.06l-14.99 46.75z"/>
    <path class="fil7" d="M24836.68 2300.04l-454.7 0 0 171.03c0,69.95 50.61,113.74 125.32,113.74 62.4,0 78.87,2.44 102.07,25.46 16,-15.96 29.21,-21.91 56.4,-24.13l0.64 -2.66 14.33 -44.3c-0.8,-1 -24.24,-27.6 -24.24,-27.6 -9.28,3.08 -17.1,3.61 -30.19,3.61 -13.46,0 -28.64,-1.58 -45.13,-4.69 -1.66,-0.37 -3.21,-0.53 -4.74,-0.53 -2.04,0 -2.17,0.16 -2.7,1.17l-2.83 4.68 -5.22 8.62 -9.82 -2.27 -43.65 -10.28 -5.98 9.89 0.9 1.05 5.31 5.86 -2.37 7.61c-3.21,9.96 -13.63,21.62 -16.8,24.82l-10.9 11.69 -9.93 -12.54 -7.48 -9.37c-7.85,-8.8 -9.66,-22.21 -5.24,-36.33 -0.1,0.09 -0.26,0.17 -0.44,0.21l-12.3 5.08 -5.54 -12.03 -3.88 -8.52c-6.69,-15.02 -4.24,-36.96 13.82,-50.21l35.11 -19.82 33.42 6.56c0.8,-3.2 2.01,-14.7 2.95,-17.62 -0.64,-0.07 -1.23,-0.22 -1.91,-0.22l-19.24 7.19 -18.6 -12.8c0,0 -7.26,-7 -0.66,-14.01l17.97 -27.26 -45.59 -57.2 70.05 28.76 4.67 -5.76 9.45 -11.31 10.75 10.2c3.02,2.92 4.76,6.53 5.61,10.13 19.3,7.52 53.91,29.69 56.95,65.74l-10.82 4.35 0 0.26c2.49,2.93 4.53,4.14 5.17,4.25l50.01 4.91c1.27,-0.2 2.84,-0.78 4.62,-1.29 6.22,-2.13 15.52,-5.18 26.6,-5.18 9.01,0 17.71,2.05 26.1,5.97 3.08,-1.16 6.87,-2.01 11.27,-2.3l2.41 -0.06c26.75,0 40.08,19.99 50.75,35.96 1.78,2.76 3.55,5.35 5.41,7.94 9.33,13.19 21.55,32.49 22.04,33.32l5.51 8.61 -6.74 7.85c-5.19,6.02 -13.01,13.08 -26.42,13.08 -2.77,0 -5.79,-0.31 -9.06,-0.92 -2.84,-0.53 -5.46,-1.41 -7.95,-2.44 -0.38,2.65 -0.94,5.79 -1.42,8.48l-8.76 45.77c52.43,-12.89 85.73,-52.49 85.73,-109.17l-0.09 -171.03z"/>
    <path class="fil7" d="M24381.98 2286.28l353.65 0c-17.66,-18.26 -17.4,-41.36 -12.9,-56.37 -5.14,-2.46 -9.4,-5.41 -13.18,-8.68 -13.83,10.18 -56.01,40.91 -67.04,48.61l-2.36 1.58 -138.79 -25.08 -2.82 0c-3.33,0 -8.2,-0.13 -13.54,-0.78 -1.49,6.29 -6.9,10.56 -13.09,10.56 -0.7,0 -1.48,-0.06 -2.22,-0.21 -3.59,-0.63 -6.76,-2.46 -8.86,-5.51 -2.18,-2.99 -3.04,-6.54 -2.43,-10.17l0.51 -3.02c-14.3,-10.06 -27.52,-32.61 -21.66,-56.34l0.57 -2.51 2.03 -1.46c0.28,-0.2 2.67,-1.85 6.27,-3.88l-10.09 -1.55c-3.77,-0.67 -6.3,-4.18 -5.73,-7.92 0.66,-3.77 4.2,-6.46 7.93,-5.73l24.02 3.8 2.19 -84.6 35.74 -37.82 22.32 46.97 -23.55 81.38 21.23 3.36c3.75,0.58 6.29,4.09 5.73,7.93 -0.55,3.4 -3.47,5.71 -6.81,5.71 -0.36,0 -0.74,0 -1.08,-0.06l-17.28 -2.77c0.25,0.52 0.57,0.83 0.79,1.37 1.83,3.81 5.91,6.51 8.3,7.69l105.8 1.67c4.48,-4.36 15.58,-15.22 27.02,-26.73 -26.05,-9.89 -35.51,-32.31 -37.08,-47.21 -14.56,-6.21 -24.61,-15.5 -30.18,-27.55 -6.77,-14.96 -4.38,-29.95 -2.55,-37.23 -14.11,-5.15 -28.95,-14.53 -44.1,-29.58l-159.38 0c6.83,18.36 12.62,38.24 12.62,58.01l0 204.12z"/>
    <path class="fil5" d="M24527.59 2374.24c-2.59,-0.23 -4.74,1.78 -4.96,4.29 -0.17,2.65 1.77,4.88 4.39,4.96 2.54,0.2 4.75,-1.74 4.98,-4.33 0.1,-2.49 -1.78,-4.8 -4.41,-4.92z"/>
    <path class="fil5" d="M24738.33 2732.87l-20.74 -57.13c24.69,-7.52 67.19,-23.71 86.22,-34.46l-12.7 41.57 43.04 14.31c-26.04,13.06 -57.6,25.24 -95.82,35.71zm-128.94 51.36c-50.05,0 -107.18,-11.52 -124.02,-17.52l25.57 -69.18c21.21,6.2 65.35,12.76 97.37,12.56l2.03 0c32.02,0.2 76.09,-6.36 97.41,-12.56l25.52 69.18c-16.82,6 -73.94,17.52 -123.88,17.52zm-224.89 -87.07l43.09 -14.31 -12.74 -41.57c19.01,10.75 61.56,26.94 86.22,34.46l-20.78 57.13c-38.1,-10.47 -69.79,-22.65 -95.79,-35.71zm451.57 -12.7l-26.19 -10.05 7.23 -27.07 7.97 -29.49c0,0 -46.41,25.18 -111.82,44.09 -18.55,5.3 -32.6,7.73 -32.6,7.73l0 20.1c0,0 -34.98,6.07 -70.32,6.07l-2.03 0c-35.38,0 -70.32,-6.07 -70.32,-6.07l0 -20.1c0,0 -14.06,-2.43 -32.6,-7.73 -65.38,-18.91 -111.76,-44.09 -111.76,-44.09l7.84 29.49 7.38 27.07 -26.28 10.05 -29.14 10.89c33.4,16.12 79.68,39.59 122.04,51.18l-9.99 27.31c0,0 53.73,24.47 143.21,24.7l0 0.04 1.23 0 0 -0.04c89.6,-0.23 143.27,-24.7 143.27,-24.7l-10.03 -27.31c42.37,-11.59 88.74,-35.06 121.99,-51.18l-29.08 -10.89z"/>
    <path class="fil5" d="M24499.96 1583.27l11.9 1.24 5.14 -10.86 15 -32.08 27.86 14.41 10.77 5.5 8.6 -8.5 30.04 -29.81 30.12 29.81 8.63 8.5 10.78 -5.5 27.7 -14.41 15.2 32.08 5.05 10.86 11.91 -1.24 11.38 -1.38c-5.2,11.74 -9.05,22.9 -11.8,32.12 -30.06,-16.74 -69.11,-26.28 -108.97,-26.28 -39.66,0 -78.69,9.54 -108.84,26.28 -2.8,-9.22 -6.6,-20.38 -11.81,-32.12l11.34 1.38zm109.31 21.2c53.33,0 95.99,17.67 119.55,36.5 0,0 7,-42.15 30.9,-79.33l-42.94 4.88 -22.48 -47.73 -43.15 22.25 -41.88 -41.37 -41.74 41.37 -43.25 -22.25 -22.44 47.73 -42.93 -4.88c23.92,37.18 30.89,79.33 30.89,79.33 23.73,-18.83 66.23,-36.5 119.47,-36.5z"/>
    <path class="fil5" d="M25285.05 2313.38c0,0 -18.56,32.28 -61.16,32.28l-0.52 0c-51.14,-0.29 -71.75,-31.48 -71.75,-31.48 0,0 2.95,40.57 -15.45,95.33 -22.19,66.02 0.18,113.15 0.18,113.15 0,0 -11.94,3.24 -25.68,3.24 -5.25,0 -10.75,-0.52 -15.93,-1.87 -42.7,-10.14 -53.36,-49.02 -53.36,-49.02 0,0 3.94,131.31 -149.16,131.31l-1.19 0c0,0 13.49,-18.36 17.46,-71.17 7.28,-97.41 73.24,-110.79 73.24,-110.79 0,0 -35.2,-4.44 -50.46,-18.09 -23.86,-21.64 -22.17,-46.62 -22.17,-46.62 53.87,-0.76 89.16,-19.09 116.04,-50.19 29.13,-33.68 33.92,-69.97 33.92,-69.97 0,0 -28.97,26.25 -84.96,26.25 -4.94,0 -10.19,-0.24 -15.59,-0.77 -26.52,-2.15 -44.82,-18.98 -44.82,-18.98 58.31,-37.4 99.19,-102.62 62.93,-200.85 -29.07,-78.73 -98.89,-137.54 -169.19,-181.83 -23.38,-14.6 -36.43,-30.85 -36.43,-44.82 0,-32.9 46.8,-33.95 65.96,-56.04 22.15,-25.71 8.27,-67.34 -10.93,-92.43 0,0 6.47,-1.32 16.66,-1.32 20.24,0 55.25,5.08 84.03,34.93 38.22,39.53 22.37,82.6 22.37,82.6l10.24 2c6.11,1.28 12.22,1.52 18.53,1.85 1.37,0 2.78,0.07 4.12,0.07 55.52,0 80.34,-58.04 80.34,-58.04 0,0 59.02,72.6 -27.89,129.5 -14.94,9.73 -21.55,18.75 -19.81,28.36l1.35 6.31 6.19 1.11c62.97,17.08 94.86,60.54 133.78,109.94 59.13,75.12 142.72,77.55 153.04,77.55l1.12 0c0,0 -19.06,60.25 -75.31,60.25 -0.94,0 -1.75,0 -2.66,-0.07 -25.84,-0.92 -39.1,-10.81 -39.1,-10.81 0,0 -10.07,136.74 92.02,179.13zm-50.26 -149.83c68.94,0 92.03,-70.13 92.97,-73.13l7.7 -24.73 -25.84 0.81 -0.1 0c-9.1,0 -85.19,-2.02 -139.13,-70.57l-5.09 -6.37c-35.24,-44.79 -68.65,-87.44 -128.41,-106.87 1.72,-1.56 4.19,-3.48 7.59,-5.69 31.71,-20.84 50.15,-46.18 54.79,-75.58 6.78,-44.24 -21.46,-79.54 -22.69,-80.97l-19.2 -23.74 -12 28.16c-0.79,1.78 -20.97,46.86 -63.4,46.86l-3.16 0c-2.9,-0.17 -5.7,-0.29 -8.41,-0.51 1.49,-20.1 -2.17,-51.22 -30.4,-80.43 -33.94,-35.14 -75.56,-40.41 -97.32,-40.41 -11.62,0 -19.34,1.43 -20.21,1.51l-28.98 5.76 17.89 23.58c14.03,18.18 26.75,51.72 11.66,69.23 -4.84,5.57 -14.76,10.09 -24.24,14.63 -19.51,8.98 -46.2,21.53 -46.2,53.4 0,20.62 16.02,42.2 45.02,60.53 85.85,53.99 138.81,110.33 161.7,172.52 35.39,95.67 -10.8,150.23 -55.63,179l-20.11 12.92 17.6 16.18c2.38,2.1 23.88,21.07 55.72,23.79 6.03,0.38 11.77,0.72 17.19,0.72 20.37,0 37.75,-3.2 51.86,-7.52 -3.86,6.8 -8.66,13.75 -14.65,20.73 -25.63,29.68 -57.17,43.2 -102.51,43.92l-16.85 0.28 -1.29 16.9c-0.17,3.41 -1.43,34.77 28.23,61.39 4.53,4.14 10.01,7.54 15.78,10.29 -20.14,18.13 -40.57,49.68 -44.52,103.71 -3.35,45.1 -14.09,61.79 -14.23,61.95l-18.63 28.44 33.67 0.44c55.61,0 98.18,-15.31 127.69,-45.73 17.44,-18 27.41,-38.3 33.3,-56.29 9.68,8.25 22.15,15.49 38.46,19.33 6.17,1.44 12.94,2.22 20.26,2.22 15.7,0 28.86,-3.33 30.33,-3.68l21.47 -5.71 -9.49 -20.04c-0.7,-1.62 -18.62,-41.88 0.67,-99.29 8.29,-24.84 12.55,-47.06 14.61,-64.38 13.53,7.04 31.65,12.88 55.08,12.96 53.19,0 76.66,-39.76 77.71,-41.42l10.47 -18.25 -19.42 -8c-63.4,-26.31 -77.44,-97.01 -80.24,-135.26 5.73,1.11 12.28,2.12 19.67,2.33l3.26 0.08z"/>
    <path class="fil5" d="M25157.31 1863.47c12.85,0 27.82,4.38 41.98,19 44.44,45.11 85.76,47.63 85.76,47.63 -7.5,16.64 -29.29,31.22 -51.84,31.22 -5.21,0 -10.45,-0.78 -15.63,-2.59 -30.57,-10.31 -41.51,-56.16 -95.2,-84.73 0,0 14.97,-10.53 34.93,-10.53zm-43.68 26.84c25.71,13.7 40.71,32.06 53.83,48.34 12.92,15.9 25.16,31.18 44.34,37.54 6.81,2.33 14.04,3.46 21.41,3.46 28.76,0 57.66,-17.62 68.62,-42l11.03 -24.44 -26.68 -1.58c-1.25,-0.02 -35.55,-3.18 -73.73,-42.17 -15.69,-16 -34.69,-24.39 -55.14,-24.39 -25,0 -43.52,12.48 -45.58,13.77l-24.5 17.27 26.4 14.2z"/>
    <path class="fil5" d="M25125.71 2133.84l0 0.95c-15.47,-124.87 -106.14,-215.05 -207.05,-269.85 -9.33,-5.02 -17.96,-9.25 -26.32,-13.3 30.7,4.76 80.19,5.32 118.39,-27.8 0,0 -58.44,42.99 -178.11,3.95 33.1,21.49 97.48,51.83 156.27,100.97 146.91,129.09 41.82,255.01 41.82,255.01 52.79,-55.1 54.98,-114.12 39.45,-162.32 27.8,46.28 45.57,102.42 42.8,171.71 -4.04,99.22 -58.58,185.04 -115.97,254 -27.57,33.45 -33.74,74.56 -33.74,74.56 0,0 11.14,-36.27 43.05,-73.61 61.5,-71.99 114.11,-146.78 120.99,-254.56 6.34,19.56 32.56,73.93 74.1,94.4 0,0 -52.22,-31.46 -75.68,-154.11z"/>
    <path class="fil5" d="M24326.43 2606.32c-153.13,0 -149.21,-131.31 -149.21,-131.31 0,0 -10.68,38.88 -53.35,49.02 -5.11,1.35 -10.56,1.87 -15.91,1.87 -13.73,0 -25.61,-3.24 -25.61,-3.24 0,0 22.25,-47.16 0.06,-113.15 -18.34,-54.74 -15.37,-95.33 -15.37,-95.33 0,0 -20.59,31.19 -71.77,31.48l-0.51 0c-42.56,0 -61.15,-32.3 -61.15,-32.3 102.02,-42.37 92.04,-179.11 92.04,-179.11 0,0 -13.27,9.89 -39.14,10.81 -0.94,0.05 -1.79,0.05 -2.68,0.05 -56.27,0 -75.35,-60.23 -75.35,-60.23l1.15 0c10.4,0 93.92,-2.43 153,-77.55 38.93,-49.4 70.85,-92.84 133.73,-109.94l6.32 -1.11 1.36 -6.31c1.74,-9.61 -4.85,-18.63 -19.78,-28.36 -86.91,-56.9 -27.9,-129.49 -27.9,-129.49 0,0 24.69,58.03 80.36,58.03 1.35,0 2.63,-0.05 4.06,-0.05 6.24,-0.35 12.42,-0.59 18.54,-1.88l10.23 -1.99c0,0 -15.9,-43.08 22.41,-82.61 28.79,-29.84 63.78,-34.91 84,-34.91 10.24,0 16.6,1.3 16.6,1.3 -19.13,25.1 -33.01,66.73 -10.87,92.44 19.17,22.08 65.89,23.14 65.89,56.04 0,13.97 -13.01,30.22 -36.38,44.82 -70.35,44.29 -140.15,103.09 -169.19,181.83 -36.23,98.24 4.65,163.45 63.04,200.85 0,0 -18.36,16.83 -44.91,18.98 -5.4,0.53 -10.62,0.77 -15.64,0.77 -55.94,0 -84.91,-26.25 -84.91,-26.25 0,0 4.82,36.29 33.78,69.97 27.05,31.1 62.31,49.43 116.17,50.19 0,0 1.71,24.98 -22.11,46.62 -15.28,13.65 -50.52,18.09 -50.52,18.09 0,0 66.02,13.36 73.28,110.79 3.95,52.81 17.33,71.17 17.33,71.17l-1.09 0zm16.27 -10.52c-0.04,-0.16 -10.74,-16.85 -14.16,-61.95 -4,-54.03 -24.43,-85.58 -44.61,-103.71 5.82,-2.77 11.23,-6.15 15.78,-10.29 29.64,-26.62 28.37,-57.98 28.17,-61.39l-1.14 -16.9 -16.97 -0.28c-45.21,-0.72 -76.81,-14.24 -102.43,-43.92 -5.94,-6.98 -10.76,-13.93 -14.67,-20.73 14.11,4.32 31.38,7.52 51.83,7.52 5.47,0 11.18,-0.34 17.2,-0.72 31.82,-2.74 53.38,-21.69 55.76,-23.79l17.63 -16.18 -20.11 -12.92c-45,-28.77 -91,-83.33 -55.66,-179 22.89,-62.19 75.77,-118.53 161.75,-172.52 29,-18.33 44.89,-39.91 44.89,-60.53 0,-31.87 -26.61,-44.42 -46.13,-53.4 -9.51,-4.54 -19.41,-9.06 -24.24,-14.63 -15.11,-17.51 -2.38,-51.05 11.66,-69.23l18 -23.58 -29.13 -5.76c-0.86,-0.08 -8.51,-1.51 -20.16,-1.51 -21.78,0 -63.3,5.27 -97.22,40.41 -28.28,29.23 -32,60.33 -30.54,80.43 -2.73,0.22 -5.49,0.34 -8.38,0.49l-3.1 0c-42.55,0 -62.65,-45.06 -63.45,-46.84l-11.95 -28.16 -19.38 23.74c-1.09,1.43 -29.4,36.73 -22.51,80.97 4.57,29.38 23.05,54.74 54.76,75.58 3.45,2.21 5.84,4.13 7.58,5.69 -59.84,19.43 -93.22,62.08 -128.47,106.87l-5.07 6.37c-53.87,68.55 -130.11,70.57 -139.22,70.57l-25.99 -0.81 7.9 24.73c0.92,3 23.91,73.13 92.91,73.13l3.33 -0.08c7.3,-0.21 13.84,-1.22 19.66,-2.33 -2.85,38.25 -16.93,108.93 -80.33,135.26l-19.36 8 10.47 18.24c1.02,1.67 24.54,41.4 77.83,41.4 23.3,-0.05 41.41,-5.89 54.95,-12.91 2.06,17.3 6.31,39.52 14.63,64.36 19.29,57.41 1.33,97.67 0.65,99.29l-9.54 20.04 21.54 5.71c1.43,0.35 14.66,3.68 30.3,3.68 7.32,0 14.1,-0.78 20.21,-2.22 16.33,-3.84 28.94,-11.08 38.53,-19.33 5.84,17.99 15.85,38.29 33.25,56.29 29.59,30.4 72.13,45.73 127.7,45.73l33.69 -0.44 -18.64 -28.44z"/>
    <path class="fil5" d="M24019.32 1882.47c14.2,-14.62 29.15,-19.01 42.07,-19.01 19.85,0 34.88,10.54 34.88,10.54 -53.64,28.58 -64.7,74.43 -95.33,84.74 -5.07,1.81 -10.31,2.57 -15.54,2.57 -22.53,0 -44.34,-14.57 -51.78,-31.22 0,0 41.3,-2.52 85.7,-47.62zm-33.92 97.16c7.39,0 14.6,-1.09 21.44,-3.44 19.23,-6.37 31.45,-21.63 44.36,-37.56 13.2,-16.25 28.04,-34.63 53.77,-48.32l26.48 -14.19 -24.59 -17.28c-2.05,-1.29 -20.5,-13.75 -45.47,-13.75 -20.51,0 -39.53,8.37 -55.22,24.39 -38.2,38.98 -72.42,42.13 -73.66,42.17l-26.64 1.56 10.95 24.45c10.99,24.36 39.87,41.97 68.58,41.97z"/>
    <path class="fil5" d="M24105.73 2193.16c-2.87,-69.28 14.91,-125.43 42.76,-171.72 -15.52,48.21 -13.42,107.23 39.45,162.35 0,0 -105.12,-125.94 41.86,-255.03 58.76,-49.14 123.09,-79.48 156.19,-100.97 -119.64,39.04 -178.06,-3.94 -178.06,-3.94 38.17,33.12 87.65,32.56 118.33,27.78 -8.28,4.06 -17,8.29 -26.27,13.31 -100.94,54.8 -191.56,144.98 -207.1,269.87l0 -0.97c-23.44,122.65 -75.62,154.11 -75.62,154.11 41.51,-20.49 67.66,-74.84 74.02,-94.4 6.94,107.78 59.53,182.54 121.03,254.56 31.9,37.34 43.15,73.61 43.15,73.61 0,0 -6.23,-41.11 -33.95,-74.57 -57.28,-68.93 -111.79,-154.77 -115.79,-253.99z"/>
    <path class="fil5" d="M24574.73 1940.49l0 24.78c8.56,-10.4 25.04,-8.28 25.04,-8.28l0 35.7c0,0 -0.57,17.57 -6.81,25.17l35.71 0c-6.16,-7.6 -6.79,-25.17 -6.79,-25.17l0 -35.7c0,0 16.54,-2.12 25.02,8.28l0 -24.78 -72.17 0z"/>
    <path class="fil5" d="M24559.39 1793.65c11.44,9.05 18.02,10.56 18.24,10.71l4.46 2.06 0 -23.31 -41.95 -17.65c0,0 0.35,13.51 19.25,28.19z"/>
    <path class="fil5" d="M24659.2 1793.65c18.96,-14.68 19.32,-28.19 19.32,-28.19l-41.97 17.65 0 23.31 4.43 -2.06c0.23,-0.15 6.81,-1.66 18.22,-10.71z"/>
    <path class="fil5" d="M24609.27 1731.53l-101.1 -39.92c8.62,-20.37 48.26,-37.68 101.1,-37.74 52.93,0.06 92.58,17.37 101.13,37.74l-101.13 39.92zm75.39 125.15l-67.96 35.8 0 -145 92.23 -31.31 -24.27 140.51zm42.09 38.48l31.08 18.05 0.43 0 7.81 4.55c-17.55,4.84 -30.94,13.63 -42.2,25.15 -0.43,0.35 -0.79,0.78 -1.24,1.21 -2.58,2.75 -5.13,5.71 -7.59,8.77 -0.45,0.58 -0.95,1.19 -1.44,1.85 -2.4,3.09 -4.67,6.29 -6.85,9.58 -0.36,0.55 -0.77,1.12 -1.15,1.67 -2.56,3.84 -5.04,7.94 -7.49,12.19 -22.13,38.13 -57.44,60.91 -88.84,60.96 -31.36,-0.05 -66.68,-22.83 -88.78,-60.96 -2.39,-4.13 -4.83,-8.15 -7.39,-12.01 -0.5,-0.73 -0.97,-1.48 -1.43,-2.11 -2.17,-3.17 -4.36,-6.27 -6.57,-9.19 -0.56,-0.79 -1.08,-1.4 -1.64,-2.09 -2.39,-2.95 -4.87,-5.87 -7.36,-8.57 -0.54,-0.43 -0.89,-0.95 -1.36,-1.38 -11.31,-11.54 -24.66,-20.23 -42.24,-25.07l7.89 -4.55 0.35 0 31.13 -18.05 31.93 -18.29 85.32 46.44 0.15 -0.19 0.25 0.19 85.3 -46.44 31.93 18.29zm122.57 128.99c-6.95,18.36 -12.7,38.22 -12.7,58l0.06 127.62c-26.67,-4.47 -29.82,-33.18 -29.92,-34.44l-0.5 -5.84 -5.74 -0.5c-11.6,-1.12 -19.27,-6 -25.75,-12.31 -13.08,-13.08 -13.11,-34.26 -13.08,-34.45 -0.19,1.08 -14.38,20.99 2.1,42.73 6.94,9.15 17,14.78 30,17 3.06,15.93 14.91,38.42 42.89,41.83l0 62.46 -78.68 0c-36.27,-20.17 -20.9,-55.71 -20.2,-57.22l3.07 -6.75 -6.94 -2.62c-39.29,-14.56 -28.47,-53.76 -27.95,-55.46l1.58 -5.71 -5.35 -2.54c-32.42,-15.04 -28.04,-55.53 -27.61,-57.23 -9.99,8.1 -13.58,24.59 -6.71,40.77 -3.7,4.26 -8.7,9.39 -14.18,15.04 -33.6,-8.57 -34.64,-39.43 -34.64,-40.84l-0.07 -4.76 -4.42 -1.7c-13.11,-4.87 -22.12,-12.15 -26.56,-21.93 -4.98,-10.84 -3.22,-22.2 -1.87,-27.66 3.86,0.88 7.68,1.48 11.34,1.78 3.78,0.39 7.65,0.64 11.55,0.64l0.53 0c3.9,0 7.73,-0.25 11.53,-0.64 20.94,-2.07 44.36,-11.06 68.79,-35.27l159.43 0zm-98.29 556.09l8.79 -45.77c0.46,-2.69 1.02,-5.83 1.4,-8.48 2.49,1.05 5.1,1.89 7.93,2.42 3.3,0.63 6.32,0.94 9.07,0.94 13.41,0 21.23,-7.06 26.43,-13.06l6.73 -7.87 -5.51 -8.61c-0.48,-0.85 -12.69,-20.13 -22.04,-33.32 -1.86,-2.59 -3.61,-5.18 -5.39,-7.96 -10.67,-15.95 -24,-35.94 -50.78,-35.94l-2.39 0.06c-4.4,0.27 -8.19,1.14 -11.26,2.3 -8.41,-3.93 -17.08,-5.97 -26.1,-5.97 -11.09,0 -20.39,3.05 -26.6,5.16 -1.79,0.51 -3.36,1.09 -4.62,1.33l-50.02 -4.92c-0.64,-0.12 -2.68,-1.34 -5.16,-4.29l0 -0.23 10.82 -4.35c-3.06,-36.05 -37.66,-58.22 -56.96,-65.74 -0.84,-3.6 -2.58,-7.19 -5.61,-10.14l-10.75 -10.2 -9.45 11.32 -4.66 5.79 -70.05 -28.78 45.58 57.21 -17.99 27.24c-6.57,6.98 0.69,14.01 0.69,14.01l18.57 12.8 19.26 -7.19c0.68,0 1.26,0.15 1.91,0.22 -0.93,2.95 -2.14,14.42 -2.95,17.62l-33.43 -6.56 -35.11 19.82c-18.05,13.27 -20.51,35.19 -13.81,50.21l3.89 8.52 5.54 12.03 12.29 -5.08c0.16,-0.04 0.35,-0.12 0.45,-0.21 -4.42,14.12 -2.61,27.53 5.24,36.33l7.47 9.37 9.92 12.54 10.9 -11.69c3.19,-3.2 13.62,-14.86 16.81,-24.82l2.36 -7.61 -5.31 -5.86 -0.88 -1.05 5.98 -9.87 43.63 10.27 9.83 2.26 5.22 -8.63 2.84 -4.67c0.53,-1.01 0.66,-1.17 2.68,-1.17 1.55,0 3.09,0.16 4.75,0.53 16.49,3.11 31.66,4.66 45.14,4.66 13.07,0 20.9,-0.5 30.19,-3.58 0,0 23.42,26.6 24.23,27.62l-14.34 44.28 -0.64 2.66c-27.18,2.22 -40.39,8.17 -56.39,24.13 -23.22,-23.02 -39.67,-25.46 -102.06,-25.46 -74.71,0 -125.33,-43.79 -125.33,-113.75l0 -171.02 454.7 0 0.08 171.02c0,56.7 -33.29,96.29 -85.73,109.18zm-280.08 -96.69l2.36 5.91c-1.55,5.18 -19.29,12.49 -19.29,12.49l-3.84 -8.39c-4.06,-8.94 -3.18,-24.04 9.17,-33.26l28.75 -17.51 30.52 6.46c-0.58,9.69 5.21,16.93 5.21,16.93l-31.96 -6.16 -19.11 13.23c-3.26,2.25 -3.48,6.43 -1.81,10.3zm275.26 48.34l-9.81 51.15c-6.27,0.88 -12.87,1.34 -19.69,1.6l10.34 -49.15c3.08,-14.6 -36.15,-19.16 -55.54,-47.9 -9.46,10.65 -27.28,13.82 -45.19,13.82 -16.34,0 -32.65,-2.6 -42.59,-4.56 -2.51,-0.41 -4.92,-0.66 -7.3,-0.66 -5.73,0 -10.95,1.77 -14.57,7.81l-2.84 4.83 -53.46 -12.61 -13.29 22.03c-1.88,3.59 -2.03,6.58 1,9.92l3.62 3.94c-2.5,7.77 -13.61,19.56 -13.61,19.56l-7.94 -9.91c-6.29,-7.05 -5.26,-19.92 1.29,-31.85l21.2 -35.78 45.29 6.51 -7.02 -16.01c-9.47,-21.22 4.95,-48.2 6.49,-63.74 -0.53,4.69 -4.85,5.75 -9.86,5.75 -4.57,0 -9.67,-0.87 -13.06,-0.87 -1.33,0 -2.47,0.13 -3.08,0.59l-12.28 7.45 -9.67 -8.56c-1.17,-1.64 -1.53,-5.49 1.3,-8.37l22.4 -25.12 -26.47 -30.94 37.06 18.63 11.32 -13.71c3.12,3.03 1.76,11.01 1.76,11.01 11.56,0.27 44,18.2 45.72,60.09 0.08,1.27 0.08,2.71 0.08,4.08 0,0 0.31,0.52 0.89,1.39 2.27,3.16 8.62,11.21 16.64,11.98l51.21 5.07 0.21 0c5.61,0 16.8,-6.59 31.15,-6.59 7.8,0 16.49,1.98 25.77,7.81 0,0 4.66,-3.69 12.22,-4.06 0.56,-0.08 1.23,-0.08 1.76,-0.08 22.97,0 32.51,20.77 44.85,38.02 9.25,13.13 21.66,32.63 21.66,32.63 -4.58,5.43 -8.81,8.44 -15.95,8.44 -1.96,0 -4.18,-0.15 -6.61,-0.65 -24.64,-4.52 -28.19,-55.19 -42.25,-59.18 -0.76,-0.2 -1.52,-0.3 -2.23,-0.3 -4.54,0 -6.51,4.03 -6.51,4.03 6.43,17.28 2.66,24.24 9.6,37.55 5.16,9.89 14.33,18 18.11,21.84 0,0 -1.02,7.48 -2.12,13.07zm-47.14 53.1c-6.9,0 -13.27,0.09 -18.96,0.31l15 -46.72c2.35,-6.47 -9.51,-14.79 -14.41,-22.1 7.39,4.65 26.55,14.82 35.75,18.88 -0.92,1.52 -17.38,49.63 -17.38,49.63zm-223.11 -421.1l2.14 -81.25 18.24 -19.29 11.45 23.97 -22.59 77.99 -9.24 -1.42zm13.11 25.15c2.99,6.26 8.36,10.42 12.12,12.81 -0.12,5.87 -0.68,14.94 -2.23,22.98 -0.37,1.8 -0.82,3.46 -1.33,5.08 -0.25,1.06 -0.56,1.9 -0.77,2.59 -5.58,0 -16.49,-0.69 -25.47,-3.94 -9.9,-3.66 -24.68,-21.84 -21.28,-41.88 4.28,-2.61 14.23,-8.19 23.53,-8.19 7.12,0 12.04,3.36 15.43,10.55zm211.15 21.84c-14.01,10.33 -50.14,36.71 -63.24,45.86l-126.11 -22.67c0.29,-1.13 0.6,-2.26 0.88,-3.37 1.65,-6.54 3.34,-15.46 3.43,-25.97l105.99 1.7 2.04 -2.07c1.61,-1.61 35.18,-34.06 52.31,-52.71 4.06,5.11 9.14,9.97 15.83,14.25 -2.29,12.43 -1.32,30.09 8.87,44.98zm-171.49 -186.73c15.16,15.05 30.01,24.43 44.1,29.57 -1.82,7.28 -4.22,22.28 2.55,37.24 5.58,12.06 15.63,21.34 30.19,27.54 1.58,14.92 11.03,37.33 37.08,47.2 -11.43,11.52 -22.54,22.39 -27.03,26.75l-105.78 -1.67c-2.39,-1.18 -6.48,-3.9 -8.31,-7.71 -0.21,-0.53 -0.56,-0.83 -0.77,-1.35l17.26 2.79c0.36,0.04 0.72,0.04 1.08,0.04 3.35,0 6.25,-2.31 6.81,-5.73 0.56,-3.82 -1.98,-7.33 -5.72,-7.92l-21.23 -3.35 23.55 -81.37 -22.31 -46.98 -35.75 37.83 -2.2 84.59 -24.04 -3.81c-3.71,-0.73 -7.26,1.97 -7.91,5.74 -0.59,3.72 1.96,7.27 5.73,7.94l10.09 1.53c-3.6,2.03 -5.99,3.68 -6.26,3.9l-2.04 1.42 -0.58 2.51c-5.84,23.76 7.38,46.3 21.67,56.39l-0.5 2.99c-0.59,3.66 0.24,7.2 2.43,10.17 2.09,3.05 5.24,4.88 8.85,5.51 0.73,0.15 1.53,0.21 2.22,0.21 6.19,0 11.6,-4.29 13.11,-10.56 5.32,0.65 10.19,0.78 13.52,0.78l2.83 0 138.78 25.08 2.36 -1.58c11.04,-7.72 53.2,-38.43 67.03,-48.61 3.8,3.27 8.05,6.22 13.18,8.68 -4.48,15.01 -4.75,38.11 12.92,56.34l-353.66 0 0 -204.1c0,-19.78 -5.79,-39.64 -12.63,-58l159.38 0zm-19.12 -307.98l92.29 31.31 0 145 -67.95 -35.8 -24.34 -140.51zm225.17 -17.49c0,-35.38 -59.56,-67.22 -125.29,-67.22l-0.37 0c-65.73,0 -125.3,31.84 -125.3,67.22l1.32 8.69 26.24 150.69 -26.36 15.3 -68.22 39.85 0.26 0c0,0 -15.35,7.86 -22.48,12.72 -25.97,18.03 -31.49,44.37 -16.4,55.24 3.71,-21.47 20.68,-43.89 52.45,-43.89 22.88,0 40.32,11.81 54.39,29.51 3.63,4.47 7.07,9.25 10.27,14.38 3.95,6.47 7.92,12.17 11.84,17.63l-175.71 0c12.91,25.97 25.19,53.46 25.19,83.35l0 388.91c0,94.16 72.39,139.06 150.7,139.06 60.53,0 68.67,-2.75 102.06,30.53 33.24,-33.28 41.41,-30.53 101.98,-30.53 78.35,0 150.64,-44.9 150.64,-139.06l0 -388.91c0,-29.89 12.27,-57.38 25.24,-83.35l-175.77 0c3.92,-5.46 7.87,-11.16 11.82,-17.63 3.26,-5.13 6.67,-9.91 10.22,-14.38 14.19,-17.77 31.6,-29.51 54.49,-29.51 31.74,0 48.69,22.42 52.46,43.89 15.08,-10.87 9.62,-37.21 -16.5,-55.24 -7,-4.86 -22.36,-12.72 -22.36,-12.72l0.23 0 -68.32 -39.85 -26.25 -15.3 26.25 -150.69 1.28 -8.69z"/>
   </g>
   <polygon class="fil8" points="17367.31,3425.84 17367.31,3601.85 17542.13,3425.84 17544.52,3425.84 17544.52,3663.46 17514.09,3663.46 17514.09,3488.79 17340.61,3663.46 17336.88,3663.46 17336.88,3425.84 "/>
   <path id="1" class="fil8" d="M17738.65 3637.51l91.74 -211.67 15.96 0 91.22 211.67 28.49 0 0 56.38 -29.54 0 0 -30.43 -196.45 0 0 31.77 -30.43 0 0 -57.72 29.01 0zm99.2 -163.86l-69.51 163.86 136.19 0 -66.68 -163.86z"/>
   <path id="2" class="fil8" d="M18007.68 3425.84l30.43 0 0 43.7c12.08,-16.63 25.95,-29.01 41.69,-37.21 15.74,-8.21 33.26,-12.31 52.66,-12.31 33.78,0 62.65,12.16 86.66,36.4 24.02,24.24 36.02,53.47 36.02,87.56 0,34.9 -11.93,64.44 -35.72,88.83 -23.79,24.31 -52.51,36.47 -86.14,36.47 -18.87,0 -36.25,-3.96 -52.14,-11.79 -15.88,-7.9 -30.2,-19.61 -43.03,-35.2l0 127.98 -30.43 0 0 -324.43zm122.54 23.72c-26.48,0 -48.71,9.17 -66.75,27.59 -18.13,18.42 -27.15,41.32 -27.15,68.69 0,17.98 4.02,34.16 12.08,48.48 8.05,14.4 19.62,25.73 34.61,34.16 15.06,8.43 30.95,12.61 47.58,12.61 16.41,0 31.85,-4.26 46.32,-12.76 14.47,-8.43 25.95,-20.29 34.53,-35.5 8.58,-15.22 12.83,-31.18 12.83,-47.81 0,-16.85 -4.25,-32.81 -12.76,-47.88 -8.5,-15.07 -19.91,-26.78 -34.3,-35.05 -14.32,-8.36 -30.06,-12.53 -46.99,-12.53z"/>
   <polygon id="3" class="fil8" points="18286.99,3425.84 18318.76,3425.84 18400.73,3608.04 18480.39,3425.84 18512.98,3425.84 18371.12,3750.27 18338.53,3750.27 18385.07,3643.92 "/>
   <polygon id="4" class="fil8" points="18582.86,3452.69 18582.86,3663.46 18552.43,3663.46 18552.43,3425.84 18672.81,3425.84 18672.81,3452.69 "/>
   <polygon id="5" class="fil8" points="18744.33,3425.84 18744.33,3601.85 18919.15,3425.84 18921.54,3425.84 18921.54,3663.46 18891.11,3663.46 18891.11,3488.79 18717.63,3663.46 18713.9,3663.46 18713.9,3425.84 "/>
   <path id="6" class="fil8" d="M19190.26 3584.7l25.8 13.57c-8.5,16.49 -18.27,29.84 -29.38,39.98 -11.11,10.07 -23.57,17.83 -37.44,23.12 -13.95,5.3 -29.61,7.91 -47.14,7.91 -38.93,0 -69.29,-12.68 -91.21,-38.04 -21.93,-25.36 -32.9,-54 -32.9,-85.92 0,-30.06 9.33,-56.91 27.9,-80.4 23.49,-29.91 55.04,-44.9 94.5,-44.9 40.64,0 73.16,15.36 97.4,46.02 17.23,21.63 26.03,48.63 26.33,81.07l-214.8 0c0.6,27.52 9.47,50.05 26.55,67.57 17.16,17.6 38.34,26.41 63.47,26.41 12.16,0 24.02,-2.09 35.5,-6.27 11.49,-4.18 21.26,-9.7 29.31,-16.63 8.06,-6.94 16.79,-18.05 26.11,-33.49zm0.3 -63.99c-4.1,-16.34 -10.07,-29.31 -17.9,-39.08 -7.91,-9.77 -18.28,-17.61 -31.18,-23.57 -12.9,-5.97 -26.48,-8.95 -40.65,-8.95 -23.49,0 -43.63,7.46 -60.48,22.45 -12.38,10.96 -21.63,27.29 -27.97,49.15l178.18 0z"/>
   <path id="7" class="fil8" d="M19632.09 3328.73l0 29.09c-14.62,2.53 -39.61,4.32 -75.11,5.37 -25.65,0.89 -45.49,2.61 -59.44,5.14 -13.95,2.61 -26.11,7.46 -36.47,14.7 -10.29,7.31 -19.02,18.27 -26.11,32.96 -7.08,14.7 -11.48,31.18 -13.27,49.3l-3.06 33.64c8.35,-27.3 22,-47.21 41.1,-59.89 19.01,-12.68 40.2,-19.02 63.39,-19.02 35.35,0 64.89,12.38 88.61,37.07 23.71,24.69 35.57,54.07 35.57,88.23 0,33.86 -11.86,62.95 -35.5,87.34 -23.64,24.39 -53.25,36.62 -88.75,36.62 -36.4,0 -67.2,-13.58 -92.49,-40.65 -25.28,-27.07 -37.89,-69.74 -37.89,-127.99 0,-40.57 4.63,-71.37 13.88,-92.25 9.32,-20.89 19.91,-35.88 31.92,-45.05 11.93,-9.18 27.45,-16.41 46.39,-21.63 19.02,-5.3 54.59,-8.5 106.73,-9.85 16.03,-0.44 29.53,-1.49 40.5,-3.13zm-16.11 217.26c0,-26.25 -9.18,-48.85 -27.6,-67.72 -18.35,-18.87 -40.12,-28.27 -65.33,-28.27 -25.14,0 -46.84,9.47 -65.19,28.42 -18.42,18.94 -27.6,41.47 -27.6,67.72 0,26.03 8.88,48.26 26.56,66.6 17.75,18.28 39.82,27.45 66.23,27.45 26.47,0 48.62,-9.17 66.38,-27.52 17.67,-18.35 26.55,-40.57 26.55,-66.68z"/>
   <path id="8" class="fil8" d="M19940.42 3425.84l0 237.62 -30.43 0 0 -40.87c-12.83,15.59 -27.15,27.3 -43.11,35.05 -15.89,7.76 -33.34,11.64 -52.21,11.64 -33.56,0 -62.28,-12.16 -86.07,-36.47 -23.79,-24.39 -35.65,-53.93 -35.65,-88.83 0,-34.09 12.01,-63.32 36.02,-87.56 23.94,-24.24 52.81,-36.4 86.59,-36.4 19.47,0 37.07,4.1 52.88,12.31 15.74,8.2 29.61,20.58 41.55,37.21l0 -43.7 30.43 0zm-122.47 23.72c-17,0 -32.74,4.17 -47.06,12.53 -14.4,8.27 -25.81,19.98 -34.31,35.05 -8.5,15.07 -12.75,31.03 -12.75,47.88 0,16.63 4.25,32.59 12.83,47.81 8.57,15.21 20.06,27.07 34.53,35.5 14.47,8.5 29.98,12.76 46.54,12.76 16.63,0 32.52,-4.18 47.43,-12.61 14.99,-8.43 26.48,-19.76 34.53,-34.16 8.06,-14.32 12.09,-30.5 12.09,-48.48 0,-27.37 -9.03,-50.27 -27.15,-68.69 -18.05,-18.42 -40.28,-27.59 -66.68,-27.59z"/>
   <polygon id="9" class="fil8" points="20178.56,3548.9 20039.84,3548.9 20039.84,3663.46 20009.41,3663.46 20009.41,3425.84 20039.84,3425.84 20039.84,3520.26 20178.56,3520.26 20178.56,3425.84 20208.99,3425.84 20208.99,3663.46 20178.56,3663.46 "/>
   <polygon id="10" class="fil8" points="20277.09,3425.84 20307.52,3425.84 20307.52,3525.93 20418.2,3425.84 20460.12,3425.84 20339.96,3534.28 20469.74,3663.46 20426.48,3663.46 20317.14,3553.6 20307.52,3562.1 20307.52,3663.46 20277.09,3663.46 "/>
   <polygon id="11" class="fil8" points="20532.16,3425.84 20532.16,3601.85 20706.98,3425.84 20709.37,3425.84 20709.37,3663.46 20678.94,3663.46 20678.94,3488.79 20505.46,3663.46 20501.73,3663.46 20501.73,3425.84 "/>
   <polygon id="12" class="fil8" points="20757.77,3529.21 20877.7,3529.21 20877.7,3556.06 20757.77,3556.06 "/>
   <polygon id="13" class="fil8" points="20926.03,3425.84 21125.61,3425.84 21125.61,3663.46 21095.18,3663.46 21095.18,3454.48 20956.46,3454.48 20956.46,3663.46 20926.03,3663.46 "/>
   <path id="14" class="fil8" d="M21430.44 3425.84l0 237.62 -30.43 0 0 -40.87c-12.83,15.59 -27.15,27.3 -43.11,35.05 -15.89,7.76 -33.34,11.64 -52.21,11.64 -33.56,0 -62.28,-12.16 -86.07,-36.47 -23.79,-24.39 -35.65,-53.93 -35.65,-88.83 0,-34.09 12.01,-63.32 36.02,-87.56 23.94,-24.24 52.81,-36.4 86.59,-36.4 19.47,0 37.07,4.1 52.88,12.31 15.74,8.2 29.61,20.58 41.55,37.21l0 -43.7 30.43 0zm-122.47 23.72c-17,0 -32.74,4.17 -47.06,12.53 -14.4,8.27 -25.81,19.98 -34.31,35.05 -8.5,15.07 -12.75,31.03 -12.75,47.88 0,16.63 4.25,32.59 12.83,47.81 8.57,15.21 20.06,27.07 34.53,35.5 14.47,8.5 29.98,12.76 46.54,12.76 16.63,0 32.52,-4.18 47.43,-12.61 14.99,-8.43 26.48,-19.76 34.53,-34.16 8.06,-14.32 12.09,-30.5 12.09,-48.48 0,-27.37 -9.03,-50.27 -27.15,-68.69 -18.05,-18.42 -40.28,-27.59 -66.68,-27.59z"/>
   <path id="15" class="fil8" d="M21499.88 3425.84l30.43 0 0 43.7c12.08,-16.63 25.95,-29.01 41.69,-37.21 15.74,-8.21 33.26,-12.31 52.66,-12.31 33.78,0 62.65,12.16 86.66,36.4 24.02,24.24 36.02,53.47 36.02,87.56 0,34.9 -11.93,64.44 -35.72,88.83 -23.79,24.31 -52.51,36.47 -86.14,36.47 -18.87,0 -36.25,-3.96 -52.14,-11.79 -15.88,-7.9 -30.2,-19.61 -43.03,-35.2l0 127.98 -30.43 0 0 -324.43zm122.54 23.72c-26.48,0 -48.71,9.17 -66.75,27.59 -18.13,18.42 -27.15,41.32 -27.15,68.69 0,17.98 4.02,34.16 12.08,48.48 8.05,14.4 19.62,25.73 34.61,34.16 15.06,8.43 30.95,12.61 47.58,12.61 16.41,0 31.85,-4.26 46.32,-12.76 14.47,-8.43 25.95,-20.29 34.53,-35.5 8.58,-15.22 12.83,-31.18 12.83,-47.81 0,-16.85 -4.25,-32.81 -12.76,-47.88 -8.5,-15.07 -19.91,-26.78 -34.3,-35.05 -14.32,-8.36 -30.06,-12.53 -46.99,-12.53z"/>
   <polygon id="16" class="fil8" points="21778.3,3425.84 21934.47,3425.84 21934.47,3452.24 21871.38,3452.24 21871.38,3663.46 21840.95,3663.46 21840.95,3452.24 21778.3,3452.24 "/>
   <polygon id="17" class="fil8" points="22145.17,3548.9 22006.45,3548.9 22006.45,3663.46 21976.02,3663.46 21976.02,3425.84 22006.45,3425.84 22006.45,3520.26 22145.17,3520.26 22145.17,3425.84 22175.6,3425.84 22175.6,3663.46 22145.17,3663.46 "/>
   <path id="18" class="fil8" d="M22444.33 3584.7l25.8 13.57c-8.5,16.49 -18.27,29.84 -29.38,39.98 -11.11,10.07 -23.57,17.83 -37.44,23.12 -13.95,5.3 -29.61,7.91 -47.14,7.91 -38.93,0 -69.29,-12.68 -91.21,-38.04 -21.93,-25.36 -32.9,-54 -32.9,-85.92 0,-30.06 9.33,-56.91 27.9,-80.4 23.49,-29.91 55.04,-44.9 94.5,-44.9 40.64,0 73.16,15.36 97.4,46.02 17.23,21.63 26.03,48.63 26.33,81.07l-214.8 0c0.6,27.52 9.47,50.05 26.55,67.57 17.16,17.6 38.34,26.41 63.47,26.41 12.16,0 24.02,-2.09 35.5,-6.27 11.49,-4.18 21.26,-9.7 29.31,-16.63 8.06,-6.94 16.79,-18.05 26.11,-33.49zm0.3 -63.99c-4.1,-16.34 -10.07,-29.31 -17.9,-39.08 -7.91,-9.77 -18.28,-17.61 -31.18,-23.57 -12.9,-5.97 -26.48,-8.95 -40.65,-8.95 -23.49,0 -43.63,7.46 -60.48,22.45 -12.38,10.96 -21.63,27.29 -27.97,49.15l178.18 0z"/>
   <path id="19" class="fil8" d="M22534.95 3425.84l30.43 0 0 43.7c12.08,-16.63 25.95,-29.01 41.69,-37.21 15.74,-8.21 33.26,-12.31 52.66,-12.31 33.78,0 62.65,12.16 86.66,36.4 24.02,24.24 36.02,53.47 36.02,87.56 0,34.9 -11.93,64.44 -35.72,88.83 -23.79,24.31 -52.51,36.47 -86.14,36.47 -18.87,0 -36.25,-3.96 -52.14,-11.79 -15.88,-7.9 -30.2,-19.61 -43.03,-35.2l0 127.98 -30.43 0 0 -324.43zm122.54 23.72c-26.48,0 -48.71,9.17 -66.75,27.59 -18.13,18.42 -27.15,41.32 -27.15,68.69 0,17.98 4.02,34.16 12.08,48.48 8.05,14.4 19.62,25.73 34.61,34.16 15.06,8.43 30.95,12.61 47.58,12.61 16.41,0 31.85,-4.26 46.32,-12.76 14.47,-8.43 25.95,-20.29 34.53,-35.5 8.58,-15.22 12.83,-31.18 12.83,-47.81 0,-16.85 -4.25,-32.81 -12.76,-47.88 -8.5,-15.07 -19.91,-26.78 -34.3,-35.05 -14.32,-8.36 -30.06,-12.53 -46.99,-12.53z"/>
   <path id="20" class="fil8" d="M22869.98 3519.81l29.16 0c23.19,0 41.32,1.79 54.44,5.45 13.13,3.65 24.47,11.71 33.94,24.16 9.47,12.46 14.24,26.78 14.24,42.96 0,19.54 -6.86,36.25 -20.58,50.2 -13.65,13.94 -34.46,20.88 -62.28,20.88l-79.13 0 0 -237.62 30.21 0 0 93.97zm1.11 28.2l0 89.5 35.28 0c41.55,0 62.28,-14.55 62.28,-43.56 0,-8.28 -2.24,-16.41 -6.71,-24.39 -4.4,-7.98 -10.97,-13.57 -19.47,-16.78 -8.58,-3.21 -23.64,-4.77 -45.27,-4.77l-26.11 0zm173.19 -122.17l30.43 0 0 237.62 -30.43 0 0 -237.62z"/>
   <path id="21" class="fil8" d="M23494.76 3475.21l-24.24 15.07c-21.03,-27.75 -49.75,-41.62 -86.14,-41.62 -29.09,0 -53.26,9.32 -72.5,27.89 -19.17,18.58 -28.79,41.1 -28.79,67.65 0,17.3 4.4,33.56 13.28,48.78 8.8,15.21 20.96,27.07 36.39,35.5 15.37,8.43 32.67,12.61 51.84,12.61 35.05,0 63.69,-13.88 85.92,-41.62l24.24 15.96c-11.41,17.08 -26.7,30.28 -45.87,39.75 -19.24,9.4 -41.09,14.1 -65.63,14.1 -37.74,0 -68.99,-11.94 -93.83,-35.73 -24.83,-23.86 -37.22,-52.8 -37.22,-86.96 0,-22.9 5.82,-44.23 17.46,-63.92 11.56,-19.69 27.52,-35.05 47.81,-46.09 20.36,-11.04 43.03,-16.56 68.16,-16.56 15.82,0 31.03,2.39 45.72,7.16 14.62,4.77 27.08,11.04 37.3,18.72 10.29,7.68 18.94,17.45 26.1,29.31z"/>
   <polygon id="22" class="fil8" points="23526.98,3425.84 23683.15,3425.84 23683.15,3452.24 23620.06,3452.24 23620.06,3663.46 23589.63,3663.46 23589.63,3452.24 23526.98,3452.24 "/>
   <path id="23" class="fil8" d="M23837.4 3420.02c36.62,0 67.05,13.2 91.14,39.68 21.92,24.09 32.89,52.65 32.89,85.62 0,33.12 -11.56,62.05 -34.76,86.82 -23.12,24.76 -52.95,37.14 -89.27,37.14 -36.55,0 -66.46,-12.38 -89.58,-37.14 -23.19,-24.77 -34.76,-53.7 -34.76,-86.82 0,-32.82 10.97,-61.31 32.9,-85.4 24.09,-26.62 54.59,-39.9 91.44,-39.9zm-0.15 29.98c-25.44,0 -47.22,9.33 -65.49,28.05 -18.27,18.72 -27.37,41.39 -27.37,67.94 0,17.08 4.18,33.04 12.46,47.88 8.35,14.77 19.61,26.18 33.78,34.24 14.1,8.05 29.69,12.08 46.62,12.08 16.93,0 32.51,-4.03 46.61,-12.08 14.17,-8.06 25.43,-19.47 33.79,-34.24 8.28,-14.84 12.45,-30.8 12.45,-47.88 0,-26.55 -9.17,-49.22 -27.52,-67.94 -18.27,-18.72 -40.05,-28.05 -65.33,-28.05z"/>
   <polygon id="24" class="fil8" points="24276.54,3425.84 24285.34,3425.84 24365.6,3663.46 24333.67,3663.46 24274.83,3488.94 24183.24,3663.46 24177.57,3663.46 24085.98,3488.19 24027.14,3663.46 23995.29,3663.46 24076.36,3425.84 24084.64,3425.84 24180.63,3611.7 "/>
   <path id="25" class="fil8" d="M24647.75 3425.84l0 237.62 -30.43 0 0 -40.87c-12.83,15.59 -27.15,27.3 -43.11,35.05 -15.89,7.76 -33.34,11.64 -52.21,11.64 -33.56,0 -62.28,-12.16 -86.07,-36.47 -23.79,-24.39 -35.65,-53.93 -35.65,-88.83 0,-34.09 12.01,-63.32 36.02,-87.56 23.94,-24.24 52.81,-36.4 86.59,-36.4 19.47,0 37.07,4.1 52.88,12.31 15.74,8.2 29.61,20.58 41.55,37.21l0 -43.7 30.43 0zm-122.47 23.72c-17,0 -32.74,4.17 -47.06,12.53 -14.4,8.27 -25.81,19.98 -34.31,35.05 -8.5,15.07 -12.75,31.03 -12.75,47.88 0,16.63 4.25,32.59 12.83,47.81 8.57,15.21 20.06,27.07 34.53,35.5 14.47,8.5 29.98,12.76 46.54,12.76 16.63,0 32.52,-4.18 47.43,-12.61 14.99,-8.43 26.48,-19.76 34.53,-34.16 8.06,-14.32 12.09,-30.5 12.09,-48.48 0,-27.37 -9.03,-50.27 -27.15,-68.69 -18.05,-18.42 -40.28,-27.59 -66.68,-27.59z"/>
   <polygon id="26" class="fil8" points="24690.34,3425.84 24846.51,3425.84 24846.51,3452.24 24783.42,3452.24 24783.42,3663.46 24752.99,3663.46 24752.99,3452.24 24690.34,3452.24 "/>
   <path id="27" class="fil8" d="M25000.76 3420.02c36.62,0 67.05,13.2 91.14,39.68 21.92,24.09 32.89,52.65 32.89,85.62 0,33.12 -11.56,62.05 -34.76,86.82 -23.12,24.76 -52.95,37.14 -89.27,37.14 -36.55,0 -66.46,-12.38 -89.58,-37.14 -23.19,-24.77 -34.76,-53.7 -34.76,-86.82 0,-32.82 10.97,-61.31 32.9,-85.4 24.09,-26.62 54.59,-39.9 91.44,-39.9zm-0.15 29.98c-25.44,0 -47.22,9.33 -65.49,28.05 -18.27,18.72 -27.37,41.39 -27.37,67.94 0,17.08 4.18,33.04 12.46,47.88 8.35,14.77 19.61,26.18 33.78,34.24 14.1,8.05 29.69,12.08 46.62,12.08 16.93,0 32.51,-4.03 46.61,-12.08 14.17,-8.06 25.43,-19.47 33.79,-34.24 8.28,-14.84 12.45,-30.8 12.45,-47.88 0,-26.55 -9.17,-49.22 -27.52,-67.94 -18.27,-18.72 -40.05,-28.05 -65.33,-28.05z"/>
   <polygon id="28" class="fil8" points="25382.62,3663.46 25350.63,3663.46 25270.38,3490.2 25191.39,3663.46 25158.65,3663.46 25267.17,3425.84 25272.61,3425.84 "/>
   <path id="29" class="fil8" d="M25541.79 3420.02c36.62,0 67.05,13.2 91.14,39.68 21.92,24.09 32.89,52.65 32.89,85.62 0,33.12 -11.56,62.05 -34.76,86.82 -23.12,24.76 -52.95,37.14 -89.27,37.14 -36.55,0 -66.46,-12.38 -89.58,-37.14 -23.19,-24.77 -34.76,-53.7 -34.76,-86.82 0,-32.82 10.97,-61.31 32.9,-85.4 24.09,-26.62 54.59,-39.9 91.44,-39.9zm-0.15 29.98c-25.44,0 -47.22,9.33 -65.49,28.05 -18.27,18.72 -27.37,41.39 -27.37,67.94 0,17.08 4.18,33.04 12.46,47.88 8.35,14.77 19.61,26.18 33.78,34.24 14.1,8.05 29.69,12.08 46.62,12.08 16.93,0 32.51,-4.03 46.61,-12.08 14.17,-8.06 25.43,-19.47 33.79,-34.24 8.28,-14.84 12.45,-30.8 12.45,-47.88 0,-26.55 -9.17,-49.22 -27.52,-67.94 -18.27,-18.72 -40.05,-28.05 -65.33,-28.05z"/>
   <polygon id="30" class="fil8" points="25752.56,3452.69 25752.56,3663.46 25722.13,3663.46 25722.13,3425.84 25842.51,3425.84 25842.51,3452.69 "/>
   <polygon id="31" class="fil8" points="25914.03,3425.84 25914.03,3601.85 26088.85,3425.84 26091.24,3425.84 26091.24,3663.46 26060.81,3663.46 26060.81,3488.79 25887.33,3663.46 25883.6,3663.46 25883.6,3425.84 "/>
   <polygon id="32" class="fil8" points="26189.76,3425.84 26189.76,3601.85 26364.58,3425.84 26366.97,3425.84 26366.97,3663.46 26336.54,3663.46 26336.54,3488.79 26163.06,3663.46 26159.33,3663.46 26159.33,3425.84 "/>
   <path id="33" class="fil8" d="M26563.86 3711.34l-32.22 0 0 -77.86 25.73 0 126.05 -291.32 11.11 0 133.13 291.32 24.84 0 0 77.86 -32.22 0 0 -47.88 -256.42 0 0 47.88zm29.76 -77.86l196.01 0 -100.47 -224.2 -95.54 224.2z"/>
   <path id="34" class="fil8" d="M27130.4 3425.84l0 237.62 -30.43 0 0 -40.87c-12.83,15.59 -27.15,27.3 -43.11,35.05 -15.89,7.76 -33.34,11.64 -52.21,11.64 -33.56,0 -62.28,-12.16 -86.07,-36.47 -23.79,-24.39 -35.65,-53.93 -35.65,-88.83 0,-34.09 12.01,-63.32 36.02,-87.56 23.94,-24.24 52.81,-36.4 86.59,-36.4 19.47,0 37.07,4.1 52.88,12.31 15.74,8.2 29.61,20.58 41.55,37.21l0 -43.7 30.43 0zm-122.47 23.72c-17,0 -32.74,4.17 -47.06,12.53 -14.4,8.27 -25.81,19.98 -34.31,35.05 -8.5,15.07 -12.75,31.03 -12.75,47.88 0,16.63 4.25,32.59 12.83,47.81 8.57,15.21 20.06,27.07 34.53,35.5 14.47,8.5 29.98,12.76 46.54,12.76 16.63,0 32.52,-4.18 47.43,-12.61 14.99,-8.43 26.48,-19.76 34.53,-34.16 8.06,-14.32 12.09,-30.5 12.09,-48.48 0,-27.37 -9.03,-50.27 -27.15,-68.69 -18.05,-18.42 -40.28,-27.59 -66.68,-27.59z"/>
   <polygon id="35" class="fil8" points="27368.54,3548.9 27229.82,3548.9 27229.82,3663.46 27199.39,3663.46 27199.39,3425.84 27229.82,3425.84 27229.82,3520.26 27368.54,3520.26 27368.54,3425.84 27398.97,3425.84 27398.97,3663.46 27368.54,3663.46 "/>
   <polygon id="36" class="fil8" points="27440.67,3425.84 27596.84,3425.84 27596.84,3452.24 27533.75,3452.24 27533.75,3663.46 27503.32,3663.46 27503.32,3452.24 27440.67,3452.24 "/>
   <polygon id="37" class="fil8" points="27668.82,3425.84 27668.82,3601.85 27843.64,3425.84 27846.03,3425.84 27846.03,3663.46 27815.6,3663.46 27815.6,3488.79 27642.12,3663.46 27638.39,3663.46 27638.39,3425.84 "/>
   <path id="38" class="fil8" d="M28145.03 3475.21l-24.24 15.07c-21.03,-27.75 -49.75,-41.62 -86.14,-41.62 -29.09,0 -53.26,9.32 -72.5,27.89 -19.17,18.58 -28.79,41.1 -28.79,67.65 0,17.3 4.4,33.56 13.28,48.78 8.8,15.21 20.96,27.07 36.39,35.5 15.37,8.43 32.67,12.61 51.84,12.61 35.05,0 63.69,-13.88 85.92,-41.62l24.24 15.96c-11.41,17.08 -26.7,30.28 -45.87,39.75 -19.24,9.4 -41.09,14.1 -65.63,14.1 -37.74,0 -68.99,-11.94 -93.83,-35.73 -24.83,-23.86 -37.22,-52.8 -37.22,-86.96 0,-22.9 5.82,-44.23 17.46,-63.92 11.56,-19.69 27.52,-35.05 47.81,-46.09 20.36,-11.04 43.03,-16.56 68.16,-16.56 15.82,0 31.03,2.39 45.72,7.16 14.62,4.77 27.08,11.04 37.3,18.72 10.29,7.68 18.94,17.45 26.1,29.31z"/>
   <polygon id="39" class="fil8" points="28177.25,3425.84 28333.42,3425.84 28333.42,3452.24 28270.33,3452.24 28270.33,3663.46 28239.9,3663.46 28239.9,3452.24 28177.25,3452.24 "/>
   <path id="40" class="fil8" d="M28487.67 3420.02c36.62,0 67.05,13.2 91.14,39.68 21.92,24.09 32.89,52.65 32.89,85.62 0,33.12 -11.56,62.05 -34.76,86.82 -23.12,24.76 -52.95,37.14 -89.27,37.14 -36.55,0 -66.46,-12.38 -89.58,-37.14 -23.19,-24.77 -34.76,-53.7 -34.76,-86.82 0,-32.82 10.97,-61.31 32.9,-85.4 24.09,-26.62 54.59,-39.9 91.44,-39.9zm-0.15 29.98c-25.44,0 -47.22,9.33 -65.49,28.05 -18.27,18.72 -27.37,41.39 -27.37,67.94 0,17.08 4.18,33.04 12.46,47.88 8.35,14.77 19.61,26.18 33.78,34.24 14.1,8.05 29.69,12.08 46.62,12.08 16.93,0 32.51,-4.03 46.61,-12.08 14.17,-8.06 25.43,-19.47 33.79,-34.24 8.28,-14.84 12.45,-30.8 12.45,-47.88 0,-26.55 -9.17,-49.22 -27.52,-67.94 -18.27,-18.72 -40.05,-28.05 -65.33,-28.05z"/>
   <path id="41" class="fil8" d="M28860.88 3334.1l30.43 0 0 127.54c19.1,-27.15 46.62,-40.72 82.49,-40.72 34.53,0 63.55,11.7 86.89,35.2 23.42,23.49 35.13,53.55 35.13,90.32 0,36.32 -11.78,66.08 -35.43,89.42 -23.64,23.35 -52.21,34.98 -85.77,34.98 -36.69,0 -64.51,-14.32 -83.31,-42.96l0 122.39 -30.43 0 0 -122.39c-18.49,28.79 -46.54,43.19 -83.98,43.19 -32.96,0 -61.31,-11.64 -84.95,-34.98 -23.72,-23.35 -35.58,-53.18 -35.58,-89.65 0,-36.77 11.71,-66.83 35.13,-90.32 23.35,-23.5 52.36,-35.2 86.89,-35.2 36.62,0 64.14,13.57 82.49,40.72l0 -127.54zm29.54 216.44c0,28.34 8.13,50.57 24.31,66.75 16.19,16.19 34.76,24.24 55.72,24.24 28.56,0 51.46,-9.47 68.69,-28.34 17.23,-18.94 25.8,-41.69 25.8,-68.32 0,-27.44 -9.1,-50.34 -27.22,-68.46 -18.12,-18.2 -39.9,-27.3 -65.26,-27.3 -22.9,0 -42.29,8.13 -58.18,24.39 -15.88,16.18 -23.86,41.91 -23.86,77.04zm-203.17 -5.44c0,26.47 8.58,49.15 25.66,68.09 17.15,18.87 40.05,28.34 68.69,28.34 9.92,0 20.59,-2.53 31.92,-7.53 11.34,-5 20.51,-11.34 27.37,-19.02 6.94,-7.68 12.16,-16.48 15.67,-26.48 3.5,-10.06 5.22,-24.68 5.22,-44.07 0,-30.73 -7.98,-54.38 -24.02,-70.71 -16.03,-16.41 -35.43,-24.61 -58.1,-24.61 -25.51,0 -47.28,9.1 -65.33,27.3 -18.05,18.12 -27.08,41.09 -27.08,68.69z"/>
   <path id="42" class="fil8" d="M29345.07 3334.1l30.43 0 0 127.54c19.1,-27.15 46.62,-40.72 82.49,-40.72 34.53,0 63.55,11.7 86.89,35.2 23.42,23.49 35.13,53.55 35.13,90.32 0,36.32 -11.78,66.08 -35.43,89.42 -23.64,23.35 -52.21,34.98 -85.77,34.98 -36.69,0 -64.51,-14.32 -83.31,-42.96l0 122.39 -30.43 0 0 -122.39c-18.49,28.79 -46.54,43.19 -83.98,43.19 -32.96,0 -61.31,-11.64 -84.95,-34.98 -23.72,-23.35 -35.58,-53.18 -35.58,-89.65 0,-36.77 11.71,-66.83 35.13,-90.32 23.35,-23.5 52.36,-35.2 86.89,-35.2 36.62,0 64.14,13.57 82.49,40.72l0 -127.54zm29.54 216.44c0,28.34 8.13,50.57 24.31,66.75 16.19,16.19 34.76,24.24 55.72,24.24 28.56,0 51.46,-9.47 68.69,-28.34 17.23,-18.94 25.8,-41.69 25.8,-68.32 0,-27.44 -9.1,-50.34 -27.22,-68.46 -18.12,-18.2 -39.9,-27.3 -65.26,-27.3 -22.9,0 -42.29,8.13 -58.18,24.39 -15.88,16.18 -23.86,41.91 -23.86,77.04zm-203.17 -5.44c0,26.47 8.58,49.15 25.66,68.09 17.15,18.87 40.05,28.34 68.69,28.34 9.92,0 20.59,-2.53 31.92,-7.53 11.34,-5 20.51,-11.34 27.37,-19.02 6.94,-7.68 12.16,-16.48 15.67,-26.48 3.5,-10.06 5.22,-24.68 5.22,-44.07 0,-30.73 -7.98,-54.38 -24.02,-70.71 -16.03,-16.41 -35.43,-24.61 -58.1,-24.61 -25.51,0 -47.28,9.1 -65.33,27.3 -18.05,18.12 -27.08,41.09 -27.08,68.69z"/>
  </g>
 </g>
</svg>
